<?xml version="1.0" standalone="no"?>
<!DOCTYPE svg PUBLIC "-//W3C//DTD SVG 1.1//EN" "http://www.w3.org/Graphics/SVG/1.1/DTD/svg11.dtd" >
<svg xmlns="http://www.w3.org/2000/svg" xmlns:xlink="http://www.w3.org/1999/xlink" version="1.1">
<metadata>
Created by FontForge 20200314 at Sun Oct 11 21:19:19 2015
 By Unknown
Copyright 2015 (c) The Monotype Corporation. All rights reserved.
</metadata>
<defs>
<font id="GillSansNovaInlineW07-Rg" horiz-adv-x="741" >
  <font-face 
    font-family="GillSansNovaInlineW07-Rg"
    font-weight="400"
    font-stretch="normal"
    units-per-em="1000"
    panose-1="4 2 5 5 2 11 1 3 2 4"
    ascent="745"
    descent="-255"
    x-height="682"
    cap-height="682"
    bbox="-476 -264 1668 1004"
    underline-thickness="50"
    underline-position="-125"
    unicode-range="U+000D-FEFF"
  />
<missing-glyph horiz-adv-x="500" 
d="M12 668h475v-668h-475v668zM411 621h-323l162 -244zM221 334l-161 244v-486zM440 578l-162 -244l162 -243v487zM411 48l-161 243l-162 -243h323z" />
    <glyph glyph-name="uniFB00" unicode="ff" horiz-adv-x="1077" 
d="M69 682h406v-42h-358v-640h-48v682zM166 596h309v-42h-262v-140h257v-41h-304v223zM166 328h304v-42h-257v-286h-47v328zM608 682h406v-42h-358v-640h-48v682zM705 596h309v-42h-262v-140h257v-41h-304v223zM705 328h304v-42h-257v-286h-47v328z" />
    <glyph glyph-name="uniFB01" unicode="fi" horiz-adv-x="840" 
d="M69 682h406v-42h-358v-640h-48v682zM166 596h309v-42h-262v-140h257v-41h-304v223zM166 328h304v-42h-257v-286h-47v328zM618 682h48v-682h-48v682zM714 682h48v-682h-48v682z" />
    <glyph glyph-name="uniFB02" unicode="fl" horiz-adv-x="1065" 
d="M69 682h406v-42h-358v-640h-48v682zM166 596h309v-42h-262v-140h257v-41h-304v223zM166 328h304v-42h-257v-286h-47v328zM608 682h48v-640h390v-42h-438v682zM705 682h47v-553h294v-42h-341v595z" />
    <glyph glyph-name="uniFB03" unicode="ffi" horiz-adv-x="1379" 
d="M69 682h406v-42h-358v-640h-48v682zM166 596h309v-42h-262v-140h257v-41h-304v223zM166 328h304v-42h-257v-286h-47v328zM608 682h406v-42h-358v-640h-48v682zM705 596h309v-42h-262v-140h257v-41h-304v223zM705 328h304v-42h-257v-286h-47v328zM1156 682h48v-682h-48
v682zM1252 682h48v-682h-48v682z" />
    <glyph glyph-name="uniFB04" unicode="ffl" horiz-adv-x="1604" 
d="M69 682h406v-42h-358v-640h-48v682zM166 596h309v-42h-262v-140h257v-41h-304v223zM166 328h304v-42h-257v-286h-47v328zM608 682h406v-42h-358v-640h-48v682zM705 596h309v-42h-262v-140h257v-41h-304v223zM705 328h304v-42h-257v-286h-47v328zM1146 682h48v-640h390
v-42h-438v682zM1243 682h47v-553h294v-42h-341v595z" />
    <glyph glyph-name=".notdef" horiz-adv-x="500" 
d="M12 668h475v-668h-475v668zM411 621h-323l162 -244zM221 334l-161 244v-486zM440 578l-162 -244l162 -243v487zM411 48l-161 243l-162 -243h323z" />
    <glyph glyph-name="glyph1" horiz-adv-x="0" 
 />
    <glyph glyph-name="glyph1" horiz-adv-x="0" 
 />
    <glyph glyph-name="uni000D" unicode="&#xd;" horiz-adv-x="285" 
 />
    <glyph glyph-name="space" unicode=" " horiz-adv-x="285" 
 />
    <glyph glyph-name="exclam" unicode="!" horiz-adv-x="314" 
d="M138 220.5q-9 10.5 -18 37.5q-19 55 -33.5 144t-14.5 149q0 72 22 110t64 38t63 -35.5t21 -108.5q0 -72 -13.5 -151t-31.5 -143q-14 -51 -38 -51q-12 0 -21 10.5zM169 287q14 62 23 133.5t9 134.5q0 55 -10.5 81t-32.5 26t-33.5 -28.5t-11.5 -82.5q1 -53 11 -133t23 -132
q8 -31 11 -31q4 0 11 32zM89 16.5q-29 28.5 -29 68.5q0 41 28.5 69t68.5 28q39 0 68 -28t29 -68t-28.5 -69t-68.5 -29q-39 0 -68 28.5zM200 42q18 18 18 44q0 25 -18.5 43t-42.5 18q-25 0 -43 -17.5t-18 -44.5q0 -25 18.5 -43t42.5 -18q25 0 43 18zM141 69.5q-7 6.5 -7 15.5
q0 10 7 16.5t16 6.5t16 -6.5t7 -15.5q0 -10 -7 -16.5t-16 -6.5t-16 6.5z" />
    <glyph glyph-name="quotedbl" unicode="&#x22;" horiz-adv-x="398" 
d="M43 563v119h40v-119l14 -146h-38zM129 563v119h40v-119l-16 -146h-38zM229 563v119h40v-119l14 -146h-38zM315 563v119h40v-119l-16 -146h-38z" />
    <glyph glyph-name="numbersign" unicode="#" horiz-adv-x="676" 
d="M35 530h148l34 160h42l-41 -201h-183v41zM304 690h43l-33 -160h126l33 160h42l-41 -201h-211zM561 690h41l-33 -160h72v-41h-122zM35 271h97l27 135h-122v41h172l-43 -217h-131v41zM254 447h211l-42 -217h-211zM510 447h132v-41h-97l-27 -135h123v-41h-174zM388 271
l27 135h-125l-28 -135h126zM107 147h-72v42h122l-40 -201h-43zM203 189h211l-42 -201h-42l33 159h-125l-33 -159h-43zM459 189h182v-42h-148l-33 -159h-42z" />
    <glyph glyph-name="dollar" unicode="$" horiz-adv-x="513" 
d="M51 153v52q40 -45 89 -70t99 -25q38 0 59.5 15.5t21.5 45.5q0 16 -9 30.5t-38 36t-88 54.5q-76 41 -106 85.5t-30 108.5q0 71 50.5 117.5t134.5 54.5v51h41v-49q86 -1 163 -48v-48q-38 27 -84 41t-88 14q-77 0 -123.5 -35.5t-46.5 -96.5q0 -40 13 -67.5t37.5 -48
t67.5 -45.5q64 -37 95 -60t44 -44.5t13 -50.5q0 -48 -34.5 -75t-90.5 -27q-108 0 -190 84zM234 -9q-104 3 -183 58v48q41 -32 87.5 -48t104.5 -16q79 0 126.5 37t47.5 101q0 40 -14.5 68t-48 54t-98.5 64q-48 28 -71 47t-31 38t-8 47q0 44 32.5 68t90.5 24q41 0 85.5 -14.5
t83.5 -45.5v-52q-77 71 -168 71q-78 0 -78 -53q0 -18 5 -30t25 -28.5t63 -40.5q72 -39 110.5 -72t53.5 -66.5t15 -78.5q0 -74 -51 -123t-138 -56v-109h-41v108z" />
    <glyph glyph-name="percent" unicode="%" horiz-adv-x="775" 
d="M557 697h38l-438 -711h-38zM622 697h38l-438 -711h-38zM103.5 373q-38.5 22 -61 60.5t-22.5 87.5t22.5 87.5t61 60.5t86.5 22q47 0 85.5 -22t61 -61t22.5 -87t-22 -87t-61 -61t-86 -22q-48 0 -86.5 22zM282.5 427q37.5 38 37.5 94t-37.5 94t-92.5 38q-56 0 -93.5 -38
t-37.5 -94t37.5 -94t93.5 -38q55 0 92.5 38zM118 443q-28 30 -28 77t28.5 78t71.5 31t71 -30.5t28 -78.5q0 -47 -27.5 -77t-71.5 -30t-72 30zM235.5 470.5q17.5 19.5 17.5 49.5t-18 50.5t-45 20.5q-28 0 -46 -20t-18 -51q0 -30 18 -49.5t46 -19.5t45.5 19.5zM500 13.5
q-39 22.5 -61.5 61t-22.5 86.5q0 47 22.5 86t61.5 61.5t86 22.5t86 -22t61 -61t22 -87q0 -47 -22 -86t-60.5 -61.5t-86.5 -22.5q-47 0 -86 22.5zM678.5 67q37.5 38 37.5 94t-37 94t-93 38q-55 0 -92.5 -38t-37.5 -94t37.5 -94t92.5 -38t92.5 38zM513.5 83q-27.5 30 -27.5 77
q0 48 27.5 78.5t71.5 30.5t72.5 -31t28.5 -78t-28.5 -77t-72.5 -30t-71.5 30zM631 110.5q18 19.5 18 49.5t-18 50.5t-46 20.5q-27 0 -45 -20.5t-18 -50.5t17.5 -49.5t45.5 -19.5t46 19.5z" />
    <glyph glyph-name="ampersand" unicode="&#x26;" horiz-adv-x="702" 
d="M131 12q-46 21 -72.5 59t-26.5 86q0 60 38 107t117 92q-38 43 -57.5 78t-19.5 75q0 47 23.5 85t68.5 60t106 22q63 0 107 -22t66.5 -57.5t22.5 -76.5q0 -50 -29 -94t-96 -88l90 -96q36 37 63 101h45q-47 -104 -112 -155l-150 155q78 42 112 83.5t34 88.5q0 55 -41.5 89
t-111.5 34q-72 0 -113 -35t-41 -90q0 -39 20 -74t75 -90q-93 -46 -133.5 -91t-40.5 -99q0 -36 20 -66t56.5 -47.5t83.5 -17.5q56 0 111.5 27.5t116.5 71.5l118 -127h-57l-72 80q-59 -41 -111 -65t-107 -24q-57 0 -103 21zM200 513q0 42 32.5 66.5t76.5 24.5q46 0 77.5 -25.5
t31.5 -64.5q0 -82 -130 -142q-88 75 -88 141zM358.5 461q20.5 25 20.5 47q0 26 -19.5 43t-50.5 17q-29 0 -49.5 -15.5t-20.5 -39.5q0 -22 14 -46t44 -53q41 22 61.5 47zM494 158q87 84 126 185h47q-38 -98 -117 -183l149 -160h-56zM156.5 98q-33.5 28 -33.5 65q0 45 32.5 80
t117.5 81l161 -167q-111 -87 -192 -87q-52 0 -85.5 28zM303.5 120.5q28.5 15.5 62.5 43.5l-105 113q-52 -33 -74 -57.5t-22 -52.5q0 -26 23 -44t57 -18q30 0 58.5 15.5z" />
    <glyph glyph-name="quotesingle" unicode="'" horiz-adv-x="212" 
d="M43 563v119h40v-119l14 -146h-38zM129 563v119h40v-119l-16 -146h-38z" />
    <glyph glyph-name="parenleft" unicode="(" horiz-adv-x="340" 
d="M45 347q0 135 45.5 244t138.5 209h44q-95 -108 -138 -218t-43 -236q0 -268 181 -465h-44q-184 193 -184 466zM184 98q-45 117 -45 247t45 240.5t128 214.5h43q-84 -112 -126.5 -222t-42.5 -233q0 -128 44.5 -245.5t124.5 -218.5h-43q-83 100 -128 217z" />
    <glyph glyph-name="parenright" unicode=")" horiz-adv-x="340" 
d="M-16 -119q81 101 125.5 218t44.5 246q0 124 -42.5 234t-127.5 221h43q84 -104 128.5 -214.5t44.5 -240.5t-44.5 -247t-127.5 -217h-44zM67 -119q181 198 181 465q0 126 -43 236t-138 218h44q93 -100 138.5 -209t45.5 -244q0 -273 -184 -466h-44z" />
    <glyph glyph-name="asterisk" unicode="*" horiz-adv-x="573" 
d="M302 462l7 218h43l-11 -165l136 94l22 -37l-187 -115zM72 571l22 38l137 -93l-14 164h45l4 -218l-9 -7zM331 417v10l192 103l21 -37l-148 -73l148 -71l-22 -36zM26 348l148 74l-148 71l22 37l192 -105v-11l-192 -102zM304 379l10 6l185 -116l-21 -37l-138 93l13 -164h-43
zM230 325l-137 -93l-21 37l186 115l11 -6l-8 -218l-43 1z" />
    <glyph glyph-name="plus" unicode="+" horiz-adv-x="579" 
d="M53 411h167v168h45v-212h-212v44zM313 579h45v-168h167v-44h-212v212zM220 276h-167v43h212v-212h-45v169zM313 319h212v-43h-167v-169h-45v212z" />
    <glyph glyph-name="comma" unicode="," horiz-adv-x="321" 
d="M56 -141q38 27 58.5 61t24.5 80q-92 14 -92 94q0 43 30.5 73t77.5 30q56 0 89.5 -38t33.5 -100q0 -55 -27.5 -101t-78 -76.5t-116.5 -39.5v17zM236 59q0 45 -22.5 71t-58.5 26q-31 0 -48.5 -18.5t-17.5 -43.5q0 -59 89 -63q0 -34 -7.5 -65t-27.5 -64q93 62 93 157z
M136 93q0 11 6 18t15 7q10 0 16 -8t6 -23v-23q-43 0 -43 29z" />
    <glyph glyph-name="hyphen" unicode="-" horiz-adv-x="356" 
d="M35 404h286v-43h-286v43zM35 317h286v-42h-286v42z" />
    <glyph glyph-name="period" unicode="." horiz-adv-x="313" 
d="M82 18.5q-31 30.5 -31 74.5q0 45 31 75.5t74 30.5t74.5 -30.5t31.5 -74.5t-31 -75t-75 -31q-43 0 -74 30.5zM201 49q19 19 19 45t-19 44.5t-45 18.5t-44.5 -18.5t-18.5 -45.5q0 -26 19 -44.5t44 -18.5q26 0 45 19zM139 76q-7 7 -7 17t7 17.5t17 7.5t17.5 -7t7.5 -17
t-7.5 -17.5t-17.5 -7.5t-17 7z" />
    <glyph glyph-name="slash" unicode="/" horiz-adv-x="284" 
d="M164 682h46l-215 -832h-46zM254 682h46l-215 -832h-45z" />
    <glyph glyph-name="zero" unicode="0" horiz-adv-x="573" 
d="M157.5 35q-55.5 44 -86.5 123.5t-31 182.5q0 109 34 188.5t91 120.5t124 41q71 0 126.5 -45t86 -124t30.5 -180q0 -105 -32 -185t-88 -123t-126 -43q-73 0 -128.5 44zM387.5 71q45.5 38 71 108t25.5 163q0 88 -24.5 158t-69 109.5t-101.5 39.5q-54 0 -100 -36t-73.5 -106
t-27.5 -166q0 -91 24.5 -161t69.5 -108.5t104 -38.5q56 0 101.5 38zM175 142.5q-40 70.5 -40 199.5q0 128 41.5 198t108.5 70q70 0 111 -70t41 -200q0 -127 -40.5 -197.5t-111.5 -70.5q-70 0 -110 70.5zM362 173.5q28 59.5 28 166.5q0 109 -29 168.5t-76 59.5
q-45 0 -73.5 -59t-28.5 -167q0 -109 27 -168.5t75 -59.5q49 0 77 59.5z" />
    <glyph glyph-name="one" unicode="1" horiz-adv-x="373" 
d="M257 641h-21l-203 -167l-25 30l218 178h79v-682h-48v641zM162 469l-77 -61l-25 29l150 123v-560h-48v469z" />
    <glyph glyph-name="two" unicode="2" horiz-adv-x="550" 
d="M361.5 287q51.5 89 51.5 182q0 52 -22 93t-63.5 64.5t-95.5 23.5q-45 0 -91 -15.5t-85 -52.5v48q41 34 86 47.5t98 13.5q65 0 115.5 -28.5t78 -78t27.5 -110.5q0 -91 -41.5 -171t-123.5 -176h212v-42h-304q106 113 157.5 202zM36 26q73 72 130 136t104.5 143t47.5 146
q0 61 -32.5 86.5t-72.5 25.5q-44 0 -79 -17.5t-78 -60.5v48q72 71 161 71q69 0 109 -40t40 -107q0 -94 -72 -197t-187 -218h401v-42h-472v26z" />
    <glyph glyph-name="three" unicode="3" horiz-adv-x="502" 
d="M57 31v41q42 -22 85.5 -32.5t80.5 -10.5q79 0 128.5 47.5t49.5 123.5q0 65 -34.5 104t-95.5 45v6q60 20 88.5 55.5t28.5 91.5q0 72 -46 111.5t-129 39.5q-77 0 -140 -33v39q65 32 146 32q100 0 157 -49.5t57 -137.5q0 -98 -85 -147q49 -19 73.5 -60.5t24.5 -99.5
q0 -60 -27 -107t-76.5 -73t-114.5 -26q-93 0 -171 40zM138 84q-42 11 -81 33v43q81 -49 155 -49q42 0 68 22.5t26 67.5q0 101 -145 101v102q138 0 138 87q0 40 -26.5 63t-77.5 23q-60 0 -122 -33v40q62 31 130 31q67 0 103 -32.5t36 -87.5t-35.5 -87.5t-102.5 -37.5v-37
q72 -2 109.5 -36.5t37.5 -97.5q0 -59 -36 -92.5t-99 -33.5q-36 0 -78 11z" />
    <glyph glyph-name="four" unicode="4" horiz-adv-x="578" 
d="M317 190h-290v81l331 419h100v-388h83v-38h-131v384h-28l-310 -392v-27h293v-229h-48v190zM365 565v-301h-232zM325 303v148l-114 -148h114zM410 229h131v-39h-83v-190h-48v229z" />
    <glyph glyph-name="five" unicode="5" horiz-adv-x="502" 
d="M124 86q-43 12 -81 30v41q71 -42 141 -42q55 0 90.5 27.5t35.5 68.5q0 51 -38 76t-95 25q-23 0 -50.5 -3t-40.5 -7v380h338v-42h-293v-291q32 4 59 4q73 0 120.5 -36t47.5 -105q0 -59 -44.5 -98.5t-118.5 -39.5q-28 0 -71 12zM43 30v45q38 -20 82 -31t86 -11
q89 0 142 48.5t53 130.5q0 81 -51.5 129.5t-138.5 48.5q-6 0 -45 -3v216h253v-42h-210v-135q5 1 18 1q69 0 119 -28.5t76.5 -77.5t26.5 -109q0 -65 -30 -115.5t-84 -78t-126 -27.5q-87 0 -171 39z" />
    <glyph glyph-name="six" unicode="6" horiz-adv-x="553" 
d="M105 55q-65 64 -65 182q0 90 37 176t106 158t163 120l35 -29q-144 -77 -218.5 -185t-74.5 -240q0 -100 50.5 -152t143.5 -52q81 0 131.5 49.5t50.5 129.5q0 74 -45.5 121t-121.5 47q-44 0 -78.5 -11t-73.5 -43q19 99 91.5 179t170.5 125l33 -31q-75 -37 -130 -88.5
t-83 -111.5q38 21 84 21q57 0 102.5 -26t72 -73.5t26.5 -108.5q0 -59 -27 -109.5t-79 -81t-124 -30.5q-112 0 -177 64zM175.5 108q-38.5 35 -38.5 102q0 56 38 93.5t104 37.5q61 0 100 -36.5t39 -97.5t-37.5 -97.5t-99.5 -36.5q-67 0 -105.5 35zM348 137.5q25 25.5 25 69.5
t-27.5 69.5t-72.5 25.5q-37 0 -65 -25.5t-28 -69.5q0 -53 30 -74t71 -21q42 0 67 25.5z" />
    <glyph glyph-name="seven" unicode="7" horiz-adv-x="525" 
d="M457 641h-427v41h490v-9l-312 -673h-48zM316 555h-286v41h353l-275 -596h-49z" />
    <glyph glyph-name="eight" unicode="8" horiz-adv-x="591" 
d="M168.5 18q-54.5 27 -84 72.5t-29.5 99.5q0 48 25 90t72 68q-45 33 -63 69t-18 78q0 55 29.5 100t81.5 70.5t117 25.5q64 0 115.5 -25.5t80.5 -70t29 -99.5q0 -92 -84 -148q47 -26 71 -66t24 -92q0 -58 -29.5 -103.5t-84 -70.5t-125.5 -25q-73 0 -127.5 27zM437 75.5
q53 45.5 53 117.5q0 55 -28.5 93t-91.5 61q109 46 109 144q0 46 -23 82.5t-64 57.5t-93 21q-53 0 -95 -21.5t-65 -58.5t-23 -81q0 -47 24.5 -81.5t78.5 -65.5q-60 -20 -89 -59.5t-29 -92.5q0 -46 24.5 -83t69 -58t101.5 -21q88 0 141 45.5zM200.5 402q-39.5 35 -39.5 87
t38.5 86.5t96.5 34.5q61 0 99 -34.5t38 -87.5q0 -51 -38.5 -86t-96.5 -35t-97.5 35zM362 428.5q27 23.5 27 59.5t-25.5 60t-67.5 24q-39 0 -65 -23.5t-26 -59.5q0 -37 27.5 -60.5t65.5 -23.5q37 0 64 23.5zM189 107.5q-42 34.5 -42 90.5t41 92.5t106 36.5q67 0 108.5 -35.5
t41.5 -92.5t-41 -91.5t-106 -34.5q-66 0 -108 34.5zM370 136.5q28 25.5 28 64.5q0 38 -28 62.5t-76 24.5q-46 0 -74 -25t-28 -63q0 -39 29.5 -64t75.5 -25q45 0 73 25.5z" />
    <glyph glyph-name="nine" unicode="9" horiz-adv-x="553" 
d="M173 20q144 77 217.5 185t73.5 240q0 100 -50.5 152t-142.5 52q-82 0 -132.5 -49.5t-50.5 -129.5q0 -74 46 -121t121 -47q44 0 78 11t74 43q-17 -93 -90.5 -176.5t-170.5 -128.5l-31 31q74 36 129.5 88t84.5 113q-39 -21 -84 -21q-58 0 -105 26t-73.5 73.5t-26.5 108.5
q0 59 27.5 109.5t79.5 81t124 30.5q112 0 176.5 -64t64.5 -182q0 -90 -37 -176t-106 -158t-163 -120zM174 377.5q-39 36.5 -39 97.5t37.5 97.5t99.5 36.5q66 0 104.5 -35t38.5 -102q0 -56 -38 -93.5t-103 -37.5q-61 0 -100 36.5zM345 405.5q28 25.5 28 69.5q0 53 -30 74
t-71 21q-42 0 -67 -25.5t-25 -69.5t27.5 -69.5t71.5 -25.5q38 0 66 25.5z" />
    <glyph glyph-name="colon" unicode=":" horiz-adv-x="313" 
d="M82 18.5q-31 30.5 -31 74.5q0 45 31 75.5t74 30.5t74.5 -30.5t31.5 -74.5t-31 -75t-75 -31q-43 0 -74 30.5zM201 49q19 19 19 45t-19 44.5t-45 18.5t-44.5 -18.5t-18.5 -45.5q0 -26 19 -44.5t44 -18.5q26 0 45 19zM139 76q-7 7 -7 17t7 17.5t17 7.5t17.5 -7t7.5 -17
t-7.5 -17.5t-17.5 -7.5t-17 7zM82 331.5q-31 30.5 -31 74.5q0 45 31 75.5t74 30.5t74.5 -30.5t31.5 -74.5t-31 -75t-75 -31q-43 0 -74 30.5zM201 362q19 19 19 45t-19 44.5t-45 18.5t-44.5 -18.5t-18.5 -45.5q0 -26 19 -44.5t44 -18.5q26 0 45 19zM139 389q-7 7 -7 17
t7 17.5t17 7.5t17.5 -7t7.5 -17t-7.5 -17.5t-17.5 -7.5t-17 7z" />
    <glyph glyph-name="semicolon" unicode=";" horiz-adv-x="321" 
d="M56 -141q38 27 58.5 61t24.5 80q-92 14 -92 94q0 43 30.5 73t77.5 30q56 0 89.5 -38t33.5 -100q0 -55 -27.5 -101t-78 -76.5t-116.5 -39.5v17zM236 59q0 45 -22.5 71t-58.5 26q-31 0 -48.5 -18.5t-17.5 -43.5q0 -59 89 -63q0 -34 -7.5 -65t-27.5 -64q93 62 93 157z
M136 93q0 11 6 18t15 7q10 0 16 -8t6 -23v-23q-43 0 -43 29zM82 331.5q-31 30.5 -31 74.5q0 45 31 75.5t74 30.5t74.5 -30.5t31.5 -74.5t-31 -75t-75 -31q-43 0 -74 30.5zM201 362q19 19 19 45t-19 44.5t-45 18.5t-44.5 -18.5t-18.5 -45.5q0 -26 19 -44.5t44 -18.5
q26 0 45 19zM139 389q-7 7 -7 17t7 17.5t17 7.5t17.5 -7t7.5 -17t-7.5 -17.5t-17.5 -7.5t-17 7z" />
    <glyph glyph-name="less" unicode="&#x3c;" horiz-adv-x="579" 
d="M47 388l486 218v-46l-486 -220v48zM157 326v16l376 165v-45l-287 -128l287 -125v-46zM47 281v48l486 -219v-47z" />
    <glyph glyph-name="equal" unicode="=" horiz-adv-x="582" 
d="M55 535h472v-44h-472v44zM55 443h472v-43h-472v43zM55 283h472v-43h-472v43zM55 192h472v-43h-472v43z" />
    <glyph glyph-name="greater" unicode="&#x3e;" horiz-adv-x="579" 
d="M47 560v46l486 -218v-48zM47 209l287 125l-287 128v45l376 -165v-16l-376 -163v46zM47 110l486 219v-48l-486 -218v47z" />
    <glyph glyph-name="question" unicode="?" horiz-adv-x="356" 
d="M114.5 229.5q-17.5 19.5 -17.5 52.5q0 28 8.5 56t29.5 63q25 41 34.5 65t9.5 48q0 27 -16.5 42t-43.5 15q-31 0 -65 -18l15 44q33 14 63 14q42 0 66.5 -23t24.5 -59q0 -29 -11.5 -56t-41.5 -72q-23 -36 -33.5 -63t-10.5 -55t13 -38l-1 8l1 8q9 55 66 128q36 44 52 80.5
t16 70.5q0 53 -29.5 82t-83.5 29q-37 0 -77 -11l14 42q33 9 69 9q62 0 105 -36.5t43 -108.5q0 -39 -19 -79.5t-59 -88.5t-55.5 -84.5t-15.5 -67.5q0 -16 5 -25q-38 9 -55.5 28.5zM86.5 18.5q-31.5 30.5 -31.5 74.5q0 45 31 75.5t74 30.5t74.5 -30.5t31.5 -74.5t-31 -75
t-75 -31q-42 0 -73.5 30.5zM205 49q19 19 19 45t-19 44.5t-45 18.5q-25 0 -44 -18.5t-19 -45.5q0 -26 19 -44.5t44 -18.5q26 0 45 19zM143.5 76q-7.5 7 -7.5 17t7.5 17.5t16.5 7.5q10 0 17.5 -7t7.5 -17t-7 -17.5t-18 -7.5q-9 0 -16.5 7z" />
    <glyph glyph-name="at" unicode="@" horiz-adv-x="951" 
d="M228 -108q-92 50 -141.5 143t-49.5 220q0 126 59.5 227.5t167 159.5t244.5 58q121 0 213 -41t142.5 -117.5t50.5 -179.5q0 -95 -34.5 -166.5t-97.5 -110t-148 -38.5q-79 0 -97 66q-35 -32 -75 -49t-79 -17q-72 0 -113 51t-41 135t36 150t105 103.5t163 37.5q86 0 170 -30
l-51 -277q-4 -26 -4 -36q0 -13 4.5 -17t16.5 -4q37 0 67 25t47 71.5t17 107.5q0 110 -75.5 172.5t-216.5 62.5q-109 0 -190 -43t-124 -121t-43 -180q0 -146 78 -229.5t224 -83.5q173 0 298 82l15 -29q-64 -43 -145.5 -64t-170.5 -21q-103 0 -178 41.5t-114.5 119.5
t-39.5 184q0 112 48.5 197t136.5 132t205 47q100 0 173.5 -32t112.5 -92.5t39 -142.5q0 -72 -22.5 -126.5t-63 -84t-90.5 -29.5q-49 0 -49 48q0 20 5 45l46 253q-65 17 -131 17q-79 0 -137.5 -31t-89.5 -88.5t-31 -133.5q0 -69 31.5 -109.5t87.5 -40.5q45 0 87 24t84 75
q-1 -6 -1 -18q0 -82 79 -82q74 0 129 34.5t84.5 97.5t29.5 147q0 93 -45.5 162t-130 106.5t-197.5 37.5q-128 0 -227.5 -53t-155 -147t-55.5 -213q0 -117 44 -202.5t129 -132t204 -46.5q207 0 337 90l16 -29q-140 -93 -354 -93q-126 0 -218 50zM350 156.5q-24 30.5 -24 83.5
q0 61 24.5 107t68 71.5t99.5 25.5q49 0 82 -11l-40 -216q-71 -91 -143 -91q-43 0 -67 30.5zM525 231l30 172q-18 5 -44 5q-64 0 -104 -45.5t-40 -119.5q0 -40 14.5 -61t41.5 -21q46 0 102 70z" />
    <glyph glyph-name="A" unicode="A" 
d="M301 685h127l310 -685h-52l-289 643h-66l-277 -643h-51zM349 592h30l145 -334h-310zM460 298l-96 222l-86 -222h182zM194 214h349l91 -214h-52l-72 173h-281l-71 -173h-52z" />
    <glyph glyph-name="B" unicode="B" horiz-adv-x="636" 
d="M69 682h248q110 0 168 -49t58 -129q0 -50 -19.5 -85.5t-50.5 -54.5q125 -36 125 -174q0 -96 -73.5 -143t-191.5 -47h-264v682zM329 40q106 0 163.5 39.5t57.5 114.5q0 69 -39 109.5t-130 49.5q114 29 114 144q0 73 -50 109t-144 36h-184v-602h212zM166 603h123
q83 0 118.5 -27.5t35.5 -85.5q0 -59 -43 -90.5t-125 -31.5h-109v235zM278 406q61 0 89.5 22.5t28.5 59.5q0 42 -25.5 60.5t-82.5 18.5h-75v-161h65zM166 325h141q100 0 146 -31t46 -94q0 -62 -44.5 -92t-134.5 -30h-154v247zM308 115q75 0 109 21t34 67q0 43 -34 63.5
t-113 20.5h-91v-172h95z" />
    <glyph glyph-name="C" unicode="C" horiz-adv-x="707" 
d="M204 42.5q-84 51.5 -125.5 131t-41.5 164.5q0 98 50 179t136 127.5t187 46.5q118 0 242 -56v-45q-58 27 -120 43t-119 16q-88 0 -163.5 -39t-120 -110t-44.5 -162q0 -76 38 -146.5t112 -114.5t176 -44q65 0 129 15.5t119 47.5v-44q-114 -61 -251 -61q-120 0 -204 51.5z
M267.5 112q-62.5 33 -96.5 92t-34 134t34 135t97.5 95t147.5 35q58 0 120.5 -17t115.5 -47v-44q-113 66 -233 66q-75 0 -127.5 -30t-79.5 -81t-27 -112t26.5 -110.5t78.5 -78t127 -28.5q63 0 125.5 19t116.5 53v-44q-51 -32 -118 -51t-127 -19q-84 0 -146.5 33z" />
    <glyph glyph-name="D" unicode="D" horiz-adv-x="759" 
d="M69 682h279q108 0 193 -40.5t133 -116.5t48 -178q0 -103 -47 -181.5t-131.5 -122t-193.5 -43.5h-281v682zM330 42q107 0 184.5 36.5t118.5 105.5t41 163q0 87 -40.5 153t-118.5 103t-186 37h-212v-598h213zM166 596h162q144 0 219.5 -65.5t75.5 -187.5q0 -78 -35 -136.5
t-101.5 -90.5t-158.5 -32h-162v512zM332 125q117 0 180 57t63 161q0 100 -60 155.5t-183 55.5h-119v-429h119z" />
    <glyph glyph-name="E" unicode="E" horiz-adv-x="571" 
d="M69 682h426v-42h-378v-598h385v-42h-433v682zM166 596h329v-43h-282v-145h268v-42h-315v230zM166 322h315v-42h-268v-152h289v-42h-336v236z" />
    <glyph glyph-name="F" unicode="F" horiz-adv-x="539" 
d="M69 682h406v-42h-358v-640h-48v682zM166 596h309v-42h-262v-140h257v-41h-304v223zM166 328h304v-42h-257v-286h-47v328z" />
    <glyph glyph-name="G" unicode="G" horiz-adv-x="742" 
d="M205 41q-84 50 -126 129.5t-42 167.5q0 100 50 181t137 126.5t193 45.5q124 0 242 -53v-45q-56 26 -118.5 41t-121.5 15q-94 0 -170.5 -39t-120 -109.5t-43.5 -162.5q0 -81 38.5 -151t112.5 -112t175 -42q124 0 217 36v252h-203v42h248v-322q-104 -50 -265 -50
q-119 0 -203 50zM267.5 111q-62.5 32 -96.5 91t-34 136q0 76 34.5 136.5t99 94.5t151.5 34q58 0 120 -16t117 -44v-45q-56 30 -117 46.5t-120 16.5q-77 0 -130.5 -30t-80 -80.5t-26.5 -112.5q0 -97 59 -158t170 -61q62 0 119 17v101h-108v40h154v-172q-75 -26 -165 -26
q-84 0 -146.5 32z" />
    <glyph glyph-name="H" unicode="H" horiz-adv-x="766" 
d="M69 682h48v-682h-48v682zM164 682h48v-272h342v272h48v-314h-438v314zM649 682h48v-682h-48v682zM164 322h438v-322h-48v280h-342v-280h-48v322z" />
    <glyph glyph-name="I" unicode="I" horiz-adv-x="302" 
d="M79 682h48v-682h-48v682zM175 682h48v-682h-48v682z" />
    <glyph glyph-name="J" unicode="J" horiz-adv-x="329" 
d="M-31 -101q63 0 90.5 9t37 34.5t9.5 84.5v655h48v-657q0 -69 -14 -104t-50 -49.5t-107 -14.5zM-5 -188q78 2 122 19t65 61t21 127v663h47v-666q0 -81 -20.5 -133.5t-73 -82t-147.5 -30.5z" />
    <glyph glyph-name="K" unicode="K" horiz-adv-x="700" 
d="M69 682h48v-682h-48v682zM166 682h48v-308l268 308h56l-282 -328l324 -354h-60l-306 332v-332h-48v682zM312 358l293 324h56l-291 -323l337 -359h-61z" />
    <glyph glyph-name="L" unicode="L" horiz-adv-x="527" 
d="M69 682h48v-640h390v-42h-438v682zM166 682h47v-553h294v-42h-341v595z" />
    <glyph glyph-name="M" unicode="M" horiz-adv-x="834" 
d="M69 682h136l213 -268l212 268h135v-682h-48v640h-66l-233 -294l-234 294h-67v-640h-48v682zM166 582h6l243 -306h6l241 306h6v-582h-48v464l-192 -244h-20l-195 244v-464h-47v582z" />
    <glyph glyph-name="N" unicode="N" horiz-adv-x="814" 
d="M69 682h134l399 -467v467h48v-588l-471 546h-62v-640h-48v682zM164 586l470 -544h63v640h48v-682h-135l-399 468v-468h-47v586z" />
    <glyph glyph-name="O" unicode="O" horiz-adv-x="810" 
d="M210.5 38.5q-82.5 47.5 -128 127t-45.5 173.5q0 91 43.5 172t126.5 130.5t196 49.5q106 0 190.5 -46.5t132 -126.5t47.5 -176q0 -93 -45 -173.5t-130.5 -129t-199.5 -48.5q-105 0 -187.5 47.5zM573 75.5q74 42.5 113 113.5t39 152q0 85 -41 155.5t-114.5 111.5t-165.5 41
q-100 0 -172 -44t-109.5 -115t-37.5 -152q0 -82 39.5 -152t111 -111.5t163.5 -41.5q100 0 174 42.5zM268.5 108q-61.5 34 -98 94.5t-36.5 135.5t33 136.5t94.5 97.5t144.5 36q84 0 145.5 -40t93 -101.5t31.5 -124.5q0 -86 -37 -146.5t-99.5 -91t-138.5 -30.5
q-71 0 -132.5 34zM516.5 142.5q51.5 26.5 81.5 77.5t30 122q0 56 -26 107.5t-76.5 84t-119.5 32.5t-119.5 -29.5t-77.5 -81t-27 -115.5q0 -65 29.5 -116t80 -79.5t110.5 -28.5q63 0 114.5 26.5z" />
    <glyph glyph-name="P" unicode="P" horiz-adv-x="596" 
d="M69 682h247q116 0 179 -58.5t63 -159.5q0 -106 -66.5 -161.5t-190.5 -55.5h-88v-247h-47v289h130q108 0 161 43.5t53 132.5q0 84 -52.5 129.5t-152.5 45.5h-188v-640h-48v682zM166 596h126q85 0 126.5 -32t41.5 -99q0 -69 -40.5 -100.5t-127.5 -31.5h-126v263zM292 374
q69 0 95 23t26 69q0 43 -27.5 65.5t-93.5 22.5h-79v-180h79z" />
    <glyph glyph-name="Q" unicode="Q" horiz-adv-x="829" 
d="M483 -109.5q-106 45.5 -193 114.5q-76 22 -133.5 71.5t-88.5 118t-31 144.5q0 91 43.5 172t126.5 130.5t196 49.5q106 0 190.5 -46.5t132 -126.5t47.5 -176q0 -74 -29.5 -140.5t-85.5 -115.5t-134 -71q105 -57 245 -71l-34 -36q-90 13 -167.5 41.5t-147.5 84.5
q95 5 164 48.5t105 111.5t36 147q0 85 -41 155.5t-114.5 111.5t-165.5 41q-100 0 -172 -44t-109.5 -115t-37.5 -152q0 -70 29.5 -131t82 -104.5t120.5 -61.5q148 -130 389 -174l-31 -34q-86 12 -192 57.5zM268.5 108q-61.5 34 -98 94.5t-36.5 135.5t33 136.5t94.5 97.5
t144.5 36q84 0 145.5 -40t93 -101.5t31.5 -124.5q0 -86 -37 -146.5t-99.5 -91t-138.5 -30.5q-71 0 -132.5 34zM516.5 142.5q51.5 26.5 81.5 77.5t30 122q0 56 -26 107.5t-76.5 84t-119.5 32.5t-119.5 -29.5t-77.5 -81t-27 -115.5q0 -65 29.5 -116t80 -79.5t110.5 -28.5
q63 0 114.5 26.5z" />
    <glyph glyph-name="R" unicode="R" horiz-adv-x="662" 
d="M69 682h251q110 0 165.5 -55.5t55.5 -141.5q0 -118 -106 -165q26 -13 44 -32.5t43 -61.5l137 -226h-55l-124 208q-32 51 -59.5 75.5t-65.5 38.5v4q138 26 138 155q0 74 -47 116.5t-135 42.5h-194v-640h-48v682zM166 595h140q63 0 100.5 -28t37.5 -85q0 -68 -40.5 -97.5
t-125.5 -29.5h-112v240zM282 397q54 0 84 16t30 64q0 40 -23.5 58t-70.5 18h-89v-156h69zM166 311h89q62 0 103.5 -31.5t85.5 -105.5l104 -174h-56l-87 150q-29 49 -52 74.5t-46 35t-55 9.5h-39v-269h-47v311z" />
    <glyph glyph-name="S" unicode="S" horiz-adv-x="513" 
d="M51 153v52q40 -45 89 -70t99 -25q37 0 59 18.5t22 48.5q0 22 -8.5 38t-36.5 38t-88 56q-75 42 -106.5 89.5t-31.5 112.5q0 51 27 92t76.5 64.5t112.5 23.5q91 0 173 -47v-49q-38 27 -84 41t-88 14q-76 0 -122.5 -38t-46.5 -100q0 -58 28 -95t91 -74q62 -37 93.5 -61.5
t44 -48t12.5 -56.5q0 -48 -35 -78t-90 -30q-108 0 -190 84zM51 49v48q41 -32 87.5 -48t104.5 -16q79 0 126.5 40t47.5 105q0 43 -14.5 73t-47.5 57t-98 66q-47 27 -71 49t-32.5 42.5t-8.5 47.5q0 45 33 72t91 27q42 0 86 -14.5t83 -45.5v-52q-77 71 -168 71q-38 0 -58 -15.5
t-20 -42.5q0 -18 5.5 -31.5t26 -31.5t63.5 -42q71 -39 109.5 -74t53 -71.5t14.5 -85.5q0 -53 -27 -95.5t-76.5 -66.5t-115.5 -24q-111 0 -194 58z" />
    <glyph glyph-name="T" unicode="T" horiz-adv-x="640" 
d="M20 682h600v-42h-600v42zM246 554h-226v42h274v-596h-48v554zM343 596h277v-42h-230v-554h-47v596z" />
    <glyph glyph-name="U" unicode="U" horiz-adv-x="766" 
d="M149.5 68q-80.5 77 -80.5 226v388h48v-383q0 -128 66.5 -197t200.5 -69q137 0 201.5 69.5t64.5 196.5v383h48v-388q0 -145 -78.5 -224t-234.5 -79q-155 0 -235.5 77zM219.5 130q-53.5 52 -53.5 172v380h48v-378q0 -100 41 -142t130 -42q88 0 128 42t40 142v378h48v-380
q0 -116 -53.5 -170t-162.5 -54q-112 0 -165.5 52z" />
    <glyph glyph-name="V" unicode="V" horiz-adv-x="665" 
d="M3 682h51l281 -635l276 635h51l-301 -685h-51zM102 682h52l181 -428l176 428h52l-225 -525h-4z" />
    <glyph glyph-name="W" unicode="W" horiz-adv-x="1026" 
d="M3 682h49l242 -623l219 544l220 -543l240 622h50l-267 -685h-46l-197 484l-197 -484h-47zM101 682h49l145 -372l151 372h49l-201 -501zM532 682h49l151 -369l142 369h49l-190 -498z" />
    <glyph glyph-name="X" unicode="X" horiz-adv-x="767" 
d="M302 353l-278 329h55l279 -329l-300 -353h-55zM134 682h55l196 -237l196 237h55l-251 -298zM412 353l279 329h54l-278 -329l297 -353h-55zM385 319l271 -319h-55l-216 259l-218 -259h-54z" />
    <glyph glyph-name="Y" unicode="Y" horiz-adv-x="664" 
d="M260 339l-257 343h52l253 -334v-348h-48v339zM115 682h52l164 -224l167 224h52l-219 -293zM356 348l252 334h53l-257 -343v-339h-48v348z" />
    <glyph glyph-name="Z" unicode="Z" horiz-adv-x="695" 
d="M593 640h-550v42h632l-405 -553h401v-42h-484zM426 553h-383v42h464l-406 -553h570v-42h-651z" />
    <glyph glyph-name="bracketleft" unicode="[" horiz-adv-x="356" 
d="M80 794h271v-41h-226v-825h226v-41h-271v907zM171 716h180v-40h-135v-670h135v-41h-180v751z" />
    <glyph glyph-name="backslash" unicode="\" horiz-adv-x="283" 
d="M-8 688h35l188 -740h-35zM69 688h35l188 -740h-35z" />
    <glyph glyph-name="bracketright" unicode="]" horiz-adv-x="356" 
d="M5 -113v41h226v825h-226v41h271v-907h-271zM5 -35v41h135v670h-135v40h181v-751h-181z" />
    <glyph glyph-name="asciicircum" unicode="^" horiz-adv-x="587" 
d="M248 682h90l225 -387h-49l-201 346h-41l-199 -346h-50zM293 583l162 -288h-48l-114 204l-114 -204h-47z" />
    <glyph glyph-name="underscore" unicode="_" horiz-adv-x="501" 
d="M-6 -56h512v-39h-512v39zM-6 -143h512v-39h-512v39z" />
    <glyph glyph-name="grave" unicode="`" horiz-adv-x="229" 
d="M-63 684h58l113 -154h-46zM49 684h55l74 -154h-45z" />
    <glyph glyph-name="a" unicode="a" 
d="M301 685h127l310 -685h-52l-289 643h-66l-277 -643h-51zM349 592h30l145 -334h-310zM460 298l-96 222l-86 -222h182zM194 214h349l91 -214h-52l-72 173h-281l-71 -173h-52z" />
    <glyph glyph-name="b" unicode="b" horiz-adv-x="636" 
d="M69 682h248q110 0 168 -49t58 -129q0 -50 -19.5 -85.5t-50.5 -54.5q125 -36 125 -174q0 -96 -73.5 -143t-191.5 -47h-264v682zM329 40q106 0 163.5 39.5t57.5 114.5q0 69 -39 109.5t-130 49.5q114 29 114 144q0 73 -50 109t-144 36h-184v-602h212zM166 603h123
q83 0 118.5 -27.5t35.5 -85.5q0 -59 -43 -90.5t-125 -31.5h-109v235zM278 406q61 0 89.5 22.5t28.5 59.5q0 42 -25.5 60.5t-82.5 18.5h-75v-161h65zM166 325h141q100 0 146 -31t46 -94q0 -62 -44.5 -92t-134.5 -30h-154v247zM308 115q75 0 109 21t34 67q0 43 -34 63.5
t-113 20.5h-91v-172h95z" />
    <glyph glyph-name="c" unicode="c" horiz-adv-x="707" 
d="M204 42.5q-84 51.5 -125.5 131t-41.5 164.5q0 98 50 179t136 127.5t187 46.5q118 0 242 -56v-45q-58 27 -120 43t-119 16q-88 0 -163.5 -39t-120 -110t-44.5 -162q0 -76 38 -146.5t112 -114.5t176 -44q65 0 129 15.5t119 47.5v-44q-114 -61 -251 -61q-120 0 -204 51.5z
M267.5 112q-62.5 33 -96.5 92t-34 134t34 135t97.5 95t147.5 35q58 0 120.5 -17t115.5 -47v-44q-113 66 -233 66q-75 0 -127.5 -30t-79.5 -81t-27 -112t26.5 -110.5t78.5 -78t127 -28.5q63 0 125.5 19t116.5 53v-44q-51 -32 -118 -51t-127 -19q-84 0 -146.5 33z" />
    <glyph glyph-name="d" unicode="d" horiz-adv-x="759" 
d="M69 682h279q108 0 193 -40.5t133 -116.5t48 -178q0 -103 -47 -181.5t-131.5 -122t-193.5 -43.5h-281v682zM330 42q107 0 184.5 36.5t118.5 105.5t41 163q0 87 -40.5 153t-118.5 103t-186 37h-212v-598h213zM166 596h162q144 0 219.5 -65.5t75.5 -187.5q0 -78 -35 -136.5
t-101.5 -90.5t-158.5 -32h-162v512zM332 125q117 0 180 57t63 161q0 100 -60 155.5t-183 55.5h-119v-429h119z" />
    <glyph glyph-name="e" unicode="e" horiz-adv-x="571" 
d="M69 682h426v-42h-378v-598h385v-42h-433v682zM166 596h329v-43h-282v-145h268v-42h-315v230zM166 322h315v-42h-268v-152h289v-42h-336v236z" />
    <glyph glyph-name="f" unicode="f" horiz-adv-x="539" 
d="M69 682h406v-42h-358v-640h-48v682zM166 596h309v-42h-262v-140h257v-41h-304v223zM166 328h304v-42h-257v-286h-47v328z" />
    <glyph glyph-name="g" unicode="g" horiz-adv-x="742" 
d="M205 41q-84 50 -126 129.5t-42 167.5q0 100 50 181t137 126.5t193 45.5q124 0 242 -53v-45q-56 26 -118.5 41t-121.5 15q-94 0 -170.5 -39t-120 -109.5t-43.5 -162.5q0 -81 38.5 -151t112.5 -112t175 -42q124 0 217 36v252h-203v42h248v-322q-104 -50 -265 -50
q-119 0 -203 50zM267.5 111q-62.5 32 -96.5 91t-34 136q0 76 34.5 136.5t99 94.5t151.5 34q58 0 120 -16t117 -44v-45q-56 30 -117 46.5t-120 16.5q-77 0 -130.5 -30t-80 -80.5t-26.5 -112.5q0 -97 59 -158t170 -61q62 0 119 17v101h-108v40h154v-172q-75 -26 -165 -26
q-84 0 -146.5 32z" />
    <glyph glyph-name="h" unicode="h" horiz-adv-x="766" 
d="M69 682h48v-682h-48v682zM164 682h48v-272h342v272h48v-314h-438v314zM649 682h48v-682h-48v682zM164 322h438v-322h-48v280h-342v-280h-48v322z" />
    <glyph glyph-name="i" unicode="i" horiz-adv-x="302" 
d="M79 682h48v-682h-48v682zM175 682h48v-682h-48v682z" />
    <glyph glyph-name="j" unicode="j" horiz-adv-x="329" 
d="M-31 -101q63 0 90.5 9t37 34.5t9.5 84.5v655h48v-657q0 -69 -14 -104t-50 -49.5t-107 -14.5zM-5 -188q78 2 122 19t65 61t21 127v663h47v-666q0 -81 -20.5 -133.5t-73 -82t-147.5 -30.5z" />
    <glyph glyph-name="k" unicode="k" horiz-adv-x="700" 
d="M69 682h48v-682h-48v682zM166 682h48v-308l268 308h56l-282 -328l324 -354h-60l-306 332v-332h-48v682zM312 358l293 324h56l-291 -323l337 -359h-61z" />
    <glyph glyph-name="l" unicode="l" horiz-adv-x="527" 
d="M69 682h48v-640h390v-42h-438v682zM166 682h47v-553h294v-42h-341v595z" />
    <glyph glyph-name="m" unicode="m" horiz-adv-x="834" 
d="M69 682h136l213 -268l212 268h135v-682h-48v640h-66l-233 -294l-234 294h-67v-640h-48v682zM166 582h6l243 -306h6l241 306h6v-582h-48v464l-192 -244h-20l-195 244v-464h-47v582z" />
    <glyph glyph-name="n" unicode="n" horiz-adv-x="814" 
d="M69 682h134l399 -467v467h48v-588l-471 546h-62v-640h-48v682zM164 586l470 -544h63v640h48v-682h-135l-399 468v-468h-47v586z" />
    <glyph glyph-name="o" unicode="o" horiz-adv-x="810" 
d="M210.5 38.5q-82.5 47.5 -128 127t-45.5 173.5q0 91 43.5 172t126.5 130.5t196 49.5q106 0 190.5 -46.5t132 -126.5t47.5 -176q0 -93 -45 -173.5t-130.5 -129t-199.5 -48.5q-105 0 -187.5 47.5zM573 75.5q74 42.5 113 113.5t39 152q0 85 -41 155.5t-114.5 111.5t-165.5 41
q-100 0 -172 -44t-109.5 -115t-37.5 -152q0 -82 39.5 -152t111 -111.5t163.5 -41.5q100 0 174 42.5zM268.5 108q-61.5 34 -98 94.5t-36.5 135.5t33 136.5t94.5 97.5t144.5 36q84 0 145.5 -40t93 -101.5t31.5 -124.5q0 -86 -37 -146.5t-99.5 -91t-138.5 -30.5
q-71 0 -132.5 34zM516.5 142.5q51.5 26.5 81.5 77.5t30 122q0 56 -26 107.5t-76.5 84t-119.5 32.5t-119.5 -29.5t-77.5 -81t-27 -115.5q0 -65 29.5 -116t80 -79.5t110.5 -28.5q63 0 114.5 26.5z" />
    <glyph glyph-name="p" unicode="p" horiz-adv-x="596" 
d="M69 682h247q116 0 179 -58.5t63 -159.5q0 -106 -66.5 -161.5t-190.5 -55.5h-88v-247h-47v289h130q108 0 161 43.5t53 132.5q0 84 -52.5 129.5t-152.5 45.5h-188v-640h-48v682zM166 596h126q85 0 126.5 -32t41.5 -99q0 -69 -40.5 -100.5t-127.5 -31.5h-126v263zM292 374
q69 0 95 23t26 69q0 43 -27.5 65.5t-93.5 22.5h-79v-180h79z" />
    <glyph glyph-name="q" unicode="q" horiz-adv-x="829" 
d="M483 -109.5q-106 45.5 -193 114.5q-76 22 -133.5 71.5t-88.5 118t-31 144.5q0 91 43.5 172t126.5 130.5t196 49.5q106 0 190.5 -46.5t132 -126.5t47.5 -176q0 -74 -29.5 -140.5t-85.5 -115.5t-134 -71q105 -57 245 -71l-34 -36q-90 13 -167.5 41.5t-147.5 84.5
q95 5 164 48.5t105 111.5t36 147q0 85 -41 155.5t-114.5 111.5t-165.5 41q-100 0 -172 -44t-109.5 -115t-37.5 -152q0 -70 29.5 -131t82 -104.5t120.5 -61.5q148 -130 389 -174l-31 -34q-86 12 -192 57.5zM268.5 108q-61.5 34 -98 94.5t-36.5 135.5t33 136.5t94.5 97.5
t144.5 36q84 0 145.5 -40t93 -101.5t31.5 -124.5q0 -86 -37 -146.5t-99.5 -91t-138.5 -30.5q-71 0 -132.5 34zM516.5 142.5q51.5 26.5 81.5 77.5t30 122q0 56 -26 107.5t-76.5 84t-119.5 32.5t-119.5 -29.5t-77.5 -81t-27 -115.5q0 -65 29.5 -116t80 -79.5t110.5 -28.5
q63 0 114.5 26.5z" />
    <glyph glyph-name="r" unicode="r" horiz-adv-x="662" 
d="M69 682h251q110 0 165.5 -55.5t55.5 -141.5q0 -118 -106 -165q26 -13 44 -32.5t43 -61.5l137 -226h-55l-124 208q-32 51 -59.5 75.5t-65.5 38.5v4q138 26 138 155q0 74 -47 116.5t-135 42.5h-194v-640h-48v682zM166 595h140q63 0 100.5 -28t37.5 -85q0 -68 -40.5 -97.5
t-125.5 -29.5h-112v240zM282 397q54 0 84 16t30 64q0 40 -23.5 58t-70.5 18h-89v-156h69zM166 311h89q62 0 103.5 -31.5t85.5 -105.5l104 -174h-56l-87 150q-29 49 -52 74.5t-46 35t-55 9.5h-39v-269h-47v311z" />
    <glyph glyph-name="s" unicode="s" horiz-adv-x="513" 
d="M51 153v52q40 -45 89 -70t99 -25q37 0 59 18.5t22 48.5q0 22 -8.5 38t-36.5 38t-88 56q-75 42 -106.5 89.5t-31.5 112.5q0 51 27 92t76.5 64.5t112.5 23.5q91 0 173 -47v-49q-38 27 -84 41t-88 14q-76 0 -122.5 -38t-46.5 -100q0 -58 28 -95t91 -74q62 -37 93.5 -61.5
t44 -48t12.5 -56.5q0 -48 -35 -78t-90 -30q-108 0 -190 84zM51 49v48q41 -32 87.5 -48t104.5 -16q79 0 126.5 40t47.5 105q0 43 -14.5 73t-47.5 57t-98 66q-47 27 -71 49t-32.5 42.5t-8.5 47.5q0 45 33 72t91 27q42 0 86 -14.5t83 -45.5v-52q-77 71 -168 71q-38 0 -58 -15.5
t-20 -42.5q0 -18 5.5 -31.5t26 -31.5t63.5 -42q71 -39 109.5 -74t53 -71.5t14.5 -85.5q0 -53 -27 -95.5t-76.5 -66.5t-115.5 -24q-111 0 -194 58z" />
    <glyph glyph-name="t" unicode="t" horiz-adv-x="640" 
d="M20 682h600v-42h-600v42zM246 554h-226v42h274v-596h-48v554zM343 596h277v-42h-230v-554h-47v596z" />
    <glyph glyph-name="u" unicode="u" horiz-adv-x="766" 
d="M149.5 68q-80.5 77 -80.5 226v388h48v-383q0 -128 66.5 -197t200.5 -69q137 0 201.5 69.5t64.5 196.5v383h48v-388q0 -145 -78.5 -224t-234.5 -79q-155 0 -235.5 77zM219.5 130q-53.5 52 -53.5 172v380h48v-378q0 -100 41 -142t130 -42q88 0 128 42t40 142v378h48v-380
q0 -116 -53.5 -170t-162.5 -54q-112 0 -165.5 52z" />
    <glyph glyph-name="v" unicode="v" horiz-adv-x="665" 
d="M3 682h51l281 -635l276 635h51l-301 -685h-51zM102 682h52l181 -428l176 428h52l-225 -525h-4z" />
    <glyph glyph-name="w" unicode="w" horiz-adv-x="1026" 
d="M3 682h49l242 -623l219 544l220 -543l240 622h50l-267 -685h-46l-197 484l-197 -484h-47zM101 682h49l145 -372l151 372h49l-201 -501zM532 682h49l151 -369l142 369h49l-190 -498z" />
    <glyph glyph-name="x" unicode="x" horiz-adv-x="767" 
d="M302 353l-278 329h55l279 -329l-300 -353h-55zM134 682h55l196 -237l196 237h55l-251 -298zM412 353l279 329h54l-278 -329l297 -353h-55zM385 319l271 -319h-55l-216 259l-218 -259h-54z" />
    <glyph glyph-name="y" unicode="y" horiz-adv-x="664" 
d="M260 339l-257 343h52l253 -334v-348h-48v339zM115 682h52l164 -224l167 224h52l-219 -293zM356 348l252 334h53l-257 -343v-339h-48v348z" />
    <glyph glyph-name="z" unicode="z" horiz-adv-x="695" 
d="M593 640h-550v42h632l-405 -553h401v-42h-484zM426 553h-383v42h464l-406 -553h570v-42h-651z" />
    <glyph glyph-name="braceleft" unicode="{" horiz-adv-x="350" 
d="M13 400q39 2 59 12t28 34.5t9 71.5v83q0 81 18 123.5t56 59t106 16.5h51v-40h-51q-57 0 -86 -14t-40.5 -48.5t-11.5 -102.5l-1 -86q0 -77 -30 -111t-107 -34v36zM235.5 -28q-23.5 12 -32 38t-8.5 76v88q0 56 -9.5 89t-33.5 51t-70 26q45 9 69 27t34 50.5t10 88.5v92
q0 49 8 74.5t31.5 36.5t71.5 11h34v-38h-28q-34 0 -49 -7t-20.5 -26t-5.5 -61v-80q0 -77 -13.5 -113t-55.5 -55q30 -12 44.5 -32t19.5 -50.5t5 -83.5v-81q0 -41 6 -60.5t22 -26.5t49 -8h26v-38h-34q-47 0 -70.5 12zM179.5 -102q-38.5 18 -54.5 61t-16 121v85q0 46 -9 70
t-29 34t-58 11v36q77 0 107.5 -33.5t30.5 -111.5v-83q0 -67 11.5 -102.5t41 -50.5t84.5 -15h52v-40h-52q-70 0 -108.5 18z" />
    <glyph glyph-name="bar" unicode="|" horiz-adv-x="303" 
d="M83 736h44v-1000h-44v1000zM176 736h44v-1000h-44v1000z" />
    <glyph glyph-name="braceright" unicode="}" horiz-adv-x="350" 
d="M230 398q-30 34 -30 111v86q-1 68 -12 102.5t-40 48.5t-86 14h-51v40h51q67 0 105 -16.5t56 -59t18 -123.5l1 -83q0 -47 8 -71.5t28 -34.5t59 -12v-36q-77 0 -107 34zM11 -40v38h26q33 1 48.5 8t21.5 26.5t6 60.5v81q0 78 13.5 113t55.5 53q-42 19 -55.5 55t-13.5 113v80
q0 42 -5.5 61t-20.5 26t-49 7h-27v38h34q48 0 71 -11t31 -36.5t8 -74.5v-92q0 -56 10 -88.5t34 -50.5t70 -27q-46 -8 -70.5 -26t-34 -51t-9.5 -89v-88q0 -50 -8.5 -76t-32 -38t-69.5 -12h-34zM11 -120v40h52q55 0 84 15t41 50.5t12 102.5v83q0 78 30 111.5t107 33.5v-36
q-37 -1 -57.5 -11t-29.5 -34.5t-9 -69.5v-85q0 -78 -16 -121t-54 -61t-108 -18h-52z" />
    <glyph glyph-name="asciitilde" unicode="~" horiz-adv-x="585" 
d="M50 393q35 33 66.5 47t71.5 14q27 0 54 -10.5t63 -29.5q36 -18 58 -27t44 -9q30 0 59 17.5t69 60.5v-47q-39 -41 -68 -57.5t-60 -16.5q-22 0 -44 9t-58 27q-36 19 -63 29.5t-54 10.5q-38 0 -70 -15.5t-68 -49.5v47zM50 296q68 74 132 74q20 0 41.5 -8.5t53.5 -25.5
q39 -20 67 -30.5t57 -10.5q35 0 66.5 15.5t67.5 48.5v-47q-35 -32 -67 -46.5t-67 -14.5q-29 0 -56 10.5t-68 31.5q-36 18 -56 26t-39 8q-32 0 -64 -19.5t-68 -58.5v47z" />
    <glyph glyph-name="uni00A0" unicode="&#xa0;" horiz-adv-x="285" 
 />
    <glyph glyph-name="exclamdown" unicode="&#xa1;" horiz-adv-x="314" 
d="M225 671q29 -28 29 -68q0 -42 -28.5 -70t-68.5 -28q-39 0 -68 28t-29 69q0 40 28.5 68.5t68.5 28.5q39 0 68 -28zM114 645.5q-18 -18.5 -18 -43.5q0 -26 18 -43.5t43 -17.5t43.5 17.5t18.5 44.5q0 25 -18.5 43t-43.5 18t-43 -18.5zM173 618.5q7 -6.5 7 -15.5
q0 -10 -7 -17t-16 -7t-16 7t-7 16q0 10 7 16.5t16 6.5t16 -6.5zM176.5 466.5q9.5 -10.5 18.5 -36.5q19 -55 33 -144.5t14 -148.5q0 -73 -22 -111t-64 -38q-84 0 -84 145q0 71 13.5 150.5t32.5 143.5q14 50 37 50q12 0 21.5 -10.5zM145 401q-14 -62 -23 -133.5t-9 -134.5
q0 -56 10.5 -81.5t32.5 -25.5q45 0 45 111q-1 53 -11 133t-23 132q-1 3 -4.5 16.5t-6.5 13.5q-4 0 -11 -31z" />
    <glyph glyph-name="cent" unicode="&#xa2;" horiz-adv-x="518" 
d="M202 111q-74 27 -112.5 89t-38.5 134q0 73 29.5 130t85 89t129.5 32q30 0 54 -4l39 123h44l-42 -131q30 -10 47 -17v-42q-36 18 -68.5 26t-70.5 8q-94 0 -149.5 -58.5t-55.5 -155.5q0 -91 57.5 -146.5t155.5 -55.5q35 0 72 8t67 22v-41q-37 -15 -70.5 -21t-71.5 -6
q-31 0 -61 8l-40 -134h-44zM186 214q-50 47 -50 126q0 50 21.5 89.5t59.5 61.5t87 22q67 0 133 -35v-41q-63 38 -127 38q-61 0 -96.5 -39.5t-35.5 -95.5q0 -54 36 -94.5t110 -40.5q30 0 59 8t62 23v-41q-60 -28 -126 -28q-83 0 -133 47z" />
    <glyph glyph-name="sterling" unicode="&#xa3;" horiz-adv-x="559" 
d="M43 388h105q39 129 103 216t167 87q10 0 40 -3l17 -40q-20 5 -52 5q-79 0 -137 -71.5t-102 -226.5h-141v33zM314.5 550.5q50.5 61.5 125.5 61.5q31 0 56 -6l20 -45q-10 6 -31 9.5t-40 3.5q-50 0 -89 -40.5t-69 -145.5h80v-33h-138q35 134 85.5 195.5zM120 291h-77v33h133
l-80 -287h406v-37h-462zM219 324h148v-33h-110l-48 -175h293v-36h-351z" />
    <glyph glyph-name="currency" unicode="&#xa4;" horiz-adv-x="586" 
d="M87 578l23 23l69 -70q23 15 53.5 23.5t60.5 8.5t60 -8.5t54 -23.5l69 70l24 -23l-89 -90q-24 20 -55.5 31t-62.5 11q-32 0 -62.5 -11t-55.5 -31zM31 158l70 68q-15 25 -23.5 55t-8.5 58q0 29 8.5 59t23.5 54l-70 69l23 23l89 -88q-41 -52 -41 -117q0 -31 10.5 -61.5
t30.5 -55.5l-88 -86zM443 222q41 51 41 117t-41 117l89 88l23 -23l-70 -69q32 -52 32 -113t-32 -113l70 -68l-23 -23zM222 217q-32 19 -51 51.5t-19 70.5t19 70.5t51 51.5t70 19q39 0 71.5 -18.5t51 -51t18.5 -71.5q0 -38 -19 -70.5t-51.5 -51.5t-70.5 -19t-70 19zM369 263
q32 32 32 76q0 46 -31.5 77.5t-77.5 31.5q-44 0 -76 -32.5t-32 -76.5q0 -45 32 -76.5t76 -31.5q45 0 77 32zM87 102l88 88q23 -20 54.5 -31t63.5 -11q30 0 61 11t57 31l88 -89l-23 -23l-69 70q-25 -15 -55 -23.5t-59 -8.5q-61 0 -114 32l-69 -69z" />
    <glyph glyph-name="yen" unicode="&#xa5;" horiz-adv-x="556" 
d="M206 196h-170v40h170v88h-170v41h155l-188 317h52l199 -334v-348h-48v196zM113 682h53l111 -193l114 193h52l-166 -283zM302 348l198 334h53l-189 -317h159v-41h-173v-88h173v-40h-173v-196h-48v348z" />
    <glyph glyph-name="brokenbar" unicode="&#xa6;" horiz-adv-x="303" 
d="M83 636h44v-298h-44v298zM176 636h44v-298h-44v298zM83 138h44v-302h-44v302zM176 138h44v-302h-44v302z" />
    <glyph glyph-name="section" unicode="&#xa7;" horiz-adv-x="496" 
d="M155.5 -146.5q-44.5 16.5 -78.5 40.5v41q34 -26 76 -44t78 -18q35 0 52.5 12t17.5 34q0 28 -19.5 53.5t-73.5 69.5q-88 58 -132 114.5t-44 134.5q0 39 16.5 71.5t57.5 69.5q-34 44 -34 111q0 39 21 72.5t62.5 54t101.5 20.5q92 0 153 -41v-41q-76 46 -153 46
q-67 0 -105.5 -30.5t-38.5 -83.5q0 -69 40 -109q-45 -37 -63 -69t-18 -70q0 -48 19 -84.5t51.5 -66t89.5 -69.5q63 -50 86.5 -81.5t23.5 -71.5t-29 -61t-82 -21q-31 0 -75.5 16.5zM146.5 -215q-40.5 14 -69.5 35v42q30 -25 75 -40t84 -15q71 0 111.5 29.5t40.5 85.5
q0 38 -10.5 62.5t-38.5 55.5q47 38 66 72.5t19 78.5q0 43 -20 77.5t-53 63t-87 64.5q-61 42 -84.5 75.5t-23.5 70.5q0 40 27.5 61t76.5 21q32 0 72 -12.5t78 -38.5v-41q-79 56 -150 56q-63 0 -63 -48q0 -26 19 -51t72 -62q83 -53 130 -108t47 -126q0 -44 -17 -79.5
t-57 -71.5q22 -29 30.5 -56t8.5 -63q0 -77 -55.5 -114.5t-138.5 -37.5q-49 0 -89.5 14zM197 154q-48 42 -66 74.5t-18 71.5q0 33 15 60t46 53q69 -52 99 -72q66 -54 88 -87.5t22 -74.5q0 -32 -16.5 -62.5t-47.5 -55.5zM344 181q0 25 -12 46t-45.5 51.5t-105.5 86.5
q-16 -16 -22 -32t-6 -36q0 -28 12 -50t44 -52t103 -86q32 34 32 72z" />
    <glyph glyph-name="dieresis" unicode="&#xa8;" horiz-adv-x="333" 
d="M9.5 561q-26.5 26 -26.5 61q0 36 26 61.5t62 25.5t61.5 -25.5t25.5 -61.5q0 -35 -25.5 -61t-61.5 -26q-35 0 -61.5 26zM202 561q-26 26 -26 61q0 36 26 61.5t62 25.5q35 0 60.5 -25.5t25.5 -61.5q0 -35 -25.5 -61t-60.5 -26q-36 0 -62 26zM110 582.5q17 16.5 17 39.5
q0 22 -17 38.5t-40 16.5q-22 0 -38.5 -16t-16.5 -39t16.5 -39.5t38.5 -16.5q23 0 40 16.5zM302.5 582.5q16.5 16.5 16.5 39.5t-16 39t-39 16t-40 -16.5t-17 -38.5t17 -39t40 -17q22 0 38.5 16.5zM53 604q-8 8 -8 18t8 17.5t18 7.5t17 -7.5t7 -17.5q0 -11 -7 -18.5t-17 -7.5
t-18 8zM245.5 603.5q-7.5 7.5 -7.5 18.5q0 10 7.5 17.5t18.5 7.5q9 0 16.5 -7.5t7.5 -17.5q0 -11 -7 -18.5t-17 -7.5q-11 0 -18.5 7.5z" />
    <glyph glyph-name="copyright" unicode="&#xa9;" horiz-adv-x="787" 
d="M217.5 39q-82.5 47 -131.5 128.5t-49 179.5q0 95 47.5 177t129.5 130.5t180 48.5q96 0 178 -47.5t130 -129.5t48 -179q0 -95 -47 -176.5t-128.5 -130t-179.5 -48.5q-95 0 -177.5 47zM558.5 68q74.5 44 117.5 118.5t43 161.5q0 88 -44 162.5t-118 118t-162 43.5
q-89 0 -164 -44t-118.5 -118.5t-43.5 -162.5t44 -162.5t119 -117.5t163 -43q89 0 163.5 44zM279 150.5q-55 33.5 -81.5 86.5t-26.5 112q0 71 28.5 126t81.5 86t125 31q69 0 138 -29v-39q-35 17 -67 25t-68 8q-91 0 -145 -57t-54 -151q0 -89 56 -142.5t151 -53.5q33 0 69 7.5
t66 20.5v-38q-68 -26 -138 -26q-80 0 -135 33.5zM300.5 233q-48.5 46 -48.5 122q0 74 45.5 121t117.5 47q64 0 129 -34v-39q-34 19 -63 28t-61 9q-59 0 -94 -39t-35 -93q0 -53 35.5 -93t107.5 -40q51 0 118 31v-39q-25 -12 -57 -19.5t-66 -7.5q-80 0 -128.5 46z" />
    <glyph glyph-name="ordfeminine" unicode="&#xaa;" horiz-adv-x="436" 
d="M345.5 335.5q-8.5 10.5 -8.5 30.5v179q0 114 -134 114q-41 0 -85 -15t-79 -43v37q33 24 76 38.5t91 14.5q78 0 122.5 -35.5t44.5 -105.5v-174q0 -13 3 -17.5t11 -4.5q5 0 16.5 4.5t23.5 13.5l-3 -29q-11 -9 -25.5 -13.5t-21.5 -4.5q-23 0 -31.5 10.5zM61.5 288
q-31.5 31 -31.5 79q0 46 29.5 78t76 52.5t119.5 42.5v4q0 22 -15 32t-48 10q-36 0 -75.5 -16t-77.5 -46v37q78 56 157 56q48 0 71.5 -17.5t23.5 -55.5v-22q-118 -34 -171.5 -68t-53.5 -87q0 -36 23 -58.5t64 -22.5q33 0 70 16t68 45q4 -29 16.5 -43.5t38.5 -14.5q15 0 36 7
t39 20l-4 -33q-40 -26 -76 -26q-25 0 -40.5 9t-26.5 29q-26 -18 -59 -28t-64 -10q-58 0 -89.5 31zM125.5 331.5q-14.5 13.5 -14.5 37.5q1 36 39 63.5t141 56.5v-112q-21 -22 -57 -40.5t-64 -18.5q-30 0 -44.5 13.5zM213.5 358q24.5 12 41.5 27v64q-58 -19 -82.5 -37
t-24.5 -42q0 -13 6 -18.5t20 -5.5q15 0 39.5 12z" />
    <glyph glyph-name="guillemotleft" unicode="&#xab;" horiz-adv-x="586" 
d="M30 330l148 236h45l-149 -236l149 -236h-45zM123 330l147 236h45l-148 -236l148 -236h-45zM270 330l148 236h45l-149 -236l149 -236h-45zM363 330l148 236h45l-149 -236l149 -236h-45z" />
    <glyph glyph-name="logicalnot" unicode="&#xac;" horiz-adv-x="579" 
d="M470 464h-417v44h462v-304h-45v260zM377 373h-324v43h369v-212h-45v169z" />
    <glyph glyph-name="uni00AD" unicode="&#xad;" horiz-adv-x="359" 
d="M37 404h286v-43h-286v43zM37 317h286v-42h-286v42z" />
    <glyph glyph-name="registered" unicode="&#xae;" horiz-adv-x="787" 
d="M217.5 39q-82.5 47 -131.5 128.5t-49 179.5q0 95 47.5 177t129.5 130.5t180 48.5q96 0 178 -47.5t130 -129.5t48 -179q0 -95 -47 -176.5t-128.5 -130t-179.5 -48.5q-95 0 -177.5 47zM558.5 68q74.5 44 117.5 118.5t43 161.5q0 88 -44 162.5t-118 118t-162 43.5
q-89 0 -164 -44t-118.5 -118.5t-43.5 -162.5t44 -162.5t119 -117.5t163 -43q89 0 163.5 44zM218 559h201q70 0 109.5 -32.5t39.5 -88.5q0 -41 -23 -70.5t-65 -42.5q13 -7 24.5 -21t27.5 -40l77 -124h-47l-71 122q-21 35 -35.5 49t-33.5 15v6q47 6 77 32.5t30 70.5
q0 45 -31 69t-89 24h-153v-388h-38v419zM300 502h83q47 0 70.5 -19.5t23.5 -54.5q0 -36 -26 -57.5t-73 -21.5h-78v153zM373 378q66 0 66 49q0 24 -15.5 35t-47.5 11h-39v-95h36zM300 323h53q34 0 52 -12t38 -48l67 -123h-41l-55 101q-18 34 -29 43.5t-31 9.5h-17v-154h-37
v183z" />
    <glyph glyph-name="macron" unicode="&#xaf;" horiz-adv-x="500" 
d="M-6 850h512v-39h-512v39zM-6 763h512v-39h-512v39z" />
    <glyph glyph-name="degree" unicode="&#xb0;" horiz-adv-x="396" 
d="M122 435q-35 20 -55 55t-20 76t20.5 75.5t55 55t75.5 20.5t76 -20t55 -55t20 -76t-20.5 -75.5t-55 -55t-75.5 -20.5t-76 20zM282 482q35 35 35 84q0 50 -34.5 84.5t-84.5 34.5q-49 0 -84 -35t-35 -84t35 -84t84 -35t84 35zM133.5 501.5q-26.5 26.5 -26.5 64.5
q0 37 26.5 63.5t64.5 26.5t64 -26t26 -64t-26.5 -64.5t-63.5 -26.5q-38 0 -64.5 26.5zM239 524.5q17 17.5 17 41.5t-17 41t-41 17t-41.5 -17t-17.5 -41q0 -25 17 -42t42 -17q24 0 41 17.5z" />
    <glyph glyph-name="plusminus" unicode="&#xb1;" horiz-adv-x="579" 
d="M53 476h167v147h45v-191h-212v44zM313 623h45v-147h167v-44h-212v191zM220 341h-167v43h212v-190h-45v147zM313 384h212v-43h-167v-147h-45v190zM53 135h472v-44h-472v44zM53 43h472v-43h-472v43z" />
    <glyph glyph-name="uni00B2" unicode="&#xb2;" horiz-adv-x="438" 
d="M288 564q37 62 37 125q0 57 -39 93t-103 36q-80 0 -138 -49v43q57 44 148 44q51 0 91.5 -22t62.5 -59t22 -82q0 -63 -30 -117t-89 -122h154v-38h-239q86 86 123 148zM30 375q88 80 151.5 156t63.5 143q0 41 -24 58.5t-54 17.5q-36 0 -62.5 -12.5t-59.5 -43.5v41
q56 51 127 51q55 0 86 -28.5t31 -77.5q0 -66 -53.5 -137.5t-143.5 -156.5h312v-38h-374v27z" />
    <glyph glyph-name="uni00B3" unicode="&#xb3;" horiz-adv-x="429" 
d="M57 366v39q63 -31 127 -31q59 0 97 33.5t38 86.5q0 49 -24 77t-72 32v5q46 13 66.5 38t20.5 66q0 52 -35 80t-99 28q-56 0 -107 -25v38q52 23 112 23q81 0 125.5 -37t44.5 -99q0 -40 -15.5 -66.5t-47.5 -44.5q36 -14 55 -44t19 -75q0 -68 -47.5 -110.5t-126.5 -42.5
q-68 0 -131 29zM119.5 412q-32.5 8 -62.5 24v38q66 -36 115 -36q31 0 49.5 16t18.5 45q0 33 -26 50.5t-77 16.5v80q51 0 74.5 14t23.5 43q0 27 -18.5 41.5t-54.5 14.5q-40 0 -93 -24v36q48 21 99 21t79 -22.5t28 -63.5q0 -39 -26.5 -62.5t-79.5 -26.5v-23q113 -4 113 -98
q0 -43 -27.5 -67.5t-76.5 -24.5q-26 0 -58.5 8z" />
    <glyph glyph-name="acute" unicode="&#xb4;" horiz-adv-x="333" 
d="M138 655h55l-70 -125h-45zM246 655h59l-112 -125h-46z" />
    <glyph glyph-name="uni00B5" unicode="&#xb5;" horiz-adv-x="583" 
d="M60 473h48v-702h-48v702zM188 113.5q-38 32.5 -38 97.5v262h48v-249q0 -51 26 -75t60 -24q39 0 62 25.5t23 69.5v253h48v-264q0 -59 -38.5 -93.5t-97.5 -34.5q-55 0 -93 32.5zM459 132v341h48v-325q0 -35 25 -35q10 0 18 3t18 10v-42q-24 -13 -55 -13q-54 0 -54 61z
M150 86h4q37 -51 127 -51q79 0 130 64h4q1 -27 17 -46t51 -19q53 0 85 20v-44q-19 -10 -43.5 -14.5t-46.5 -4.5q-37 0 -61 11.5t-30 29.5q-22 -22 -46 -31.5t-56 -9.5q-56 0 -87 25v-245h-48v315z" />
    <glyph glyph-name="paragraph" unicode="&#xb6;" horiz-adv-x="540" 
d="M284 253q-119 0 -182.5 56.5t-63.5 159.5q0 98 60 155.5t170 57.5h249v-45h-240q-90 0 -136.5 -42.5t-46.5 -125.5q0 -88 61.5 -131t178.5 -39v-521h-50v475zM143 469q0 69 34.5 97.5t106.5 28.5h50v-254h-20q-171 -2 -171 128zM384 595h133v-45h-82v-772h-51v817z
M288 386v164h-5q-47 0 -69 -18t-22 -67q0 -41 25 -60t66 -19h5z" />
    <glyph glyph-name="periodcentered" unicode="&#xb7;" horiz-adv-x="312" 
d="M82.5 280q-31.5 31 -31.5 75t31 74.5t74 30.5t74.5 -30.5t31.5 -74.5t-31 -75t-75 -31q-42 0 -73.5 31zM201 310.5q19 18.5 19 44.5q0 27 -19 45t-45 18t-44.5 -18t-18.5 -45q0 -26 19 -44.5t44 -18.5q26 0 45 18.5zM139 337.5q-7 7.5 -7 17.5t7 17t17 7t17.5 -7t7.5 -17
t-7.5 -17.5t-17.5 -7.5t-17 7.5z" />
    <glyph glyph-name="cedilla" unicode="&#xb8;" horiz-adv-x="333" 
d="M48 -208v32q35 -5 75 -5q58 0 91.5 20t33.5 54q0 32 -21.5 47.5t-66.5 17.5l20 42h34l-9 -20q80 -13 80 -87q0 -48 -40.5 -77t-115.5 -29q-41 0 -81 5zM48 -150v30q24 -4 55 -4q50 0 50 19q0 10 -9.5 15t-34.5 5t-34 -4l40 89h33l-27 -59q69 0 69 -48q0 -22 -21 -35
t-63 -13q-29 0 -58 5z" />
    <glyph glyph-name="uni00B9" unicode="&#xb9;" horiz-adv-x="426" 
d="M262 806h-15l-158 -117l-22 31l172 127h63v-499h-40v458zM187 675l-59 -43l-22 29l121 88v-401h-40v327z" />
    <glyph glyph-name="ordmasculine" unicode="&#xba;" horiz-adv-x="530" 
d="M147 279.5q-53 28.5 -83 78t-30 110.5q0 65 29.5 115.5t82.5 79t120 28.5q66 0 118.5 -28.5t82 -78.5t29.5 -114q0 -69 -33.5 -118.5t-86.5 -75t-111 -25.5q-65 0 -118 28.5zM365 310q44 23 68.5 65t24.5 95q0 54 -24 96t-67.5 65.5t-100.5 23.5q-87 0 -140.5 -51.5
t-53.5 -135.5q0 -52 24.5 -93t68.5 -64.5t100 -23.5t100 23zM161.5 364.5q-40.5 40.5 -40.5 105.5t39.5 106t102.5 41q65 0 105.5 -40.5t40.5 -105.5t-40 -106t-103 -41q-64 0 -104.5 40.5zM342.5 390.5q28.5 30.5 28.5 80.5q0 51 -29 81t-79 30q-48 0 -76 -31t-28 -81
q0 -49 28.5 -79.5t78.5 -30.5q48 0 76.5 30.5z" />
    <glyph glyph-name="guillemotright" unicode="&#xbb;" horiz-adv-x="586" 
d="M179 330l-149 236h45l148 -236l-148 -236h-45zM271 330l-148 236h45l147 -236l-147 -236h-45zM419 330l-149 236h45l148 -236l-148 -236h-45zM512 330l-149 236h45l148 -236l-148 -236h-45z" />
    <glyph glyph-name="onequarter" unicode="&#xbc;" horiz-adv-x="1032" 
d="M261 641h-15l-158 -117l-22 31l172 127h63v-499h-40v458zM186 510l-59 -43l-22 29l121 88v-401h-40v327zM655 696h40l-384 -722h-41zM729 696h41l-384 -722h-41zM829 132h-230v70l266 306h82v-283h64v-34h-106v280h-21l-245 -283v-23h232v-165h-42v132zM871 412v-221
h-189zM832 225v97l-82 -97h82zM905 165h106v-33h-64v-132h-42v165z" />
    <glyph glyph-name="onehalf" unicode="&#xbd;" horiz-adv-x="1084" 
d="M262 641h-15l-158 -117l-22 31l172 127h63v-499h-40v458zM187 510l-59 -43l-22 29l121 88v-401h-40v327zM650 696h40l-384 -722h-41zM724 696h41l-384 -722h-41zM943 216q37 62 37 125q0 57 -39 93t-103 36q-80 0 -138 -49v43q59 44 148 44q51 0 91.5 -22t62.5 -59.5
t22 -82.5q0 -63 -30 -117t-89 -121h154v-38h-239q86 86 123 148zM685 27q88 80 151.5 156t63.5 143q0 40 -24 57.5t-54 17.5q-37 0 -63 -12t-59 -43v41q56 51 127 51q55 0 86 -28.5t31 -77.5q0 -67 -53.5 -138.5t-143.5 -155.5h312v-38h-374v27z" />
    <glyph glyph-name="threequarters" unicode="&#xbe;" horiz-adv-x="1047" 
d="M63 201v39q63 -31 127 -31q59 0 97 33.5t38 86.5q0 49 -24 77t-72 32v5q46 13 66.5 38t20.5 66q0 52 -35 80t-99 28q-56 0 -107 -25v38q52 23 112 23q81 0 125.5 -37t44.5 -99q0 -40 -15.5 -66.5t-47.5 -44.5q36 -14 55 -44t19 -75q0 -68 -47.5 -110.5t-126.5 -42.5
q-68 0 -131 29zM125.5 247q-32.5 8 -62.5 24v38q66 -36 115 -36q31 0 49.5 16t18.5 45q0 33 -26 50.5t-77 16.5v80q51 0 74.5 14t23.5 43q0 27 -18.5 41.5t-54.5 14.5q-40 0 -93 -24v36q48 21 99 21t79 -22.5t28 -63.5q0 -39 -26.5 -62.5t-79.5 -26.5v-23q113 -4 113 -98
q0 -43 -27.5 -67.5t-76.5 -24.5q-26 0 -58.5 8zM675 696h40l-384 -722h-41zM749 696h41l-384 -722h-41zM844 132h-230v70l266 306h82v-283h64v-34h-106v280h-21l-245 -283v-23h232v-165h-42v132zM886 412v-221h-189zM847 225v97l-82 -97h82zM920 165h106v-33h-64v-132h-42
v165z" />
    <glyph glyph-name="questiondown" unicode="&#xbf;" horiz-adv-x="356" 
d="M270 660.5q31 -30.5 31 -74.5q0 -45 -31 -75.5t-74 -30.5t-74.5 30.5t-31.5 74.5t31.5 75t74.5 31t74 -30.5zM151.5 630.5q-18.5 -18.5 -18.5 -45.5q0 -26 18.5 -44t44.5 -18t44.5 18t18.5 45q0 26 -19 44.5t-44 18.5q-26 0 -44.5 -18.5zM213 603q7 -7 7 -17t-7 -17.5
t-17 -7.5t-17.5 7t-7.5 17t7.5 17.5t17.5 7.5t17 -7zM242 450q18 -20 18 -53q0 -27 -9 -55t-30 -64q-25 -41 -34.5 -65t-9.5 -48q0 -26 16.5 -41.5t44.5 -15.5q30 0 64 18l-15 -44q-33 -14 -62 -14q-43 0 -67.5 23t-24.5 59q0 29 11.5 55.5t41.5 72.5q23 35 33.5 62.5
t10.5 55.5q0 29 -12 38q1 -5 0.5 -9t-0.5 -7q-10 -58 -66 -127q-37 -45 -53 -81t-16 -71q0 -52 30 -81t83 -29q42 0 77 11l-13 -43q-33 -9 -70 -9q-62 0 -105 36.5t-43 109.5q0 38 19 79t59 89t56 84.5t16 67.5q0 12 -5 24q37 -8 55 -28z" />
    <glyph glyph-name="Agrave" unicode="&#xc0;" 
d="M301 685h127l310 -685h-52l-289 643h-66l-277 -643h-51zM349 592h30l145 -334h-310zM460 298l-96 222l-86 -222h182zM194 214h349l91 -214h-52l-72 173h-281l-71 -173h-52zM193 887h60l127 -155h-46zM314 887h55l80 -155h-45z" />
    <glyph glyph-name="Aacute" unicode="&#xc1;" 
d="M301 685h127l310 -685h-52l-289 643h-66l-277 -643h-51zM349 592h30l145 -334h-310zM460 298l-96 222l-86 -222h182zM194 214h349l91 -214h-52l-72 173h-281l-71 -173h-52zM361 887h55l-90 -155h-45zM477 887h60l-141 -155h-46z" />
    <glyph glyph-name="Acircumflex" unicode="&#xc2;" 
d="M301 685h127l310 -685h-52l-289 643h-66l-277 -643h-51zM349 592h30l145 -334h-310zM460 298l-96 222l-86 -222h182zM194 214h349l91 -214h-52l-72 173h-281l-71 -173h-52zM283 889h55l-111 -157h-45zM396 889h55l102 -157h-45zM367 860l110 -128h-42l-68 74l-67 -74h-42
z" />
    <glyph glyph-name="Atilde" unicode="&#xc3;" 
d="M301 685h127l310 -685h-52l-289 643h-66l-277 -643h-51zM349 592h30l145 -334h-310zM460 298l-96 222l-86 -222h182zM194 214h349l91 -214h-52l-72 173h-281l-71 -173h-52zM208.5 847.5q34.5 42.5 86.5 42.5q24 0 46 -6.5t50 -18.5q27 -12 38 -12q14 0 21.5 9t9.5 30h42
q-5 -82 -64 -82q-12 0 -28.5 5.5t-32.5 12.5q-25 10 -42 15.5t-35 5.5q-37 0 -60 -26.5t-24 -87.5h-42q0 70 34.5 112.5zM260 799q16 18 44 18q15 0 30 -4.5t40 -14.5t40 -15t30 -5q35 0 57.5 29t25.5 85h42q-1 -72 -35.5 -113.5t-84.5 -41.5q-22 0 -42 6t-45 17
q-14 6 -27 10.5t-22 4.5q-14 0 -22 -9t-9 -31h-42q4 46 20 64z" />
    <glyph glyph-name="Adieresis" unicode="&#xc4;" 
d="M301 685h127l310 -685h-52l-289 643h-66l-277 -643h-51zM349 592h30l145 -334h-310zM460 298l-96 222l-86 -222h182zM194 214h349l91 -214h-52l-72 173h-281l-71 -173h-52zM204.5 757q-26.5 26 -26.5 61q0 36 26 61.5t62 25.5t61.5 -25.5t25.5 -61.5q0 -35 -25.5 -61
t-61.5 -26q-35 0 -61.5 26zM397 757q-26 26 -26 61q0 36 26 61.5t62 25.5q35 0 60.5 -25.5t25.5 -61.5q0 -35 -25.5 -61t-60.5 -26q-36 0 -62 26zM305 779.5q17 16.5 17 38.5q0 23 -17 39.5t-40 16.5q-22 0 -38.5 -16.5t-16.5 -39.5q0 -22 16.5 -38.5t38.5 -16.5
q23 0 40 16.5zM498 779.5q16 16.5 16 38.5q0 23 -16.5 39.5t-38.5 16.5q-23 0 -40 -16.5t-17 -39.5q0 -22 17 -38.5t40 -16.5t39 16.5zM248 801q-8 8 -8 18q0 9 8 16.5t18 7.5t17 -7t7 -17q0 -11 -7 -18.5t-17 -7.5t-18 8zM440.5 800.5q-7.5 7.5 -7.5 18.5q0 9 7.5 16.5
t18.5 7.5q9 0 16.5 -7t7.5 -17q0 -11 -7 -18.5t-17 -7.5q-11 0 -18.5 7.5z" />
    <glyph glyph-name="Aring" unicode="&#xc5;" 
d="M738 0h-52l-289 643h-66l-277 -643h-51l293 673q-34 31 -34 77q0 44 30.5 74t73.5 30q44 0 74.5 -30.5t30.5 -73.5q0 -24 -9.5 -44.5t-27.5 -34.5zM322.5 794q-17.5 -18 -17.5 -44t17.5 -44t43.5 -18t44.5 18t18.5 44t-18.5 44t-44.5 18t-43.5 -18zM379 592l145 -334
h-310l135 334h30zM460 298l-96 222l-86 -222h182zM543 214l91 -214h-52l-72 173h-281l-71 -173h-52l88 214h349z" />
    <glyph glyph-name="AE" unicode="&#xc6;" horiz-adv-x="976" 
d="M399 682h499v-42h-469l-354 -607h50l143 243h270v-234h369v-42h-416v235h-193l-138 -235h-157zM455 602h83v-287h-248zM585 602h313v-42h-266v-154h253v-41h-300v237zM491 355v205h-11l-115 -205h126zM585 326h300v-43h-253v-160h275v-42h-322v245z" />
    <glyph glyph-name="Ccedilla" unicode="&#xc7;" horiz-adv-x="707" 
d="M123 191.5q38 -70.5 112 -114.5t176 -44q65 0 129 15.5t119 47.5v-44q-102 -54 -220 -60l-5 -12q80 -13 80 -87q0 -48 -40.5 -77t-115.5 -29q-41 0 -81 5v32q35 -5 75 -5q58 0 91.5 20t33.5 54q0 32 -21.5 47.5t-66.5 17.5l16 33q-21 0 -32 1l-23 -51q69 0 69 -48
q0 -22 -21 -35t-63 -13q-29 0 -58 5v30q24 -4 55 -4q50 0 50 19q0 10 -9.5 15t-34.5 5t-34 -4l38 85q-99 14 -168 66.5t-103 126t-34 149.5q0 98 50 179t136 127.5t187 46.5q118 0 242 -56v-45q-58 27 -120 43t-119 16q-88 0 -163.5 -39t-120 -110t-44.5 -162
q0 -76 38 -146.5zM542.5 140q62.5 19 116.5 53v-44q-51 -32 -118 -51t-127 -19q-84 0 -146.5 33t-96.5 92t-34 134t34 135t97.5 95t147.5 35q58 0 120.5 -17t115.5 -47v-44q-113 66 -233 66q-75 0 -127.5 -30t-79.5 -81t-27 -112t26.5 -110.5t78.5 -78t127 -28.5
q63 0 125.5 19z" />
    <glyph glyph-name="Egrave" unicode="&#xc8;" horiz-adv-x="571" 
d="M69 682h426v-42h-378v-598h385v-42h-433v682zM166 596h329v-43h-282v-145h268v-42h-315v230zM166 322h315v-42h-268v-152h289v-42h-336v236zM121 887h60l127 -155h-46zM242 887h55l80 -155h-45z" />
    <glyph glyph-name="Eacute" unicode="&#xc9;" horiz-adv-x="571" 
d="M69 682h426v-42h-378v-598h385v-42h-433v682zM166 596h329v-43h-282v-145h268v-42h-315v230zM166 322h315v-42h-268v-152h289v-42h-336v236zM293 887h55l-90 -155h-45zM409 887h60l-141 -155h-46z" />
    <glyph glyph-name="Ecircumflex" unicode="&#xca;" horiz-adv-x="571" 
d="M69 682h426v-42h-378v-598h385v-42h-433v682zM166 596h329v-43h-282v-145h268v-42h-315v230zM166 322h315v-42h-268v-152h289v-42h-336v236zM202 889h55l-111 -157h-45zM315 889h55l102 -157h-45zM286 860l110 -128h-42l-68 74l-67 -74h-42z" />
    <glyph glyph-name="Edieresis" unicode="&#xcb;" horiz-adv-x="571" 
d="M69 682h426v-42h-378v-598h385v-42h-433v682zM166 596h329v-43h-282v-145h268v-42h-315v230zM166 322h315v-42h-268v-152h289v-42h-336v236zM127.5 757q-26.5 26 -26.5 61q0 36 26 61.5t62 25.5t61.5 -25.5t25.5 -61.5q0 -35 -25.5 -61t-61.5 -26q-35 0 -61.5 26z
M320 757q-26 26 -26 61q0 36 26 61.5t62 25.5q35 0 60.5 -25.5t25.5 -61.5q0 -35 -25.5 -61t-60.5 -26q-36 0 -62 26zM228 779.5q17 16.5 17 38.5q0 23 -17 39.5t-40 16.5q-22 0 -38.5 -16.5t-16.5 -39.5q0 -22 16.5 -38.5t38.5 -16.5q23 0 40 16.5zM421 779.5
q16 16.5 16 38.5q0 23 -16.5 39.5t-38.5 16.5q-23 0 -40 -16.5t-17 -39.5q0 -22 17 -38.5t40 -16.5t39 16.5zM171 801q-8 8 -8 18q0 9 8 16.5t18 7.5t17 -7t7 -17q0 -11 -7 -18.5t-17 -7.5t-18 8zM363.5 800.5q-7.5 7.5 -7.5 18.5q0 9 7.5 16.5t18.5 7.5q9 0 16.5 -7
t7.5 -17q0 -11 -7 -18.5t-17 -7.5q-11 0 -18.5 7.5z" />
    <glyph glyph-name="Igrave" unicode="&#xcc;" horiz-adv-x="302" 
d="M79 682h48v-682h-48v682zM175 682h48v-682h-48v682zM-23 887h60l127 -155h-46zM98 887h55l80 -155h-45z" />
    <glyph glyph-name="Iacute" unicode="&#xcd;" horiz-adv-x="302" 
d="M79 682h48v-682h-48v682zM175 682h48v-682h-48v682zM136 887h55l-90 -155h-45zM252 887h60l-141 -155h-46z" />
    <glyph glyph-name="Icircumflex" unicode="&#xce;" horiz-adv-x="302" 
d="M79 682h48v-682h-48v682zM175 682h48v-682h-48v682zM62 889h55l-111 -157h-45zM175 889h55l102 -157h-45zM146 860l110 -128h-42l-68 74l-67 -74h-42z" />
    <glyph glyph-name="Idieresis" unicode="&#xcf;" horiz-adv-x="302" 
d="M79 682h48v-682h-48v682zM175 682h48v-682h-48v682zM-6.5 757q-26.5 26 -26.5 61q0 36 26 61.5t62 25.5t61.5 -25.5t25.5 -61.5q0 -35 -25.5 -61t-61.5 -26q-35 0 -61.5 26zM186 757q-26 26 -26 61q0 36 26 61.5t62 25.5q35 0 60.5 -25.5t25.5 -61.5q0 -35 -25.5 -61
t-60.5 -26q-36 0 -62 26zM94 779.5q17 16.5 17 38.5q0 23 -17 39.5t-40 16.5q-22 0 -38.5 -16.5t-16.5 -39.5q0 -22 16.5 -38.5t38.5 -16.5q23 0 40 16.5zM287 779.5q16 16.5 16 38.5q0 23 -16.5 39.5t-38.5 16.5q-23 0 -40 -16.5t-17 -39.5q0 -22 17 -38.5t40 -16.5
t39 16.5zM37 801q-8 8 -8 18q0 9 8 16.5t18 7.5t17 -7t7 -17q0 -11 -7 -18.5t-17 -7.5t-18 8zM229.5 800.5q-7.5 7.5 -7.5 18.5q0 9 7.5 16.5t18.5 7.5q9 0 16.5 -7t7.5 -17q0 -11 -7 -18.5t-17 -7.5q-11 0 -18.5 7.5z" />
    <glyph glyph-name="Eth" unicode="&#xd0;" horiz-adv-x="761" 
d="M71 317h-70v44h70v321h279q108 0 193 -40.5t133 -116.5t48 -178q0 -103 -47 -181.5t-131.5 -122t-193.5 -43.5h-281v317zM332 42q107 0 184.5 36.5t118.5 105.5t41 163q0 87 -40.5 153t-118.5 103t-186 37h-212v-598h213zM168 596h162q144 0 219.5 -65.5t75.5 -187.5
q0 -78 -35 -136.5t-101.5 -90.5t-158.5 -32h-162v512zM334 125q117 0 180 57t63 161q0 100 -60 155.5t-183 55.5h-119v-193h167v-44h-167v-192h119z" />
    <glyph glyph-name="Ntilde" unicode="&#xd1;" horiz-adv-x="814" 
d="M69 682h134l399 -467v467h48v-588l-471 546h-62v-640h-48v682zM164 586l470 -544h63v640h48v-682h-135l-399 468v-468h-47v586zM247.5 847.5q34.5 42.5 86.5 42.5q24 0 46 -6.5t50 -18.5q27 -12 38 -12q14 0 21.5 9t9.5 30h42q-5 -82 -64 -82q-12 0 -28.5 5.5t-32.5 12.5
q-25 10 -42 15.5t-35 5.5q-37 0 -60 -26.5t-24 -87.5h-42q0 70 34.5 112.5zM299 799q16 18 44 18q15 0 30 -4.5t40 -14.5t40 -15t30 -5q35 0 57.5 29t25.5 85h42q-1 -72 -35.5 -113.5t-84.5 -41.5q-22 0 -42 6t-45 17q-14 6 -27 10.5t-22 4.5q-14 0 -22 -9t-9 -31h-42
q4 46 20 64z" />
    <glyph glyph-name="Ograve" unicode="&#xd2;" horiz-adv-x="810" 
d="M210.5 38.5q-82.5 47.5 -128 127t-45.5 173.5q0 91 43.5 172t126.5 130.5t196 49.5q106 0 190.5 -46.5t132 -126.5t47.5 -176q0 -93 -45 -173.5t-130.5 -129t-199.5 -48.5q-105 0 -187.5 47.5zM573 75.5q74 42.5 113 113.5t39 152q0 85 -41 155.5t-114.5 111.5t-165.5 41
q-100 0 -172 -44t-109.5 -115t-37.5 -152q0 -82 39.5 -152t111 -111.5t163.5 -41.5q100 0 174 42.5zM268.5 108q-61.5 34 -98 94.5t-36.5 135.5t33 136.5t94.5 97.5t144.5 36q84 0 145.5 -40t93 -101.5t31.5 -124.5q0 -86 -37 -146.5t-99.5 -91t-138.5 -30.5
q-71 0 -132.5 34zM516.5 142.5q51.5 26.5 81.5 77.5t30 122q0 56 -26 107.5t-76.5 84t-119.5 32.5t-119.5 -29.5t-77.5 -81t-27 -115.5q0 -65 29.5 -116t80 -79.5t110.5 -28.5q63 0 114.5 26.5zM247 887h60l127 -155h-46zM368 887h55l80 -155h-45z" />
    <glyph glyph-name="Oacute" unicode="&#xd3;" horiz-adv-x="810" 
d="M210.5 38.5q-82.5 47.5 -128 127t-45.5 173.5q0 91 43.5 172t126.5 130.5t196 49.5q106 0 190.5 -46.5t132 -126.5t47.5 -176q0 -93 -45 -173.5t-130.5 -129t-199.5 -48.5q-105 0 -187.5 47.5zM573 75.5q74 42.5 113 113.5t39 152q0 85 -41 155.5t-114.5 111.5t-165.5 41
q-100 0 -172 -44t-109.5 -115t-37.5 -152q0 -82 39.5 -152t111 -111.5t163.5 -41.5q100 0 174 42.5zM268.5 108q-61.5 34 -98 94.5t-36.5 135.5t33 136.5t94.5 97.5t144.5 36q84 0 145.5 -40t93 -101.5t31.5 -124.5q0 -86 -37 -146.5t-99.5 -91t-138.5 -30.5
q-71 0 -132.5 34zM516.5 142.5q51.5 26.5 81.5 77.5t30 122q0 56 -26 107.5t-76.5 84t-119.5 32.5t-119.5 -29.5t-77.5 -81t-27 -115.5q0 -65 29.5 -116t80 -79.5t110.5 -28.5q63 0 114.5 26.5zM401 887h55l-90 -155h-45zM517 887h60l-141 -155h-46z" />
    <glyph glyph-name="Ocircumflex" unicode="&#xd4;" horiz-adv-x="810" 
d="M210.5 38.5q-82.5 47.5 -128 127t-45.5 173.5q0 91 43.5 172t126.5 130.5t196 49.5q106 0 190.5 -46.5t132 -126.5t47.5 -176q0 -93 -45 -173.5t-130.5 -129t-199.5 -48.5q-105 0 -187.5 47.5zM573 75.5q74 42.5 113 113.5t39 152q0 85 -41 155.5t-114.5 111.5t-165.5 41
q-100 0 -172 -44t-109.5 -115t-37.5 -152q0 -82 39.5 -152t111 -111.5t163.5 -41.5q100 0 174 42.5zM268.5 108q-61.5 34 -98 94.5t-36.5 135.5t33 136.5t94.5 97.5t144.5 36q84 0 145.5 -40t93 -101.5t31.5 -124.5q0 -86 -37 -146.5t-99.5 -91t-138.5 -30.5
q-71 0 -132.5 34zM516.5 142.5q51.5 26.5 81.5 77.5t30 122q0 56 -26 107.5t-76.5 84t-119.5 32.5t-119.5 -29.5t-77.5 -81t-27 -115.5q0 -65 29.5 -116t80 -79.5t110.5 -28.5q63 0 114.5 26.5zM329 889h55l-111 -157h-45zM442 889h55l102 -157h-45zM413 860l110 -128h-42
l-68 74l-67 -74h-42z" />
    <glyph glyph-name="Otilde" unicode="&#xd5;" horiz-adv-x="810" 
d="M210.5 38.5q-82.5 47.5 -128 127t-45.5 173.5q0 91 43.5 172t126.5 130.5t196 49.5q106 0 190.5 -46.5t132 -126.5t47.5 -176q0 -93 -45 -173.5t-130.5 -129t-199.5 -48.5q-105 0 -187.5 47.5zM573 75.5q74 42.5 113 113.5t39 152q0 85 -41 155.5t-114.5 111.5t-165.5 41
q-100 0 -172 -44t-109.5 -115t-37.5 -152q0 -82 39.5 -152t111 -111.5t163.5 -41.5q100 0 174 42.5zM268.5 108q-61.5 34 -98 94.5t-36.5 135.5t33 136.5t94.5 97.5t144.5 36q84 0 145.5 -40t93 -101.5t31.5 -124.5q0 -86 -37 -146.5t-99.5 -91t-138.5 -30.5
q-71 0 -132.5 34zM516.5 142.5q51.5 26.5 81.5 77.5t30 122q0 56 -26 107.5t-76.5 84t-119.5 32.5t-119.5 -29.5t-77.5 -81t-27 -115.5q0 -65 29.5 -116t80 -79.5t110.5 -28.5q63 0 114.5 26.5zM249.5 847.5q34.5 42.5 86.5 42.5q24 0 46 -6.5t50 -18.5q27 -12 38 -12
q14 0 21.5 9t9.5 30h42q-5 -82 -64 -82q-12 0 -28.5 5.5t-32.5 12.5q-25 10 -42 15.5t-35 5.5q-37 0 -60 -26.5t-24 -87.5h-42q0 70 34.5 112.5zM301 799q16 18 44 18q15 0 30 -4.5t40 -14.5t40 -15t30 -5q35 0 57.5 29t25.5 85h42q-1 -72 -35.5 -113.5t-84.5 -41.5
q-22 0 -42 6t-45 17q-14 6 -27 10.5t-22 4.5q-14 0 -22 -9t-9 -31h-42q4 46 20 64z" />
    <glyph glyph-name="Odieresis" unicode="&#xd6;" horiz-adv-x="810" 
d="M210.5 38.5q-82.5 47.5 -128 127t-45.5 173.5q0 91 43.5 172t126.5 130.5t196 49.5q106 0 190.5 -46.5t132 -126.5t47.5 -176q0 -93 -45 -173.5t-130.5 -129t-199.5 -48.5q-105 0 -187.5 47.5zM573 75.5q74 42.5 113 113.5t39 152q0 85 -41 155.5t-114.5 111.5t-165.5 41
q-100 0 -172 -44t-109.5 -115t-37.5 -152q0 -82 39.5 -152t111 -111.5t163.5 -41.5q100 0 174 42.5zM268.5 108q-61.5 34 -98 94.5t-36.5 135.5t33 136.5t94.5 97.5t144.5 36q84 0 145.5 -40t93 -101.5t31.5 -124.5q0 -86 -37 -146.5t-99.5 -91t-138.5 -30.5
q-71 0 -132.5 34zM516.5 142.5q51.5 26.5 81.5 77.5t30 122q0 56 -26 107.5t-76.5 84t-119.5 32.5t-119.5 -29.5t-77.5 -81t-27 -115.5q0 -65 29.5 -116t80 -79.5t110.5 -28.5q63 0 114.5 26.5zM256.5 757q-26.5 26 -26.5 61q0 36 26 61.5t62 25.5t61.5 -25.5t25.5 -61.5
q0 -35 -25.5 -61t-61.5 -26q-35 0 -61.5 26zM449 757q-26 26 -26 61q0 36 26 61.5t62 25.5q35 0 60.5 -25.5t25.5 -61.5q0 -35 -25.5 -61t-60.5 -26q-36 0 -62 26zM357 779.5q17 16.5 17 38.5q0 23 -17 39.5t-40 16.5q-22 0 -38.5 -16.5t-16.5 -39.5q0 -22 16.5 -38.5
t38.5 -16.5q23 0 40 16.5zM550 779.5q16 16.5 16 38.5q0 23 -16.5 39.5t-38.5 16.5q-23 0 -40 -16.5t-17 -39.5q0 -22 17 -38.5t40 -16.5t39 16.5zM300 801q-8 8 -8 18q0 9 8 16.5t18 7.5t17 -7t7 -17q0 -11 -7 -18.5t-17 -7.5t-18 8zM492.5 800.5q-7.5 7.5 -7.5 18.5
q0 9 7.5 16.5t18.5 7.5q9 0 16.5 -7t7.5 -17q0 -11 -7 -18.5t-17 -7.5q-11 0 -18.5 7.5z" />
    <glyph glyph-name="multiply" unicode="&#xd7;" horiz-adv-x="578" 
d="M114 552l31 32l145 -144l145 144l30 -31l-176 -176zM323 343l176 177l31 -31l-145 -145l145 -144l-32 -32zM48 197l145 145l-145 145l32 32l175 -176l-176 -176zM113 133l176 176l175 -175l-31 -32l-145 145l-145 -145z" />
    <glyph glyph-name="Oslash" unicode="&#xd8;" horiz-adv-x="810" 
d="M88 6l65 74q-56 49 -86 116t-30 143q0 91 43.5 172t126.5 130.5t196 49.5q129 0 227 -69l66 73l30 -28l-64 -71q53 -48 82 -113.5t29 -140.5q0 -93 -45 -173.5t-130.5 -129t-199.5 -48.5q-122 0 -213 63l-67 -75zM573 75.5q74 42.5 113 113.5t39 152q0 85 -41 155.5
t-114.5 111.5t-165.5 41q-100 0 -172 -44t-109.5 -115t-37.5 -152q0 -82 39.5 -152t111 -111.5t163.5 -41.5q100 0 174 42.5zM268.5 108q-61.5 34 -98 94.5t-36.5 135.5t33 136.5t94.5 97.5t144.5 36q84 0 145.5 -40t93 -101.5t31.5 -124.5q0 -86 -37 -146.5t-99.5 -91
t-138.5 -30.5q-71 0 -132.5 34zM540 523q-54 43 -134 43q-69 0 -119.5 -29.5t-77.5 -81t-27 -115.5q0 -47 17 -87t47 -69zM516.5 142.5q51.5 26.5 81.5 77.5t30 122q0 40 -16 80t-45 70l-293 -337q58 -39 128 -39q63 0 114.5 26.5z" />
    <glyph glyph-name="Ugrave" unicode="&#xd9;" horiz-adv-x="766" 
d="M149.5 68q-80.5 77 -80.5 226v388h48v-383q0 -128 66.5 -197t200.5 -69q137 0 201.5 69.5t64.5 196.5v383h48v-388q0 -145 -78.5 -224t-234.5 -79q-155 0 -235.5 77zM219.5 130q-53.5 52 -53.5 172v380h48v-378q0 -100 41 -142t130 -42q88 0 128 42t40 142v378h48v-380
q0 -116 -53.5 -170t-162.5 -54q-112 0 -165.5 52zM204 887h60l127 -155h-46zM325 887h55l80 -155h-45z" />
    <glyph glyph-name="Uacute" unicode="&#xda;" horiz-adv-x="766" 
d="M149.5 68q-80.5 77 -80.5 226v388h48v-383q0 -128 66.5 -197t200.5 -69q137 0 201.5 69.5t64.5 196.5v383h48v-388q0 -145 -78.5 -224t-234.5 -79q-155 0 -235.5 77zM219.5 130q-53.5 52 -53.5 172v380h48v-378q0 -100 41 -142t130 -42q88 0 128 42t40 142v378h48v-380
q0 -116 -53.5 -170t-162.5 -54q-112 0 -165.5 52zM372 887h55l-90 -155h-45zM488 887h60l-141 -155h-46z" />
    <glyph glyph-name="Ucircumflex" unicode="&#xdb;" horiz-adv-x="766" 
d="M149.5 68q-80.5 77 -80.5 226v388h48v-383q0 -128 66.5 -197t200.5 -69q137 0 201.5 69.5t64.5 196.5v383h48v-388q0 -145 -78.5 -224t-234.5 -79q-155 0 -235.5 77zM219.5 130q-53.5 52 -53.5 172v380h48v-378q0 -100 41 -142t130 -42q88 0 128 42t40 142v378h48v-380
q0 -116 -53.5 -170t-162.5 -54q-112 0 -165.5 52zM299 889h55l-111 -157h-45zM412 889h55l102 -157h-45zM383 860l110 -128h-42l-68 74l-67 -74h-42z" />
    <glyph glyph-name="Udieresis" unicode="&#xdc;" horiz-adv-x="766" 
d="M149.5 68q-80.5 77 -80.5 226v388h48v-383q0 -128 66.5 -197t200.5 -69q137 0 201.5 69.5t64.5 196.5v383h48v-388q0 -145 -78.5 -224t-234.5 -79q-155 0 -235.5 77zM219.5 130q-53.5 52 -53.5 172v380h48v-378q0 -100 41 -142t130 -42q88 0 128 42t40 142v378h48v-380
q0 -116 -53.5 -170t-162.5 -54q-112 0 -165.5 52zM224.5 757q-26.5 26 -26.5 61q0 36 26 61.5t62 25.5t61.5 -25.5t25.5 -61.5q0 -35 -25.5 -61t-61.5 -26q-35 0 -61.5 26zM417 757q-26 26 -26 61q0 36 26 61.5t62 25.5q35 0 60.5 -25.5t25.5 -61.5q0 -35 -25.5 -61
t-60.5 -26q-36 0 -62 26zM325 779.5q17 16.5 17 38.5q0 23 -17 39.5t-40 16.5q-22 0 -38.5 -16.5t-16.5 -39.5q0 -22 16.5 -38.5t38.5 -16.5q23 0 40 16.5zM518 779.5q16 16.5 16 38.5q0 23 -16.5 39.5t-38.5 16.5q-23 0 -40 -16.5t-17 -39.5q0 -22 17 -38.5t40 -16.5
t39 16.5zM268 801q-8 8 -8 18q0 9 8 16.5t18 7.5t17 -7t7 -17q0 -11 -7 -18.5t-17 -7.5t-18 8zM460.5 800.5q-7.5 7.5 -7.5 18.5q0 9 7.5 16.5t18.5 7.5q9 0 16.5 -7t7.5 -17q0 -11 -7 -18.5t-17 -7.5q-11 0 -18.5 7.5z" />
    <glyph glyph-name="Yacute" unicode="&#xdd;" horiz-adv-x="664" 
d="M260 339l-257 343h52l253 -334v-348h-48v339zM115 682h52l164 -224l167 224h52l-219 -293zM356 348l252 334h53l-257 -343v-339h-48v348zM345 887h55l-90 -155h-45zM461 887h60l-141 -155h-46z" />
    <glyph glyph-name="Thorn" unicode="&#xde;" horiz-adv-x="597" 
d="M69 682h48v-682h-48v682zM166 166h131q214 0 214 176q0 85 -52.5 130.5t-152.5 45.5h-140v164h48v-122h103q115 0 178.5 -59t63.5 -160q0 -106 -66.5 -161t-190.5 -55h-88v-125h-48v166zM166 474h126q86 0 127.5 -32t41.5 -99q0 -69 -41 -101t-128 -32h-126v264zM292 252
q69 0 95 23t26 69q0 43 -27.5 65.5t-93.5 22.5h-78v-180h78z" />
    <glyph glyph-name="germandbls" unicode="&#xdf;" horiz-adv-x="723" 
d="M364.5 4q-45.5 13 -93.5 41v44q52 -31 97 -44.5t90 -13.5q84 0 131.5 40t47.5 109q0 46 -16 78t-54.5 61t-111.5 65l130 168q-44 51 -93.5 74t-120.5 23q-126 0 -190 -68.5t-64 -196.5v-384h-48v384q0 151 79 229t223 78q89 0 154.5 -32t116.5 -102l-124 -157
q91 -50 128.5 -98.5t37.5 -120.5q0 -56 -27 -99t-77 -67t-117 -24q-53 0 -98.5 13zM164 382q0 230 210 230q97 0 161 -69l-131 -172l38 -22q61 -33 92.5 -58t43.5 -50.5t12 -62.5q0 -51 -36 -80.5t-99 -29.5q-89 0 -184 65v52q45 -39 88 -58t91 -19q44 0 68 19t24 51
q0 23 -7 39.5t-34 39.5t-83 54l-78 42l136 179q-40 38 -102 38q-80 0 -121 -45.5t-41 -142.5v-382h-48v382z" />
    <glyph glyph-name="agrave" unicode="&#xe0;" 
d="M301 685h127l310 -685h-52l-289 643h-66l-277 -643h-51zM349 592h30l145 -334h-310zM460 298l-96 222l-86 -222h182zM194 214h349l91 -214h-52l-72 173h-281l-71 -173h-52zM193 887h60l127 -155h-46zM314 887h55l80 -155h-45z" />
    <glyph glyph-name="aacute" unicode="&#xe1;" 
d="M301 685h127l310 -685h-52l-289 643h-66l-277 -643h-51zM349 592h30l145 -334h-310zM460 298l-96 222l-86 -222h182zM194 214h349l91 -214h-52l-72 173h-281l-71 -173h-52zM361 887h55l-90 -155h-45zM477 887h60l-141 -155h-46z" />
    <glyph glyph-name="acircumflex" unicode="&#xe2;" 
d="M301 685h127l310 -685h-52l-289 643h-66l-277 -643h-51zM349 592h30l145 -334h-310zM460 298l-96 222l-86 -222h182zM194 214h349l91 -214h-52l-72 173h-281l-71 -173h-52zM283 889h55l-111 -157h-45zM396 889h55l102 -157h-45zM367 860l110 -128h-42l-68 74l-67 -74h-42
z" />
    <glyph glyph-name="atilde" unicode="&#xe3;" 
d="M301 685h127l310 -685h-52l-289 643h-66l-277 -643h-51zM349 592h30l145 -334h-310zM460 298l-96 222l-86 -222h182zM194 214h349l91 -214h-52l-72 173h-281l-71 -173h-52zM208.5 847.5q34.5 42.5 86.5 42.5q24 0 46 -6.5t50 -18.5q27 -12 38 -12q14 0 21.5 9t9.5 30h42
q-5 -82 -64 -82q-12 0 -28.5 5.5t-32.5 12.5q-25 10 -42 15.5t-35 5.5q-37 0 -60 -26.5t-24 -87.5h-42q0 70 34.5 112.5zM260 799q16 18 44 18q15 0 30 -4.5t40 -14.5t40 -15t30 -5q35 0 57.5 29t25.5 85h42q-1 -72 -35.5 -113.5t-84.5 -41.5q-22 0 -42 6t-45 17
q-14 6 -27 10.5t-22 4.5q-14 0 -22 -9t-9 -31h-42q4 46 20 64z" />
    <glyph glyph-name="adieresis" unicode="&#xe4;" 
d="M301 685h127l310 -685h-52l-289 643h-66l-277 -643h-51zM349 592h30l145 -334h-310zM460 298l-96 222l-86 -222h182zM194 214h349l91 -214h-52l-72 173h-281l-71 -173h-52zM204.5 757q-26.5 26 -26.5 61q0 36 26 61.5t62 25.5t61.5 -25.5t25.5 -61.5q0 -35 -25.5 -61
t-61.5 -26q-35 0 -61.5 26zM397 757q-26 26 -26 61q0 36 26 61.5t62 25.5q35 0 60.5 -25.5t25.5 -61.5q0 -35 -25.5 -61t-60.5 -26q-36 0 -62 26zM305 779.5q17 16.5 17 38.5q0 23 -17 39.5t-40 16.5q-22 0 -38.5 -16.5t-16.5 -39.5q0 -22 16.5 -38.5t38.5 -16.5
q23 0 40 16.5zM498 779.5q16 16.5 16 38.5q0 23 -16.5 39.5t-38.5 16.5q-23 0 -40 -16.5t-17 -39.5q0 -22 17 -38.5t40 -16.5t39 16.5zM248 801q-8 8 -8 18q0 9 8 16.5t18 7.5t17 -7t7 -17q0 -11 -7 -18.5t-17 -7.5t-18 8zM440.5 800.5q-7.5 7.5 -7.5 18.5q0 9 7.5 16.5
t18.5 7.5q9 0 16.5 -7t7.5 -17q0 -11 -7 -18.5t-17 -7.5q-11 0 -18.5 7.5z" />
    <glyph glyph-name="aring" unicode="&#xe5;" 
d="M738 0h-52l-289 643h-66l-277 -643h-51l293 673q-34 31 -34 77q0 44 30.5 74t73.5 30q44 0 74.5 -30.5t30.5 -73.5q0 -24 -9.5 -44.5t-27.5 -34.5zM322.5 794q-17.5 -18 -17.5 -44t17.5 -44t43.5 -18t44.5 18t18.5 44t-18.5 44t-44.5 18t-43.5 -18zM379 592l145 -334
h-310l135 334h30zM460 298l-96 222l-86 -222h182zM543 214l91 -214h-52l-72 173h-281l-71 -173h-52l88 214h349z" />
    <glyph glyph-name="ae" unicode="&#xe6;" horiz-adv-x="976" 
d="M399 682h499v-42h-469l-354 -607h50l143 243h270v-234h369v-42h-416v235h-193l-138 -235h-157zM455 602h83v-287h-248zM585 602h313v-42h-266v-154h253v-41h-300v237zM491 355v205h-11l-115 -205h126zM585 326h300v-43h-253v-160h275v-42h-322v245z" />
    <glyph glyph-name="ccedilla" unicode="&#xe7;" horiz-adv-x="707" 
d="M123 191.5q38 -70.5 112 -114.5t176 -44q65 0 129 15.5t119 47.5v-44q-102 -54 -220 -60l-5 -12q80 -13 80 -87q0 -48 -40.5 -77t-115.5 -29q-41 0 -81 5v32q35 -5 75 -5q58 0 91.5 20t33.5 54q0 32 -21.5 47.5t-66.5 17.5l16 33q-21 0 -32 1l-23 -51q69 0 69 -48
q0 -22 -21 -35t-63 -13q-29 0 -58 5v30q24 -4 55 -4q50 0 50 19q0 10 -9.5 15t-34.5 5t-34 -4l38 85q-99 14 -168 66.5t-103 126t-34 149.5q0 98 50 179t136 127.5t187 46.5q118 0 242 -56v-45q-58 27 -120 43t-119 16q-88 0 -163.5 -39t-120 -110t-44.5 -162
q0 -76 38 -146.5zM542.5 140q62.5 19 116.5 53v-44q-51 -32 -118 -51t-127 -19q-84 0 -146.5 33t-96.5 92t-34 134t34 135t97.5 95t147.5 35q58 0 120.5 -17t115.5 -47v-44q-113 66 -233 66q-75 0 -127.5 -30t-79.5 -81t-27 -112t26.5 -110.5t78.5 -78t127 -28.5
q63 0 125.5 19z" />
    <glyph glyph-name="egrave" unicode="&#xe8;" horiz-adv-x="571" 
d="M69 682h426v-42h-378v-598h385v-42h-433v682zM166 596h329v-43h-282v-145h268v-42h-315v230zM166 322h315v-42h-268v-152h289v-42h-336v236zM121 887h60l127 -155h-46zM242 887h55l80 -155h-45z" />
    <glyph glyph-name="eacute" unicode="&#xe9;" horiz-adv-x="571" 
d="M69 682h426v-42h-378v-598h385v-42h-433v682zM166 596h329v-43h-282v-145h268v-42h-315v230zM166 322h315v-42h-268v-152h289v-42h-336v236zM293 887h55l-90 -155h-45zM409 887h60l-141 -155h-46z" />
    <glyph glyph-name="ecircumflex" unicode="&#xea;" horiz-adv-x="571" 
d="M69 682h426v-42h-378v-598h385v-42h-433v682zM166 596h329v-43h-282v-145h268v-42h-315v230zM166 322h315v-42h-268v-152h289v-42h-336v236zM202 889h55l-111 -157h-45zM315 889h55l102 -157h-45zM286 860l110 -128h-42l-68 74l-67 -74h-42z" />
    <glyph glyph-name="edieresis" unicode="&#xeb;" horiz-adv-x="571" 
d="M69 682h426v-42h-378v-598h385v-42h-433v682zM166 596h329v-43h-282v-145h268v-42h-315v230zM166 322h315v-42h-268v-152h289v-42h-336v236zM127.5 757q-26.5 26 -26.5 61q0 36 26 61.5t62 25.5t61.5 -25.5t25.5 -61.5q0 -35 -25.5 -61t-61.5 -26q-35 0 -61.5 26z
M320 757q-26 26 -26 61q0 36 26 61.5t62 25.5q35 0 60.5 -25.5t25.5 -61.5q0 -35 -25.5 -61t-60.5 -26q-36 0 -62 26zM228 779.5q17 16.5 17 38.5q0 23 -17 39.5t-40 16.5q-22 0 -38.5 -16.5t-16.5 -39.5q0 -22 16.5 -38.5t38.5 -16.5q23 0 40 16.5zM421 779.5
q16 16.5 16 38.5q0 23 -16.5 39.5t-38.5 16.5q-23 0 -40 -16.5t-17 -39.5q0 -22 17 -38.5t40 -16.5t39 16.5zM171 801q-8 8 -8 18q0 9 8 16.5t18 7.5t17 -7t7 -17q0 -11 -7 -18.5t-17 -7.5t-18 8zM363.5 800.5q-7.5 7.5 -7.5 18.5q0 9 7.5 16.5t18.5 7.5q9 0 16.5 -7
t7.5 -17q0 -11 -7 -18.5t-17 -7.5q-11 0 -18.5 7.5z" />
    <glyph glyph-name="igrave" unicode="&#xec;" horiz-adv-x="302" 
d="M79 682h48v-682h-48v682zM175 682h48v-682h-48v682zM-23 887h60l127 -155h-46zM98 887h55l80 -155h-45z" />
    <glyph glyph-name="iacute" unicode="&#xed;" horiz-adv-x="302" 
d="M79 682h48v-682h-48v682zM175 682h48v-682h-48v682zM136 887h55l-90 -155h-45zM252 887h60l-141 -155h-46z" />
    <glyph glyph-name="icircumflex" unicode="&#xee;" horiz-adv-x="302" 
d="M79 682h48v-682h-48v682zM175 682h48v-682h-48v682zM62 889h55l-111 -157h-45zM175 889h55l102 -157h-45zM146 860l110 -128h-42l-68 74l-67 -74h-42z" />
    <glyph glyph-name="idieresis" unicode="&#xef;" horiz-adv-x="302" 
d="M79 682h48v-682h-48v682zM175 682h48v-682h-48v682zM-6.5 757q-26.5 26 -26.5 61q0 36 26 61.5t62 25.5t61.5 -25.5t25.5 -61.5q0 -35 -25.5 -61t-61.5 -26q-35 0 -61.5 26zM186 757q-26 26 -26 61q0 36 26 61.5t62 25.5q35 0 60.5 -25.5t25.5 -61.5q0 -35 -25.5 -61
t-60.5 -26q-36 0 -62 26zM94 779.5q17 16.5 17 38.5q0 23 -17 39.5t-40 16.5q-22 0 -38.5 -16.5t-16.5 -39.5q0 -22 16.5 -38.5t38.5 -16.5q23 0 40 16.5zM287 779.5q16 16.5 16 38.5q0 23 -16.5 39.5t-38.5 16.5q-23 0 -40 -16.5t-17 -39.5q0 -22 17 -38.5t40 -16.5
t39 16.5zM37 801q-8 8 -8 18q0 9 8 16.5t18 7.5t17 -7t7 -17q0 -11 -7 -18.5t-17 -7.5t-18 8zM229.5 800.5q-7.5 7.5 -7.5 18.5q0 9 7.5 16.5t18.5 7.5q9 0 16.5 -7t7.5 -17q0 -11 -7 -18.5t-17 -7.5q-11 0 -18.5 7.5z" />
    <glyph glyph-name="eth" unicode="&#xf0;" horiz-adv-x="761" 
d="M71 317h-70v44h70v321h279q108 0 193 -40.5t133 -116.5t48 -178q0 -103 -47 -181.5t-131.5 -122t-193.5 -43.5h-281v317zM332 42q107 0 184.5 36.5t118.5 105.5t41 163q0 87 -40.5 153t-118.5 103t-186 37h-212v-598h213zM168 596h162q144 0 219.5 -65.5t75.5 -187.5
q0 -78 -35 -136.5t-101.5 -90.5t-158.5 -32h-162v512zM334 125q117 0 180 57t63 161q0 100 -60 155.5t-183 55.5h-119v-193h167v-44h-167v-192h119z" />
    <glyph glyph-name="ntilde" unicode="&#xf1;" horiz-adv-x="814" 
d="M69 682h134l399 -467v467h48v-588l-471 546h-62v-640h-48v682zM164 586l470 -544h63v640h48v-682h-135l-399 468v-468h-47v586zM247.5 847.5q34.5 42.5 86.5 42.5q24 0 46 -6.5t50 -18.5q27 -12 38 -12q14 0 21.5 9t9.5 30h42q-5 -82 -64 -82q-12 0 -28.5 5.5t-32.5 12.5
q-25 10 -42 15.5t-35 5.5q-37 0 -60 -26.5t-24 -87.5h-42q0 70 34.5 112.5zM299 799q16 18 44 18q15 0 30 -4.5t40 -14.5t40 -15t30 -5q35 0 57.5 29t25.5 85h42q-1 -72 -35.5 -113.5t-84.5 -41.5q-22 0 -42 6t-45 17q-14 6 -27 10.5t-22 4.5q-14 0 -22 -9t-9 -31h-42
q4 46 20 64z" />
    <glyph glyph-name="ograve" unicode="&#xf2;" horiz-adv-x="810" 
d="M210.5 38.5q-82.5 47.5 -128 127t-45.5 173.5q0 91 43.5 172t126.5 130.5t196 49.5q106 0 190.5 -46.5t132 -126.5t47.5 -176q0 -93 -45 -173.5t-130.5 -129t-199.5 -48.5q-105 0 -187.5 47.5zM573 75.5q74 42.5 113 113.5t39 152q0 85 -41 155.5t-114.5 111.5t-165.5 41
q-100 0 -172 -44t-109.5 -115t-37.5 -152q0 -82 39.5 -152t111 -111.5t163.5 -41.5q100 0 174 42.5zM268.5 108q-61.5 34 -98 94.5t-36.5 135.5t33 136.5t94.5 97.5t144.5 36q84 0 145.5 -40t93 -101.5t31.5 -124.5q0 -86 -37 -146.5t-99.5 -91t-138.5 -30.5
q-71 0 -132.5 34zM516.5 142.5q51.5 26.5 81.5 77.5t30 122q0 56 -26 107.5t-76.5 84t-119.5 32.5t-119.5 -29.5t-77.5 -81t-27 -115.5q0 -65 29.5 -116t80 -79.5t110.5 -28.5q63 0 114.5 26.5zM247 887h60l127 -155h-46zM368 887h55l80 -155h-45z" />
    <glyph glyph-name="oacute" unicode="&#xf3;" horiz-adv-x="810" 
d="M210.5 38.5q-82.5 47.5 -128 127t-45.5 173.5q0 91 43.5 172t126.5 130.5t196 49.5q106 0 190.5 -46.5t132 -126.5t47.5 -176q0 -93 -45 -173.5t-130.5 -129t-199.5 -48.5q-105 0 -187.5 47.5zM573 75.5q74 42.5 113 113.5t39 152q0 85 -41 155.5t-114.5 111.5t-165.5 41
q-100 0 -172 -44t-109.5 -115t-37.5 -152q0 -82 39.5 -152t111 -111.5t163.5 -41.5q100 0 174 42.5zM268.5 108q-61.5 34 -98 94.5t-36.5 135.5t33 136.5t94.5 97.5t144.5 36q84 0 145.5 -40t93 -101.5t31.5 -124.5q0 -86 -37 -146.5t-99.5 -91t-138.5 -30.5
q-71 0 -132.5 34zM516.5 142.5q51.5 26.5 81.5 77.5t30 122q0 56 -26 107.5t-76.5 84t-119.5 32.5t-119.5 -29.5t-77.5 -81t-27 -115.5q0 -65 29.5 -116t80 -79.5t110.5 -28.5q63 0 114.5 26.5zM401 887h55l-90 -155h-45zM517 887h60l-141 -155h-46z" />
    <glyph glyph-name="ocircumflex" unicode="&#xf4;" horiz-adv-x="810" 
d="M210.5 38.5q-82.5 47.5 -128 127t-45.5 173.5q0 91 43.5 172t126.5 130.5t196 49.5q106 0 190.5 -46.5t132 -126.5t47.5 -176q0 -93 -45 -173.5t-130.5 -129t-199.5 -48.5q-105 0 -187.5 47.5zM573 75.5q74 42.5 113 113.5t39 152q0 85 -41 155.5t-114.5 111.5t-165.5 41
q-100 0 -172 -44t-109.5 -115t-37.5 -152q0 -82 39.5 -152t111 -111.5t163.5 -41.5q100 0 174 42.5zM268.5 108q-61.5 34 -98 94.5t-36.5 135.5t33 136.5t94.5 97.5t144.5 36q84 0 145.5 -40t93 -101.5t31.5 -124.5q0 -86 -37 -146.5t-99.5 -91t-138.5 -30.5
q-71 0 -132.5 34zM516.5 142.5q51.5 26.5 81.5 77.5t30 122q0 56 -26 107.5t-76.5 84t-119.5 32.5t-119.5 -29.5t-77.5 -81t-27 -115.5q0 -65 29.5 -116t80 -79.5t110.5 -28.5q63 0 114.5 26.5zM329 889h55l-111 -157h-45zM442 889h55l102 -157h-45zM413 860l110 -128h-42
l-68 74l-67 -74h-42z" />
    <glyph glyph-name="otilde" unicode="&#xf5;" horiz-adv-x="810" 
d="M210.5 38.5q-82.5 47.5 -128 127t-45.5 173.5q0 91 43.5 172t126.5 130.5t196 49.5q106 0 190.5 -46.5t132 -126.5t47.5 -176q0 -93 -45 -173.5t-130.5 -129t-199.5 -48.5q-105 0 -187.5 47.5zM573 75.5q74 42.5 113 113.5t39 152q0 85 -41 155.5t-114.5 111.5t-165.5 41
q-100 0 -172 -44t-109.5 -115t-37.5 -152q0 -82 39.5 -152t111 -111.5t163.5 -41.5q100 0 174 42.5zM268.5 108q-61.5 34 -98 94.5t-36.5 135.5t33 136.5t94.5 97.5t144.5 36q84 0 145.5 -40t93 -101.5t31.5 -124.5q0 -86 -37 -146.5t-99.5 -91t-138.5 -30.5
q-71 0 -132.5 34zM516.5 142.5q51.5 26.5 81.5 77.5t30 122q0 56 -26 107.5t-76.5 84t-119.5 32.5t-119.5 -29.5t-77.5 -81t-27 -115.5q0 -65 29.5 -116t80 -79.5t110.5 -28.5q63 0 114.5 26.5zM249.5 847.5q34.5 42.5 86.5 42.5q24 0 46 -6.5t50 -18.5q27 -12 38 -12
q14 0 21.5 9t9.5 30h42q-5 -82 -64 -82q-12 0 -28.5 5.5t-32.5 12.5q-25 10 -42 15.5t-35 5.5q-37 0 -60 -26.5t-24 -87.5h-42q0 70 34.5 112.5zM301 799q16 18 44 18q15 0 30 -4.5t40 -14.5t40 -15t30 -5q35 0 57.5 29t25.5 85h42q-1 -72 -35.5 -113.5t-84.5 -41.5
q-22 0 -42 6t-45 17q-14 6 -27 10.5t-22 4.5q-14 0 -22 -9t-9 -31h-42q4 46 20 64z" />
    <glyph glyph-name="odieresis" unicode="&#xf6;" horiz-adv-x="810" 
d="M210.5 38.5q-82.5 47.5 -128 127t-45.5 173.5q0 91 43.5 172t126.5 130.5t196 49.5q106 0 190.5 -46.5t132 -126.5t47.5 -176q0 -93 -45 -173.5t-130.5 -129t-199.5 -48.5q-105 0 -187.5 47.5zM573 75.5q74 42.5 113 113.5t39 152q0 85 -41 155.5t-114.5 111.5t-165.5 41
q-100 0 -172 -44t-109.5 -115t-37.5 -152q0 -82 39.5 -152t111 -111.5t163.5 -41.5q100 0 174 42.5zM268.5 108q-61.5 34 -98 94.5t-36.5 135.5t33 136.5t94.5 97.5t144.5 36q84 0 145.5 -40t93 -101.5t31.5 -124.5q0 -86 -37 -146.5t-99.5 -91t-138.5 -30.5
q-71 0 -132.5 34zM516.5 142.5q51.5 26.5 81.5 77.5t30 122q0 56 -26 107.5t-76.5 84t-119.5 32.5t-119.5 -29.5t-77.5 -81t-27 -115.5q0 -65 29.5 -116t80 -79.5t110.5 -28.5q63 0 114.5 26.5zM256.5 757q-26.5 26 -26.5 61q0 36 26 61.5t62 25.5t61.5 -25.5t25.5 -61.5
q0 -35 -25.5 -61t-61.5 -26q-35 0 -61.5 26zM449 757q-26 26 -26 61q0 36 26 61.5t62 25.5q35 0 60.5 -25.5t25.5 -61.5q0 -35 -25.5 -61t-60.5 -26q-36 0 -62 26zM357 779.5q17 16.5 17 38.5q0 23 -17 39.5t-40 16.5q-22 0 -38.5 -16.5t-16.5 -39.5q0 -22 16.5 -38.5
t38.5 -16.5q23 0 40 16.5zM550 779.5q16 16.5 16 38.5q0 23 -16.5 39.5t-38.5 16.5q-23 0 -40 -16.5t-17 -39.5q0 -22 17 -38.5t40 -16.5t39 16.5zM300 801q-8 8 -8 18q0 9 8 16.5t18 7.5t17 -7t7 -17q0 -11 -7 -18.5t-17 -7.5t-18 8zM492.5 800.5q-7.5 7.5 -7.5 18.5
q0 9 7.5 16.5t18.5 7.5q9 0 16.5 -7t7.5 -17q0 -11 -7 -18.5t-17 -7.5q-11 0 -18.5 7.5z" />
    <glyph glyph-name="divide" unicode="&#xf7;" horiz-adv-x="579" 
d="M224.5 477q-28.5 28 -28.5 68q0 41 28 68.5t67 27.5t68 -28t29 -68q0 -39 -28.5 -67.5t-68.5 -28.5q-38 0 -66.5 28zM336 500.5q19 18.5 19 44.5q0 27 -19 45t-45 18q-25 0 -44 -18t-19 -45q0 -26 19 -44.5t44 -18.5q26 0 45 18.5zM274.5 527.5q-7.5 7.5 -7.5 17.5
t7.5 17t16.5 7q10 0 17.5 -6.5t7.5 -17.5q0 -10 -7.5 -17.5t-17.5 -7.5q-9 0 -16.5 7.5zM53 410h472v-44h-472v44zM53 318h472v-43h-472v43zM224.5 72q-28.5 28 -28.5 67q0 41 28 69t67 28t68 -28t29 -68t-28.5 -68t-68.5 -28q-38 0 -66.5 28zM336 95q19 19 19 45
q0 27 -19 45t-45 18q-25 0 -44 -18.5t-19 -45.5q0 -26 19 -44.5t44 -18.5q26 0 45 19zM274.5 122q-7.5 7 -7.5 17q0 11 7.5 18t16.5 7q10 0 17.5 -7t7.5 -17t-7 -17.5t-18 -7.5q-9 0 -16.5 7z" />
    <glyph glyph-name="oslash" unicode="&#xf8;" horiz-adv-x="810" 
d="M88 6l65 74q-56 49 -86 116t-30 143q0 91 43.5 172t126.5 130.5t196 49.5q129 0 227 -69l66 73l30 -28l-64 -71q53 -48 82 -113.5t29 -140.5q0 -93 -45 -173.5t-130.5 -129t-199.5 -48.5q-122 0 -213 63l-67 -75zM573 75.5q74 42.5 113 113.5t39 152q0 85 -41 155.5
t-114.5 111.5t-165.5 41q-100 0 -172 -44t-109.5 -115t-37.5 -152q0 -82 39.5 -152t111 -111.5t163.5 -41.5q100 0 174 42.5zM268.5 108q-61.5 34 -98 94.5t-36.5 135.5t33 136.5t94.5 97.5t144.5 36q84 0 145.5 -40t93 -101.5t31.5 -124.5q0 -86 -37 -146.5t-99.5 -91
t-138.5 -30.5q-71 0 -132.5 34zM540 523q-54 43 -134 43q-69 0 -119.5 -29.5t-77.5 -81t-27 -115.5q0 -47 17 -87t47 -69zM516.5 142.5q51.5 26.5 81.5 77.5t30 122q0 40 -16 80t-45 70l-293 -337q58 -39 128 -39q63 0 114.5 26.5z" />
    <glyph glyph-name="ugrave" unicode="&#xf9;" horiz-adv-x="766" 
d="M149.5 68q-80.5 77 -80.5 226v388h48v-383q0 -128 66.5 -197t200.5 -69q137 0 201.5 69.5t64.5 196.5v383h48v-388q0 -145 -78.5 -224t-234.5 -79q-155 0 -235.5 77zM219.5 130q-53.5 52 -53.5 172v380h48v-378q0 -100 41 -142t130 -42q88 0 128 42t40 142v378h48v-380
q0 -116 -53.5 -170t-162.5 -54q-112 0 -165.5 52zM204 887h60l127 -155h-46zM325 887h55l80 -155h-45z" />
    <glyph glyph-name="uacute" unicode="&#xfa;" horiz-adv-x="766" 
d="M149.5 68q-80.5 77 -80.5 226v388h48v-383q0 -128 66.5 -197t200.5 -69q137 0 201.5 69.5t64.5 196.5v383h48v-388q0 -145 -78.5 -224t-234.5 -79q-155 0 -235.5 77zM219.5 130q-53.5 52 -53.5 172v380h48v-378q0 -100 41 -142t130 -42q88 0 128 42t40 142v378h48v-380
q0 -116 -53.5 -170t-162.5 -54q-112 0 -165.5 52zM372 887h55l-90 -155h-45zM488 887h60l-141 -155h-46z" />
    <glyph glyph-name="ucircumflex" unicode="&#xfb;" horiz-adv-x="766" 
d="M149.5 68q-80.5 77 -80.5 226v388h48v-383q0 -128 66.5 -197t200.5 -69q137 0 201.5 69.5t64.5 196.5v383h48v-388q0 -145 -78.5 -224t-234.5 -79q-155 0 -235.5 77zM219.5 130q-53.5 52 -53.5 172v380h48v-378q0 -100 41 -142t130 -42q88 0 128 42t40 142v378h48v-380
q0 -116 -53.5 -170t-162.5 -54q-112 0 -165.5 52zM299 889h55l-111 -157h-45zM412 889h55l102 -157h-45zM383 860l110 -128h-42l-68 74l-67 -74h-42z" />
    <glyph glyph-name="udieresis" unicode="&#xfc;" horiz-adv-x="766" 
d="M149.5 68q-80.5 77 -80.5 226v388h48v-383q0 -128 66.5 -197t200.5 -69q137 0 201.5 69.5t64.5 196.5v383h48v-388q0 -145 -78.5 -224t-234.5 -79q-155 0 -235.5 77zM219.5 130q-53.5 52 -53.5 172v380h48v-378q0 -100 41 -142t130 -42q88 0 128 42t40 142v378h48v-380
q0 -116 -53.5 -170t-162.5 -54q-112 0 -165.5 52zM224.5 757q-26.5 26 -26.5 61q0 36 26 61.5t62 25.5t61.5 -25.5t25.5 -61.5q0 -35 -25.5 -61t-61.5 -26q-35 0 -61.5 26zM417 757q-26 26 -26 61q0 36 26 61.5t62 25.5q35 0 60.5 -25.5t25.5 -61.5q0 -35 -25.5 -61
t-60.5 -26q-36 0 -62 26zM325 779.5q17 16.5 17 38.5q0 23 -17 39.5t-40 16.5q-22 0 -38.5 -16.5t-16.5 -39.5q0 -22 16.5 -38.5t38.5 -16.5q23 0 40 16.5zM518 779.5q16 16.5 16 38.5q0 23 -16.5 39.5t-38.5 16.5q-23 0 -40 -16.5t-17 -39.5q0 -22 17 -38.5t40 -16.5
t39 16.5zM268 801q-8 8 -8 18q0 9 8 16.5t18 7.5t17 -7t7 -17q0 -11 -7 -18.5t-17 -7.5t-18 8zM460.5 800.5q-7.5 7.5 -7.5 18.5q0 9 7.5 16.5t18.5 7.5q9 0 16.5 -7t7.5 -17q0 -11 -7 -18.5t-17 -7.5q-11 0 -18.5 7.5z" />
    <glyph glyph-name="yacute" unicode="&#xfd;" horiz-adv-x="664" 
d="M260 339l-257 343h52l253 -334v-348h-48v339zM115 682h52l164 -224l167 224h52l-219 -293zM356 348l252 334h53l-257 -343v-339h-48v348zM345 887h55l-90 -155h-45zM461 887h60l-141 -155h-46z" />
    <glyph glyph-name="thorn" unicode="&#xfe;" horiz-adv-x="597" 
d="M69 682h48v-682h-48v682zM166 166h131q214 0 214 176q0 85 -52.5 130.5t-152.5 45.5h-140v164h48v-122h103q115 0 178.5 -59t63.5 -160q0 -106 -66.5 -161t-190.5 -55h-88v-125h-48v166zM166 474h126q86 0 127.5 -32t41.5 -99q0 -69 -41 -101t-128 -32h-126v264zM292 252
q69 0 95 23t26 69q0 43 -27.5 65.5t-93.5 22.5h-78v-180h78z" />
    <glyph glyph-name="ydieresis" unicode="&#xff;" horiz-adv-x="664" 
d="M260 339l-257 343h52l253 -334v-348h-48v339zM115 682h52l164 -224l167 224h52l-219 -293zM356 348l252 334h53l-257 -343v-339h-48v348zM171.5 757q-26.5 26 -26.5 61q0 36 26 61.5t62 25.5t61.5 -25.5t25.5 -61.5q0 -35 -25.5 -61t-61.5 -26q-35 0 -61.5 26zM364 757
q-26 26 -26 61q0 36 26 61.5t62 25.5q35 0 60.5 -25.5t25.5 -61.5q0 -35 -25.5 -61t-60.5 -26q-36 0 -62 26zM272 779.5q17 16.5 17 38.5q0 23 -17 39.5t-40 16.5q-22 0 -38.5 -16.5t-16.5 -39.5q0 -22 16.5 -38.5t38.5 -16.5q23 0 40 16.5zM465 779.5q16 16.5 16 38.5
q0 23 -16.5 39.5t-38.5 16.5q-23 0 -40 -16.5t-17 -39.5q0 -22 17 -38.5t40 -16.5t39 16.5zM215 801q-8 8 -8 18q0 9 8 16.5t18 7.5t17 -7t7 -17q0 -11 -7 -18.5t-17 -7.5t-18 8zM407.5 800.5q-7.5 7.5 -7.5 18.5q0 9 7.5 16.5t18.5 7.5q9 0 16.5 -7t7.5 -17q0 -11 -7 -18.5
t-17 -7.5q-11 0 -18.5 7.5z" />
    <glyph glyph-name="Amacron" unicode="&#x100;" 
d="M301 685h127l310 -685h-52l-289 643h-66l-277 -643h-51zM349 592h30l145 -334h-310zM460 298l-96 222l-86 -222h182zM194 214h349l91 -214h-52l-72 173h-281l-71 -173h-52zM221 880h295v-41h-295v41zM221 806h295v-41h-295v41z" />
    <glyph glyph-name="amacron" unicode="&#x101;" 
d="M301 685h127l310 -685h-52l-289 643h-66l-277 -643h-51zM349 592h30l145 -334h-310zM460 298l-96 222l-86 -222h182zM194 214h349l91 -214h-52l-72 173h-281l-71 -173h-52zM221 880h295v-41h-295v41zM221 806h295v-41h-295v41z" />
    <glyph glyph-name="Abreve" unicode="&#x102;" 
d="M301 685h127l310 -685h-52l-289 643h-66l-277 -643h-51zM349 592h30l145 -334h-310zM460 298l-96 222l-86 -222h182zM194 214h349l91 -214h-52l-72 173h-281l-71 -173h-52zM253.5 759.5q-45.5 40.5 -56.5 116.5h41q12 -54 45.5 -85t84.5 -31q52 0 87.5 32t44.5 84h41
q-10 -72 -57 -114.5t-116 -42.5t-114.5 40.5zM310.5 818q-23.5 20 -32.5 58h40q12 -37 52 -37q21 0 32 8.5t17 28.5h40q-10 -40 -31 -59t-58 -19q-36 0 -59.5 20z" />
    <glyph glyph-name="abreve" unicode="&#x103;" 
d="M301 685h127l310 -685h-52l-289 643h-66l-277 -643h-51zM349 592h30l145 -334h-310zM460 298l-96 222l-86 -222h182zM194 214h349l91 -214h-52l-72 173h-281l-71 -173h-52zM253.5 759.5q-45.5 40.5 -56.5 116.5h41q12 -54 45.5 -85t84.5 -31q52 0 87.5 32t44.5 84h41
q-10 -72 -57 -114.5t-116 -42.5t-114.5 40.5zM310.5 818q-23.5 20 -32.5 58h40q12 -37 52 -37q21 0 32 8.5t17 28.5h40q-10 -40 -31 -59t-58 -19q-36 0 -59.5 20z" />
    <glyph glyph-name="Aogonek" unicode="&#x104;" 
d="M301 685h127l310 -685h-52l-289 643h-66l-277 -643h-51zM349 592h30l145 -334h-310zM460 298l-96 222l-86 -222h182zM194 214h349l91 -214h-52l-72 173h-281l-71 -173h-52zM595 -173.5q-32 29.5 -32 81.5q0 47 31 92h41q-32 -44 -32 -88q0 -77 93 -77q43 0 82 22v-40
q-45 -20 -92 -20q-59 0 -91 29.5zM661 -113.5q-17 17.5 -17 48.5q0 28 23 65h40q-23 -34 -23 -55q0 -38 39 -38q23 0 55 16v-37q-37 -17 -71 -17q-29 0 -46 17.5z" />
    <glyph glyph-name="aogonek" unicode="&#x105;" 
d="M301 685h127l310 -685h-52l-289 643h-66l-277 -643h-51zM349 592h30l145 -334h-310zM460 298l-96 222l-86 -222h182zM194 214h349l91 -214h-52l-72 173h-281l-71 -173h-52zM595 -173.5q-32 29.5 -32 81.5q0 47 31 92h41q-32 -44 -32 -88q0 -77 93 -77q43 0 82 22v-40
q-45 -20 -92 -20q-59 0 -91 29.5zM661 -113.5q-17 17.5 -17 48.5q0 28 23 65h40q-23 -34 -23 -55q0 -38 39 -38q23 0 55 16v-37q-37 -17 -71 -17q-29 0 -46 17.5z" />
    <glyph glyph-name="Cacute" unicode="&#x106;" horiz-adv-x="707" 
d="M204 42.5q-84 51.5 -125.5 131t-41.5 164.5q0 98 50 179t136 127.5t187 46.5q118 0 242 -56v-45q-58 27 -120 43t-119 16q-88 0 -163.5 -39t-120 -110t-44.5 -162q0 -76 38 -146.5t112 -114.5t176 -44q65 0 129 15.5t119 47.5v-44q-114 -61 -251 -61q-120 0 -204 51.5z
M267.5 112q-62.5 33 -96.5 92t-34 134t34 135t97.5 95t147.5 35q58 0 120.5 -17t115.5 -47v-44q-113 66 -233 66q-75 0 -127.5 -30t-79.5 -81t-27 -112t26.5 -110.5t78.5 -78t127 -28.5q63 0 125.5 19t116.5 53v-44q-51 -32 -118 -51t-127 -19q-84 0 -146.5 33zM388 887h55
l-90 -155h-45zM504 887h60l-141 -155h-46z" />
    <glyph glyph-name="cacute" unicode="&#x107;" horiz-adv-x="707" 
d="M204 42.5q-84 51.5 -125.5 131t-41.5 164.5q0 98 50 179t136 127.5t187 46.5q118 0 242 -56v-45q-58 27 -120 43t-119 16q-88 0 -163.5 -39t-120 -110t-44.5 -162q0 -76 38 -146.5t112 -114.5t176 -44q65 0 129 15.5t119 47.5v-44q-114 -61 -251 -61q-120 0 -204 51.5z
M267.5 112q-62.5 33 -96.5 92t-34 134t34 135t97.5 95t147.5 35q58 0 120.5 -17t115.5 -47v-44q-113 66 -233 66q-75 0 -127.5 -30t-79.5 -81t-27 -112t26.5 -110.5t78.5 -78t127 -28.5q63 0 125.5 19t116.5 53v-44q-51 -32 -118 -51t-127 -19q-84 0 -146.5 33zM388 887h55
l-90 -155h-45zM504 887h60l-141 -155h-46z" />
    <glyph glyph-name="Ccircumflex" unicode="&#x108;" horiz-adv-x="707" 
d="M204 42.5q-84 51.5 -125.5 131t-41.5 164.5q0 98 50 179t136 127.5t187 46.5q118 0 242 -56v-45q-58 27 -120 43t-119 16q-88 0 -163.5 -39t-120 -110t-44.5 -162q0 -76 38 -146.5t112 -114.5t176 -44q65 0 129 15.5t119 47.5v-44q-114 -61 -251 -61q-120 0 -204 51.5z
M267.5 112q-62.5 33 -96.5 92t-34 134t34 135t97.5 95t147.5 35q58 0 120.5 -17t115.5 -47v-44q-113 66 -233 66q-75 0 -127.5 -30t-79.5 -81t-27 -112t26.5 -110.5t78.5 -78t127 -28.5q63 0 125.5 19t116.5 53v-44q-51 -32 -118 -51t-127 -19q-84 0 -146.5 33zM336 889h55
l-111 -157h-45zM449 889h55l102 -157h-45zM420 860l110 -128h-42l-68 74l-67 -74h-42z" />
    <glyph glyph-name="ccircumflex" unicode="&#x109;" horiz-adv-x="707" 
d="M204 42.5q-84 51.5 -125.5 131t-41.5 164.5q0 98 50 179t136 127.5t187 46.5q118 0 242 -56v-45q-58 27 -120 43t-119 16q-88 0 -163.5 -39t-120 -110t-44.5 -162q0 -76 38 -146.5t112 -114.5t176 -44q65 0 129 15.5t119 47.5v-44q-114 -61 -251 -61q-120 0 -204 51.5z
M267.5 112q-62.5 33 -96.5 92t-34 134t34 135t97.5 95t147.5 35q58 0 120.5 -17t115.5 -47v-44q-113 66 -233 66q-75 0 -127.5 -30t-79.5 -81t-27 -112t26.5 -110.5t78.5 -78t127 -28.5q63 0 125.5 19t116.5 53v-44q-51 -32 -118 -51t-127 -19q-84 0 -146.5 33zM336 889h55
l-111 -157h-45zM449 889h55l102 -157h-45zM420 860l110 -128h-42l-68 74l-67 -74h-42z" />
    <glyph glyph-name="Cdotaccent" unicode="&#x10a;" horiz-adv-x="707" 
d="M204 42.5q-84 51.5 -125.5 131t-41.5 164.5q0 98 50 179t136 127.5t187 46.5q118 0 242 -56v-45q-58 27 -120 43t-119 16q-88 0 -163.5 -39t-120 -110t-44.5 -162q0 -76 38 -146.5t112 -114.5t176 -44q65 0 129 15.5t119 47.5v-44q-114 -61 -251 -61q-120 0 -204 51.5z
M267.5 112q-62.5 33 -96.5 92t-34 134t34 135t97.5 95t147.5 35q58 0 120.5 -17t115.5 -47v-44q-113 66 -233 66q-75 0 -127.5 -30t-79.5 -81t-27 -112t26.5 -110.5t78.5 -78t127 -28.5q63 0 125.5 19t116.5 53v-44q-51 -32 -118 -51t-127 -19q-84 0 -146.5 33zM353 761.5
q-26 25.5 -26 60.5q0 36 25.5 61.5t61.5 25.5t61.5 -25t25.5 -62q0 -35 -25.5 -60.5t-61.5 -25.5q-35 0 -61 25.5zM453.5 783.5q16.5 16.5 16.5 38.5q0 23 -16.5 39.5t-39.5 16.5t-39.5 -16.5t-16.5 -39.5q0 -22 16.5 -38.5t39.5 -16.5t39.5 16.5zM396 805q-8 8 -8 18
t7.5 17t18.5 7q10 0 17.5 -7t7.5 -17t-7.5 -18t-17.5 -8t-18 8z" />
    <glyph glyph-name="cdotaccent" unicode="&#x10b;" horiz-adv-x="707" 
d="M204 42.5q-84 51.5 -125.5 131t-41.5 164.5q0 98 50 179t136 127.5t187 46.5q118 0 242 -56v-45q-58 27 -120 43t-119 16q-88 0 -163.5 -39t-120 -110t-44.5 -162q0 -76 38 -146.5t112 -114.5t176 -44q65 0 129 15.5t119 47.5v-44q-114 -61 -251 -61q-120 0 -204 51.5z
M267.5 112q-62.5 33 -96.5 92t-34 134t34 135t97.5 95t147.5 35q58 0 120.5 -17t115.5 -47v-44q-113 66 -233 66q-75 0 -127.5 -30t-79.5 -81t-27 -112t26.5 -110.5t78.5 -78t127 -28.5q63 0 125.5 19t116.5 53v-44q-51 -32 -118 -51t-127 -19q-84 0 -146.5 33zM353 761.5
q-26 25.5 -26 60.5q0 36 25.5 61.5t61.5 25.5t61.5 -25t25.5 -62q0 -35 -25.5 -60.5t-61.5 -25.5q-35 0 -61 25.5zM453.5 783.5q16.5 16.5 16.5 38.5q0 23 -16.5 39.5t-39.5 16.5t-39.5 -16.5t-16.5 -39.5q0 -22 16.5 -38.5t39.5 -16.5t39.5 16.5zM396 805q-8 8 -8 18
t7.5 17t18.5 7q10 0 17.5 -7t7.5 -17t-7.5 -18t-17.5 -8t-18 8z" />
    <glyph glyph-name="Ccaron" unicode="&#x10c;" horiz-adv-x="707" 
d="M204 42.5q-84 51.5 -125.5 131t-41.5 164.5q0 98 50 179t136 127.5t187 46.5q118 0 242 -56v-45q-58 27 -120 43t-119 16q-88 0 -163.5 -39t-120 -110t-44.5 -162q0 -76 38 -146.5t112 -114.5t176 -44q65 0 129 15.5t119 47.5v-44q-114 -61 -251 -61q-120 0 -204 51.5z
M267.5 112q-62.5 33 -96.5 92t-34 134t34 135t97.5 95t147.5 35q58 0 120.5 -17t115.5 -47v-44q-113 66 -233 66q-75 0 -127.5 -30t-79.5 -81t-27 -112t26.5 -110.5t78.5 -78t127 -28.5q63 0 125.5 19t116.5 53v-44q-51 -32 -118 -51t-127 -19q-84 0 -146.5 33zM231 889h45
l112 -157h-55zM307 889h42l68 -73l67 73h42l-109 -127zM557 889h45l-101 -157h-55z" />
    <glyph glyph-name="ccaron" unicode="&#x10d;" horiz-adv-x="707" 
d="M204 42.5q-84 51.5 -125.5 131t-41.5 164.5q0 98 50 179t136 127.5t187 46.5q118 0 242 -56v-45q-58 27 -120 43t-119 16q-88 0 -163.5 -39t-120 -110t-44.5 -162q0 -76 38 -146.5t112 -114.5t176 -44q65 0 129 15.5t119 47.5v-44q-114 -61 -251 -61q-120 0 -204 51.5z
M267.5 112q-62.5 33 -96.5 92t-34 134t34 135t97.5 95t147.5 35q58 0 120.5 -17t115.5 -47v-44q-113 66 -233 66q-75 0 -127.5 -30t-79.5 -81t-27 -112t26.5 -110.5t78.5 -78t127 -28.5q63 0 125.5 19t116.5 53v-44q-51 -32 -118 -51t-127 -19q-84 0 -146.5 33zM231 889h45
l112 -157h-55zM307 889h42l68 -73l67 73h42l-109 -127zM557 889h45l-101 -157h-55z" />
    <glyph glyph-name="Dcaron" unicode="&#x10e;" horiz-adv-x="759" 
d="M69 682h279q108 0 193 -40.5t133 -116.5t48 -178q0 -103 -47 -181.5t-131.5 -122t-193.5 -43.5h-281v682zM330 42q107 0 184.5 36.5t118.5 105.5t41 163q0 87 -40.5 153t-118.5 103t-186 37h-212v-598h213zM166 596h162q144 0 219.5 -65.5t75.5 -187.5q0 -78 -35 -136.5
t-101.5 -90.5t-158.5 -32h-162v512zM332 125q117 0 180 57t63 161q0 100 -60 155.5t-183 55.5h-119v-429h119zM158 889h45l112 -157h-55zM234 889h42l68 -73l67 73h42l-109 -127zM484 889h45l-101 -157h-55z" />
    <glyph glyph-name="dcaron" unicode="&#x10f;" horiz-adv-x="759" 
d="M69 682h279q108 0 193 -40.5t133 -116.5t48 -178q0 -103 -47 -181.5t-131.5 -122t-193.5 -43.5h-281v682zM330 42q107 0 184.5 36.5t118.5 105.5t41 163q0 87 -40.5 153t-118.5 103t-186 37h-212v-598h213zM166 596h162q144 0 219.5 -65.5t75.5 -187.5q0 -78 -35 -136.5
t-101.5 -90.5t-158.5 -32h-162v512zM332 125q117 0 180 57t63 161q0 100 -60 155.5t-183 55.5h-119v-429h119zM158 889h45l112 -157h-55zM234 889h42l68 -73l67 73h42l-109 -127zM484 889h45l-101 -157h-55z" />
    <glyph glyph-name="Dcroat" unicode="&#x110;" horiz-adv-x="761" 
d="M71 317h-70v44h70v321h279q108 0 193 -40.5t133 -116.5t48 -178q0 -103 -47 -181.5t-131.5 -122t-193.5 -43.5h-281v317zM332 42q107 0 184.5 36.5t118.5 105.5t41 163q0 87 -40.5 153t-118.5 103t-186 37h-212v-598h213zM168 596h162q144 0 219.5 -65.5t75.5 -187.5
q0 -78 -35 -136.5t-101.5 -90.5t-158.5 -32h-162v512zM334 125q117 0 180 57t63 161q0 100 -60 155.5t-183 55.5h-119v-193h167v-44h-167v-192h119z" />
    <glyph glyph-name="dcroat" unicode="&#x111;" horiz-adv-x="761" 
d="M71 317h-70v44h70v321h279q108 0 193 -40.5t133 -116.5t48 -178q0 -103 -47 -181.5t-131.5 -122t-193.5 -43.5h-281v317zM332 42q107 0 184.5 36.5t118.5 105.5t41 163q0 87 -40.5 153t-118.5 103t-186 37h-212v-598h213zM168 596h162q144 0 219.5 -65.5t75.5 -187.5
q0 -78 -35 -136.5t-101.5 -90.5t-158.5 -32h-162v512zM334 125q117 0 180 57t63 161q0 100 -60 155.5t-183 55.5h-119v-193h167v-44h-167v-192h119z" />
    <glyph glyph-name="Emacron" unicode="&#x112;" horiz-adv-x="571" 
d="M69 682h426v-42h-378v-598h385v-42h-433v682zM166 596h329v-43h-282v-145h268v-42h-315v230zM166 322h315v-42h-268v-152h289v-42h-336v236zM134 880h295v-41h-295v41zM134 806h295v-41h-295v41z" />
    <glyph glyph-name="emacron" unicode="&#x113;" horiz-adv-x="571" 
d="M69 682h426v-42h-378v-598h385v-42h-433v682zM166 596h329v-43h-282v-145h268v-42h-315v230zM166 322h315v-42h-268v-152h289v-42h-336v236zM134 880h295v-41h-295v41zM134 806h295v-41h-295v41z" />
    <glyph glyph-name="Ebreve" unicode="&#x114;" horiz-adv-x="571" 
d="M69 682h426v-42h-378v-598h385v-42h-433v682zM166 596h329v-43h-282v-145h268v-42h-315v230zM166 322h315v-42h-268v-152h289v-42h-336v236zM169.5 759.5q-45.5 40.5 -56.5 116.5h41q12 -54 45.5 -85t84.5 -31q52 0 87.5 32t44.5 84h41q-10 -72 -57 -114.5t-116 -42.5
t-114.5 40.5zM226.5 818q-23.5 20 -32.5 58h40q12 -37 52 -37q21 0 32 8.5t17 28.5h40q-10 -40 -31 -59t-58 -19q-36 0 -59.5 20z" />
    <glyph glyph-name="ebreve" unicode="&#x115;" horiz-adv-x="571" 
d="M69 682h426v-42h-378v-598h385v-42h-433v682zM166 596h329v-43h-282v-145h268v-42h-315v230zM166 322h315v-42h-268v-152h289v-42h-336v236zM169.5 759.5q-45.5 40.5 -56.5 116.5h41q12 -54 45.5 -85t84.5 -31q52 0 87.5 32t44.5 84h41q-10 -72 -57 -114.5t-116 -42.5
t-114.5 40.5zM226.5 818q-23.5 20 -32.5 58h40q12 -37 52 -37q21 0 32 8.5t17 28.5h40q-10 -40 -31 -59t-58 -19q-36 0 -59.5 20z" />
    <glyph glyph-name="Edotaccent" unicode="&#x116;" horiz-adv-x="571" 
d="M69 682h426v-42h-378v-598h385v-42h-433v682zM166 596h329v-43h-282v-145h268v-42h-315v230zM166 322h315v-42h-268v-152h289v-42h-336v236zM220 761.5q-26 25.5 -26 60.5q0 36 25.5 61.5t61.5 25.5t61.5 -25t25.5 -62q0 -35 -25.5 -60.5t-61.5 -25.5q-35 0 -61 25.5z
M320.5 783.5q16.5 16.5 16.5 38.5q0 23 -16.5 39.5t-39.5 16.5t-39.5 -16.5t-16.5 -39.5q0 -22 16.5 -38.5t39.5 -16.5t39.5 16.5zM263 805q-8 8 -8 18t7.5 17t18.5 7q10 0 17.5 -7t7.5 -17t-7.5 -18t-17.5 -8t-18 8z" />
    <glyph glyph-name="edotaccent" unicode="&#x117;" horiz-adv-x="571" 
d="M69 682h426v-42h-378v-598h385v-42h-433v682zM166 596h329v-43h-282v-145h268v-42h-315v230zM166 322h315v-42h-268v-152h289v-42h-336v236zM220 761.5q-26 25.5 -26 60.5q0 36 25.5 61.5t61.5 25.5t61.5 -25t25.5 -62q0 -35 -25.5 -60.5t-61.5 -25.5q-35 0 -61 25.5z
M320.5 783.5q16.5 16.5 16.5 38.5q0 23 -16.5 39.5t-39.5 16.5t-39.5 -16.5t-16.5 -39.5q0 -22 16.5 -38.5t39.5 -16.5t39.5 16.5zM263 805q-8 8 -8 18t7.5 17t18.5 7q10 0 17.5 -7t7.5 -17t-7.5 -18t-17.5 -8t-18 8z" />
    <glyph glyph-name="Eogonek" unicode="&#x118;" horiz-adv-x="571" 
d="M69 682h426v-42h-378v-598h385v-42h-433v682zM166 596h329v-43h-282v-145h268v-42h-315v230zM166 322h315v-42h-268v-152h289v-42h-336v236zM319 -173.5q-32 29.5 -32 81.5q0 47 31 92h41q-32 -44 -32 -88q0 -77 93 -77q43 0 82 22v-40q-45 -20 -92 -20q-59 0 -91 29.5z
M385 -113.5q-17 17.5 -17 48.5q0 28 23 65h40q-23 -34 -23 -55q0 -38 39 -38q23 0 55 16v-37q-37 -17 -71 -17q-29 0 -46 17.5z" />
    <glyph glyph-name="eogonek" unicode="&#x119;" horiz-adv-x="571" 
d="M69 682h426v-42h-378v-598h385v-42h-433v682zM166 596h329v-43h-282v-145h268v-42h-315v230zM166 322h315v-42h-268v-152h289v-42h-336v236zM319 -173.5q-32 29.5 -32 81.5q0 47 31 92h41q-32 -44 -32 -88q0 -77 93 -77q43 0 82 22v-40q-45 -20 -92 -20q-59 0 -91 29.5z
M385 -113.5q-17 17.5 -17 48.5q0 28 23 65h40q-23 -34 -23 -55q0 -38 39 -38q23 0 55 16v-37q-37 -17 -71 -17q-29 0 -46 17.5z" />
    <glyph glyph-name="Ecaron" unicode="&#x11a;" horiz-adv-x="571" 
d="M69 682h426v-42h-378v-598h385v-42h-433v682zM166 596h329v-43h-282v-145h268v-42h-315v230zM166 322h315v-42h-268v-152h289v-42h-336v236zM99 889h45l112 -157h-55zM175 889h42l68 -73l67 73h42l-109 -127zM425 889h45l-101 -157h-55z" />
    <glyph glyph-name="ecaron" unicode="&#x11b;" horiz-adv-x="571" 
d="M69 682h426v-42h-378v-598h385v-42h-433v682zM166 596h329v-43h-282v-145h268v-42h-315v230zM166 322h315v-42h-268v-152h289v-42h-336v236zM99 889h45l112 -157h-55zM175 889h42l68 -73l67 73h42l-109 -127zM425 889h45l-101 -157h-55z" />
    <glyph glyph-name="Gcircumflex" unicode="&#x11c;" horiz-adv-x="742" 
d="M205 41q-84 50 -126 129.5t-42 167.5q0 100 50 181t137 126.5t193 45.5q124 0 242 -53v-45q-56 26 -118.5 41t-121.5 15q-94 0 -170.5 -39t-120 -109.5t-43.5 -162.5q0 -81 38.5 -151t112.5 -112t175 -42q124 0 217 36v252h-203v42h248v-322q-104 -50 -265 -50
q-119 0 -203 50zM267.5 111q-62.5 32 -96.5 91t-34 136q0 76 34.5 136.5t99 94.5t151.5 34q58 0 120 -16t117 -44v-45q-56 30 -117 46.5t-120 16.5q-77 0 -130.5 -30t-80 -80.5t-26.5 -112.5q0 -97 59 -158t170 -61q62 0 119 17v101h-108v40h154v-172q-75 -26 -165 -26
q-84 0 -146.5 32zM312 889h55l-111 -157h-45zM425 889h55l102 -157h-45zM396 860l110 -128h-42l-68 74l-67 -74h-42z" />
    <glyph glyph-name="gcircumflex" unicode="&#x11d;" horiz-adv-x="742" 
d="M205 41q-84 50 -126 129.5t-42 167.5q0 100 50 181t137 126.5t193 45.5q124 0 242 -53v-45q-56 26 -118.5 41t-121.5 15q-94 0 -170.5 -39t-120 -109.5t-43.5 -162.5q0 -81 38.5 -151t112.5 -112t175 -42q124 0 217 36v252h-203v42h248v-322q-104 -50 -265 -50
q-119 0 -203 50zM267.5 111q-62.5 32 -96.5 91t-34 136q0 76 34.5 136.5t99 94.5t151.5 34q58 0 120 -16t117 -44v-45q-56 30 -117 46.5t-120 16.5q-77 0 -130.5 -30t-80 -80.5t-26.5 -112.5q0 -97 59 -158t170 -61q62 0 119 17v101h-108v40h154v-172q-75 -26 -165 -26
q-84 0 -146.5 32zM312 889h55l-111 -157h-45zM425 889h55l102 -157h-45zM396 860l110 -128h-42l-68 74l-67 -74h-42z" />
    <glyph glyph-name="Gbreve" unicode="&#x11e;" horiz-adv-x="742" 
d="M205 41q-84 50 -126 129.5t-42 167.5q0 100 50 181t137 126.5t193 45.5q124 0 242 -53v-45q-56 26 -118.5 41t-121.5 15q-94 0 -170.5 -39t-120 -109.5t-43.5 -162.5q0 -81 38.5 -151t112.5 -112t175 -42q124 0 217 36v252h-203v42h248v-322q-104 -50 -265 -50
q-119 0 -203 50zM267.5 111q-62.5 32 -96.5 91t-34 136q0 76 34.5 136.5t99 94.5t151.5 34q58 0 120 -16t117 -44v-45q-56 30 -117 46.5t-120 16.5q-77 0 -130.5 -30t-80 -80.5t-26.5 -112.5q0 -97 59 -158t170 -61q62 0 119 17v101h-108v40h154v-172q-75 -26 -165 -26
q-84 0 -146.5 32zM287.5 759.5q-45.5 40.5 -56.5 116.5h41q12 -54 45.5 -85t84.5 -31q52 0 87.5 32t44.5 84h41q-10 -72 -57 -114.5t-116 -42.5t-114.5 40.5zM344.5 818q-23.5 20 -32.5 58h40q12 -37 52 -37q21 0 32 8.5t17 28.5h40q-10 -40 -31 -59t-58 -19q-36 0 -59.5 20
z" />
    <glyph glyph-name="gbreve" unicode="&#x11f;" horiz-adv-x="742" 
d="M205 41q-84 50 -126 129.5t-42 167.5q0 100 50 181t137 126.5t193 45.5q124 0 242 -53v-45q-56 26 -118.5 41t-121.5 15q-94 0 -170.5 -39t-120 -109.5t-43.5 -162.5q0 -81 38.5 -151t112.5 -112t175 -42q124 0 217 36v252h-203v42h248v-322q-104 -50 -265 -50
q-119 0 -203 50zM267.5 111q-62.5 32 -96.5 91t-34 136q0 76 34.5 136.5t99 94.5t151.5 34q58 0 120 -16t117 -44v-45q-56 30 -117 46.5t-120 16.5q-77 0 -130.5 -30t-80 -80.5t-26.5 -112.5q0 -97 59 -158t170 -61q62 0 119 17v101h-108v40h154v-172q-75 -26 -165 -26
q-84 0 -146.5 32zM287.5 759.5q-45.5 40.5 -56.5 116.5h41q12 -54 45.5 -85t84.5 -31q52 0 87.5 32t44.5 84h41q-10 -72 -57 -114.5t-116 -42.5t-114.5 40.5zM344.5 818q-23.5 20 -32.5 58h40q12 -37 52 -37q21 0 32 8.5t17 28.5h40q-10 -40 -31 -59t-58 -19q-36 0 -59.5 20
z" />
    <glyph glyph-name="Gdotaccent" unicode="&#x120;" horiz-adv-x="742" 
d="M205 41q-84 50 -126 129.5t-42 167.5q0 100 50 181t137 126.5t193 45.5q124 0 242 -53v-45q-56 26 -118.5 41t-121.5 15q-94 0 -170.5 -39t-120 -109.5t-43.5 -162.5q0 -81 38.5 -151t112.5 -112t175 -42q124 0 217 36v252h-203v42h248v-322q-104 -50 -265 -50
q-119 0 -203 50zM267.5 111q-62.5 32 -96.5 91t-34 136q0 76 34.5 136.5t99 94.5t151.5 34q58 0 120 -16t117 -44v-45q-56 30 -117 46.5t-120 16.5q-77 0 -130.5 -30t-80 -80.5t-26.5 -112.5q0 -97 59 -158t170 -61q62 0 119 17v101h-108v40h154v-172q-75 -26 -165 -26
q-84 0 -146.5 32zM354 761.5q-26 25.5 -26 60.5q0 36 25.5 61.5t61.5 25.5t61.5 -25t25.5 -62q0 -35 -25.5 -60.5t-61.5 -25.5q-35 0 -61 25.5zM454.5 783.5q16.5 16.5 16.5 38.5q0 23 -16.5 39.5t-39.5 16.5t-39.5 -16.5t-16.5 -39.5q0 -22 16.5 -38.5t39.5 -16.5
t39.5 16.5zM397 805q-8 8 -8 18t7.5 17t18.5 7q10 0 17.5 -7t7.5 -17t-7.5 -18t-17.5 -8t-18 8z" />
    <glyph glyph-name="gdotaccent" unicode="&#x121;" horiz-adv-x="742" 
d="M205 41q-84 50 -126 129.5t-42 167.5q0 100 50 181t137 126.5t193 45.5q124 0 242 -53v-45q-56 26 -118.5 41t-121.5 15q-94 0 -170.5 -39t-120 -109.5t-43.5 -162.5q0 -81 38.5 -151t112.5 -112t175 -42q124 0 217 36v252h-203v42h248v-322q-104 -50 -265 -50
q-119 0 -203 50zM267.5 111q-62.5 32 -96.5 91t-34 136q0 76 34.5 136.5t99 94.5t151.5 34q58 0 120 -16t117 -44v-45q-56 30 -117 46.5t-120 16.5q-77 0 -130.5 -30t-80 -80.5t-26.5 -112.5q0 -97 59 -158t170 -61q62 0 119 17v101h-108v40h154v-172q-75 -26 -165 -26
q-84 0 -146.5 32zM354 761.5q-26 25.5 -26 60.5q0 36 25.5 61.5t61.5 25.5t61.5 -25t25.5 -62q0 -35 -25.5 -60.5t-61.5 -25.5q-35 0 -61 25.5zM454.5 783.5q16.5 16.5 16.5 38.5q0 23 -16.5 39.5t-39.5 16.5t-39.5 -16.5t-16.5 -39.5q0 -22 16.5 -38.5t39.5 -16.5
t39.5 16.5zM397 805q-8 8 -8 18t7.5 17t18.5 7q10 0 17.5 -7t7.5 -17t-7.5 -18t-17.5 -8t-18 8z" />
    <glyph glyph-name="Gcommaaccent" unicode="&#x122;" horiz-adv-x="742" 
d="M205 41q-84 50 -126 129.5t-42 167.5q0 100 50 181t137 126.5t193 45.5q124 0 242 -53v-45q-56 26 -118.5 41t-121.5 15q-94 0 -170.5 -39t-120 -109.5t-43.5 -162.5q0 -81 38.5 -151t112.5 -112t175 -42q124 0 217 36v252h-203v42h248v-322q-104 -50 -265 -50
q-119 0 -203 50zM267.5 111q-62.5 32 -96.5 91t-34 136q0 76 34.5 136.5t99 94.5t151.5 34q58 0 120 -16t117 -44v-45q-56 30 -117 46.5t-120 16.5q-77 0 -130.5 -30t-80 -80.5t-26.5 -112.5q0 -97 59 -158t170 -61q62 0 119 17v101h-108v40h154v-172q-75 -26 -165 -26
q-84 0 -146.5 32zM330 -250q28 16 38 33.5t10 42.5q-79 8 -79 68q0 31 24 53t62 22q45 0 70.5 -25t25.5 -70q0 -56 -41 -89t-110 -38v3zM448 -126q0 37 -16 52t-47 15q-26 0 -39.5 -13.5t-13.5 -33.5q0 -22 16 -33t58 -13q0 -35 -11 -61q53 30 53 87zM377 -123q-9 3 -9 17
q0 8 5.5 14.5t13.5 6.5t13.5 -6.5t5.5 -16.5v-19q-20 1 -29 4z" />
    <glyph glyph-name="gcommaaccent" unicode="&#x123;" horiz-adv-x="742" 
d="M205 41q-84 50 -126 129.5t-42 167.5q0 100 50 181t137 126.5t193 45.5q124 0 242 -53v-45q-56 26 -118.5 41t-121.5 15q-94 0 -170.5 -39t-120 -109.5t-43.5 -162.5q0 -81 38.5 -151t112.5 -112t175 -42q124 0 217 36v252h-203v42h248v-322q-104 -50 -265 -50
q-119 0 -203 50zM267.5 111q-62.5 32 -96.5 91t-34 136q0 76 34.5 136.5t99 94.5t151.5 34q58 0 120 -16t117 -44v-45q-56 30 -117 46.5t-120 16.5q-77 0 -130.5 -30t-80 -80.5t-26.5 -112.5q0 -97 59 -158t170 -61q62 0 119 17v101h-108v40h154v-172q-75 -26 -165 -26
q-84 0 -146.5 32zM330 -250q28 16 38 33.5t10 42.5q-79 8 -79 68q0 31 24 53t62 22q45 0 70.5 -25t25.5 -70q0 -56 -41 -89t-110 -38v3zM448 -126q0 37 -16 52t-47 15q-26 0 -39.5 -13.5t-13.5 -33.5q0 -22 16 -33t58 -13q0 -35 -11 -61q53 30 53 87zM377 -123q-9 3 -9 17
q0 8 5.5 14.5t13.5 6.5t13.5 -6.5t5.5 -16.5v-19q-20 1 -29 4z" />
    <glyph glyph-name="Hcircumflex" unicode="&#x124;" horiz-adv-x="766" 
d="M69 682h48v-682h-48v682zM164 682h48v-272h342v272h48v-314h-438v314zM649 682h48v-682h-48v682zM164 322h438v-322h-48v280h-342v-280h-48v322zM304 889h55l-111 -157h-45zM417 889h55l102 -157h-45zM388 860l110 -128h-42l-68 74l-67 -74h-42z" />
    <glyph glyph-name="hcircumflex" unicode="&#x125;" horiz-adv-x="766" 
d="M69 682h48v-682h-48v682zM164 682h48v-272h342v272h48v-314h-438v314zM649 682h48v-682h-48v682zM164 322h438v-322h-48v280h-342v-280h-48v322zM304 889h55l-111 -157h-45zM417 889h55l102 -157h-45zM388 860l110 -128h-42l-68 74l-67 -74h-42z" />
    <glyph glyph-name="Hbar" unicode="&#x126;" horiz-adv-x="900" 
d="M136 520h-67v43h67v119h48v-682h-48v520zM231 682h48v-119h342v119h48v-314h-438v314zM716 682h48v-119h67v-43h-67v-520h-48v682zM621 410v110h-342v-110h342zM231 322h438v-322h-48v280h-342v-280h-48v322z" />
    <glyph glyph-name="hbar" unicode="&#x127;" horiz-adv-x="900" 
d="M136 520h-67v43h67v119h48v-682h-48v520zM231 682h48v-119h342v119h48v-314h-438v314zM716 682h48v-119h67v-43h-67v-520h-48v682zM621 410v110h-342v-110h342zM231 322h438v-322h-48v280h-342v-280h-48v322z" />
    <glyph glyph-name="Itilde" unicode="&#x128;" horiz-adv-x="302" 
d="M79 682h48v-682h-48v682zM175 682h48v-682h-48v682zM-9.5 847.5q34.5 42.5 86.5 42.5q24 0 46 -6.5t50 -18.5q27 -12 38 -12q14 0 21.5 9t9.5 30h42q-5 -82 -64 -82q-12 0 -28.5 5.5t-32.5 12.5q-25 10 -42 15.5t-35 5.5q-37 0 -60 -26.5t-24 -87.5h-42q0 70 34.5 112.5z
M42 799q16 18 44 18q15 0 30 -4.5t40 -14.5t40 -15t30 -5q35 0 57.5 29t25.5 85h42q-1 -72 -35.5 -113.5t-84.5 -41.5q-22 0 -42 6t-45 17q-14 6 -27 10.5t-22 4.5q-14 0 -22 -9t-9 -31h-42q4 46 20 64z" />
    <glyph glyph-name="itilde" unicode="&#x129;" horiz-adv-x="302" 
d="M79 682h48v-682h-48v682zM175 682h48v-682h-48v682zM-9.5 847.5q34.5 42.5 86.5 42.5q24 0 46 -6.5t50 -18.5q27 -12 38 -12q14 0 21.5 9t9.5 30h42q-5 -82 -64 -82q-12 0 -28.5 5.5t-32.5 12.5q-25 10 -42 15.5t-35 5.5q-37 0 -60 -26.5t-24 -87.5h-42q0 70 34.5 112.5z
M42 799q16 18 44 18q15 0 30 -4.5t40 -14.5t40 -15t30 -5q35 0 57.5 29t25.5 85h42q-1 -72 -35.5 -113.5t-84.5 -41.5q-22 0 -42 6t-45 17q-14 6 -27 10.5t-22 4.5q-14 0 -22 -9t-9 -31h-42q4 46 20 64z" />
    <glyph glyph-name="Imacron" unicode="&#x12a;" horiz-adv-x="302" 
d="M79 682h48v-682h-48v682zM175 682h48v-682h-48v682zM11 880h295v-41h-295v41zM11 806h295v-41h-295v41z" />
    <glyph glyph-name="imacron" unicode="&#x12b;" horiz-adv-x="302" 
d="M79 682h48v-682h-48v682zM175 682h48v-682h-48v682zM11 880h295v-41h-295v41zM11 806h295v-41h-295v41z" />
    <glyph glyph-name="Ibreve" unicode="&#x12c;" horiz-adv-x="302" 
d="M79 682h48v-682h-48v682zM175 682h48v-682h-48v682zM34.5 759.5q-45.5 40.5 -56.5 116.5h41q12 -54 45.5 -85t84.5 -31q52 0 87.5 32t44.5 84h41q-10 -72 -57 -114.5t-116 -42.5t-114.5 40.5zM91.5 818q-23.5 20 -32.5 58h40q12 -37 52 -37q21 0 32 8.5t17 28.5h40
q-10 -40 -31 -59t-58 -19q-36 0 -59.5 20z" />
    <glyph glyph-name="ibreve" unicode="&#x12d;" horiz-adv-x="302" 
d="M79 682h48v-682h-48v682zM175 682h48v-682h-48v682zM34.5 759.5q-45.5 40.5 -56.5 116.5h41q12 -54 45.5 -85t84.5 -31q52 0 87.5 32t44.5 84h41q-10 -72 -57 -114.5t-116 -42.5t-114.5 40.5zM91.5 818q-23.5 20 -32.5 58h40q12 -37 52 -37q21 0 32 8.5t17 28.5h40
q-10 -40 -31 -59t-58 -19q-36 0 -59.5 20z" />
    <glyph glyph-name="Iogonek" unicode="&#x12e;" horiz-adv-x="302" 
d="M79 682h48v-682h-48v682zM175 682h48v-682h-48v682zM79 -173.5q-32 29.5 -32 81.5q0 47 31 92h41q-32 -44 -32 -88q0 -77 93 -77q43 0 82 22v-40q-45 -20 -92 -20q-59 0 -91 29.5zM145 -113.5q-17 17.5 -17 48.5q0 28 23 65h40q-23 -34 -23 -55q0 -38 39 -38q23 0 55 16
v-37q-37 -17 -71 -17q-29 0 -46 17.5z" />
    <glyph glyph-name="iogonek" unicode="&#x12f;" horiz-adv-x="302" 
d="M79 682h48v-682h-48v682zM175 682h48v-682h-48v682zM79 -173.5q-32 29.5 -32 81.5q0 47 31 92h41q-32 -44 -32 -88q0 -77 93 -77q43 0 82 22v-40q-45 -20 -92 -20q-59 0 -91 29.5zM145 -113.5q-17 17.5 -17 48.5q0 28 23 65h40q-23 -34 -23 -55q0 -38 39 -38q23 0 55 16
v-37q-37 -17 -71 -17q-29 0 -46 17.5z" />
    <glyph glyph-name="Idotaccent" unicode="&#x130;" horiz-adv-x="302" 
d="M79 682h48v-682h-48v682zM175 682h48v-682h-48v682zM91 761.5q-26 25.5 -26 60.5q0 36 25.5 61.5t61.5 25.5t61.5 -25t25.5 -62q0 -35 -25.5 -60.5t-61.5 -25.5q-35 0 -61 25.5zM191.5 783.5q16.5 16.5 16.5 38.5q0 23 -16.5 39.5t-39.5 16.5t-39.5 -16.5t-16.5 -39.5
q0 -22 16.5 -38.5t39.5 -16.5t39.5 16.5zM134 805q-8 8 -8 18t7.5 17t18.5 7q10 0 17.5 -7t7.5 -17t-7.5 -18t-17.5 -8t-18 8z" />
    <glyph glyph-name="dotlessi" unicode="&#x131;" horiz-adv-x="302" 
d="M79 682h48v-682h-48v682zM175 682h48v-682h-48v682z" />
    <glyph glyph-name="IJ" unicode="&#x132;" horiz-adv-x="631" 
d="M79 682h48v-682h-48v682zM175 682h48v-682h-48v682zM271 -101q63 0 90.5 9t37 34.5t9.5 84.5v655h48v-657q0 -69 -14 -104t-50 -49.5t-107 -14.5zM297 -188q78 2 122 19t65 61t21 127v663h47v-666q0 -81 -20.5 -133.5t-73 -82t-147.5 -30.5z" />
    <glyph glyph-name="ij" unicode="&#x133;" horiz-adv-x="631" 
d="M79 682h48v-682h-48v682zM175 682h48v-682h-48v682zM271 -101q63 0 90.5 9t37 34.5t9.5 84.5v655h48v-657q0 -69 -14 -104t-50 -49.5t-107 -14.5zM297 -188q78 2 122 19t65 61t21 127v663h47v-666q0 -81 -20.5 -133.5t-73 -82t-147.5 -30.5z" />
    <glyph glyph-name="Jcircumflex" unicode="&#x134;" horiz-adv-x="329" 
d="M-31 -101q63 0 90.5 9t37 34.5t9.5 84.5v655h48v-657q0 -69 -14 -104t-50 -49.5t-107 -14.5zM-5 -188q78 2 122 19t65 61t21 127v663h47v-666q0 -81 -20.5 -133.5t-73 -82t-147.5 -30.5zM95 889h55l-111 -157h-45zM208 889h55l102 -157h-45zM179 860l110 -128h-42l-68 74
l-67 -74h-42z" />
    <glyph glyph-name="jcircumflex" unicode="&#x135;" horiz-adv-x="329" 
d="M-31 -101q63 0 90.5 9t37 34.5t9.5 84.5v655h48v-657q0 -69 -14 -104t-50 -49.5t-107 -14.5zM-5 -188q78 2 122 19t65 61t21 127v663h47v-666q0 -81 -20.5 -133.5t-73 -82t-147.5 -30.5zM95 889h55l-111 -157h-45zM208 889h55l102 -157h-45zM179 860l110 -128h-42l-68 74
l-67 -74h-42z" />
    <glyph glyph-name="Kcommaaccent" unicode="&#x136;" horiz-adv-x="700" 
d="M69 682h48v-682h-48v682zM166 682h48v-308l268 308h56l-282 -328l324 -354h-60l-306 332v-332h-48v682zM312 358l293 324h56l-291 -323l337 -359h-61zM292 -250q28 16 38 33.5t10 42.5q-79 8 -79 68q0 31 24 53t62 22q45 0 70.5 -25t25.5 -70q0 -56 -41 -89t-110 -38v3z
M410 -126q0 37 -16 52t-47 15q-26 0 -39.5 -13.5t-13.5 -33.5q0 -22 16 -33t58 -13q0 -35 -11 -61q53 30 53 87zM339 -123q-9 3 -9 17q0 8 5.5 14.5t13.5 6.5t13.5 -6.5t5.5 -16.5v-19q-20 1 -29 4z" />
    <glyph glyph-name="kcommaaccent" unicode="&#x137;" horiz-adv-x="700" 
d="M69 682h48v-682h-48v682zM166 682h48v-308l268 308h56l-282 -328l324 -354h-60l-306 332v-332h-48v682zM312 358l293 324h56l-291 -323l337 -359h-61zM292 -250q28 16 38 33.5t10 42.5q-79 8 -79 68q0 31 24 53t62 22q45 0 70.5 -25t25.5 -70q0 -56 -41 -89t-110 -38v3z
M410 -126q0 37 -16 52t-47 15q-26 0 -39.5 -13.5t-13.5 -33.5q0 -22 16 -33t58 -13q0 -35 -11 -61q53 30 53 87zM339 -123q-9 3 -9 17q0 8 5.5 14.5t13.5 6.5t13.5 -6.5t5.5 -16.5v-19q-20 1 -29 4z" />
    <glyph glyph-name="kgreenlandic" unicode="&#x138;" horiz-adv-x="700" 
d="M69 682h48v-682h-48v682zM166 682h48v-308l268 308h56l-282 -328l324 -354h-60l-306 332v-332h-48v682zM312 358l293 324h56l-291 -323l337 -359h-61z" />
    <glyph glyph-name="Lacute" unicode="&#x139;" horiz-adv-x="527" 
d="M69 682h48v-640h390v-42h-438v682zM166 682h47v-553h294v-42h-341v595zM165 887h55l-90 -155h-45zM281 887h60l-141 -155h-46z" />
    <glyph glyph-name="lacute" unicode="&#x13a;" horiz-adv-x="527" 
d="M69 682h48v-640h390v-42h-438v682zM166 682h47v-553h294v-42h-341v595zM165 887h55l-90 -155h-45zM281 887h60l-141 -155h-46z" />
    <glyph glyph-name="Lcommaaccent" unicode="&#x13b;" horiz-adv-x="527" 
d="M69 682h48v-640h390v-42h-438v682zM166 682h47v-553h294v-42h-341v595zM221 -250q28 16 38 33.5t10 42.5q-79 8 -79 68q0 31 24 53t62 22q45 0 70.5 -25t25.5 -70q0 -56 -41 -89t-110 -38v3zM339 -126q0 37 -16 52t-47 15q-26 0 -39.5 -13.5t-13.5 -33.5q0 -22 16 -33
t58 -13q0 -35 -11 -61q53 30 53 87zM268 -123q-9 3 -9 17q0 8 5.5 14.5t13.5 6.5t13.5 -6.5t5.5 -16.5v-19q-20 1 -29 4z" />
    <glyph glyph-name="lcommaaccent" unicode="&#x13c;" horiz-adv-x="527" 
d="M69 682h48v-640h390v-42h-438v682zM166 682h47v-553h294v-42h-341v595zM221 -250q28 16 38 33.5t10 42.5q-79 8 -79 68q0 31 24 53t62 22q45 0 70.5 -25t25.5 -70q0 -56 -41 -89t-110 -38v3zM339 -126q0 37 -16 52t-47 15q-26 0 -39.5 -13.5t-13.5 -33.5q0 -22 16 -33
t58 -13q0 -35 -11 -61q53 30 53 87zM268 -123q-9 3 -9 17q0 8 5.5 14.5t13.5 6.5t13.5 -6.5t5.5 -16.5v-19q-20 1 -29 4z" />
    <glyph glyph-name="Lcaron" unicode="&#x13d;" horiz-adv-x="527" 
d="M69 682h48v-640h390v-42h-438v682zM166 682h47v-553h294v-42h-341v595zM309 397q28 20 45 52t20 71q-39 7 -58.5 29t-19.5 55q0 36 26.5 62t67.5 26q48 0 77.5 -34t29.5 -87q0 -72 -52 -123t-136 -63v12zM442 499q19 34 19 72q0 41 -19.5 63.5t-51.5 22.5
q-28 0 -43 -15.5t-15 -37.5q0 -26 18 -40.5t61 -16.5q0 -29 -6 -55t-22 -54q40 27 59 61zM373 603q0 9 6 15t13 6q18 0 18 -26v-20q-37 0 -37 25z" />
    <glyph glyph-name="lcaron" unicode="&#x13e;" horiz-adv-x="527" 
d="M69 682h48v-640h390v-42h-438v682zM166 682h47v-553h294v-42h-341v595zM309 397q28 20 45 52t20 71q-39 7 -58.5 29t-19.5 55q0 36 26.5 62t67.5 26q48 0 77.5 -34t29.5 -87q0 -72 -52 -123t-136 -63v12zM442 499q19 34 19 72q0 41 -19.5 63.5t-51.5 22.5
q-28 0 -43 -15.5t-15 -37.5q0 -26 18 -40.5t61 -16.5q0 -29 -6 -55t-22 -54q40 27 59 61zM373 603q0 9 6 15t13 6q18 0 18 -26v-20q-37 0 -37 25z" />
    <glyph glyph-name="Ldot" unicode="&#x13f;" horiz-adv-x="527" 
d="M69 682h48v-640h390v-42h-438v682zM166 682h47v-553h294v-42h-341v595zM339 313.5q-26 25.5 -26 60.5q0 36 25.5 61.5t61.5 25.5t61.5 -25t25.5 -62q0 -35 -25.5 -60.5t-61.5 -25.5q-35 0 -61 25.5zM439.5 335.5q16.5 16.5 16.5 38.5q0 23 -16.5 39.5t-39.5 16.5
t-39.5 -16.5t-16.5 -39.5q0 -22 16.5 -38.5t39.5 -16.5t39.5 16.5zM382 357q-8 8 -8 18t7.5 17t18.5 7q10 0 17.5 -7t7.5 -17t-7.5 -18t-17.5 -8t-18 8z" />
    <glyph glyph-name="ldot" unicode="&#x140;" horiz-adv-x="527" 
d="M69 682h48v-640h390v-42h-438v682zM166 682h47v-553h294v-42h-341v595zM339 313.5q-26 25.5 -26 60.5q0 36 25.5 61.5t61.5 25.5t61.5 -25t25.5 -62q0 -35 -25.5 -60.5t-61.5 -25.5q-35 0 -61 25.5zM439.5 335.5q16.5 16.5 16.5 38.5q0 23 -16.5 39.5t-39.5 16.5
t-39.5 -16.5t-16.5 -39.5q0 -22 16.5 -38.5t39.5 -16.5t39.5 16.5zM382 357q-8 8 -8 18t7.5 17t18.5 7q10 0 17.5 -7t7.5 -17t-7.5 -18t-17.5 -8t-18 8z" />
    <glyph glyph-name="Lslash" unicode="&#x141;" horiz-adv-x="529" 
d="M71 250l-69 -56v49l69 56v383h48v-640h390v-42h-438v250zM168 682h47v-274l129 103v-50l-129 -103v-229h294v-42h-341v595z" />
    <glyph glyph-name="lslash" unicode="&#x142;" horiz-adv-x="529" 
d="M71 250l-69 -56v49l69 56v383h48v-640h390v-42h-438v250zM168 682h47v-274l129 103v-50l-129 -103v-229h294v-42h-341v595z" />
    <glyph glyph-name="Nacute" unicode="&#x143;" horiz-adv-x="814" 
d="M69 682h134l399 -467v467h48v-588l-471 546h-62v-640h-48v682zM164 586l470 -544h63v640h48v-682h-135l-399 468v-468h-47v586zM417 887h55l-90 -155h-45zM533 887h60l-141 -155h-46z" />
    <glyph glyph-name="nacute" unicode="&#x144;" horiz-adv-x="814" 
d="M69 682h134l399 -467v467h48v-588l-471 546h-62v-640h-48v682zM164 586l470 -544h63v640h48v-682h-135l-399 468v-468h-47v586zM417 887h55l-90 -155h-45zM533 887h60l-141 -155h-46z" />
    <glyph glyph-name="Ncommaaccent" unicode="&#x145;" horiz-adv-x="814" 
d="M69 682h134l399 -467v467h48v-588l-471 546h-62v-640h-48v682zM164 586l470 -544h63v640h48v-682h-135l-399 468v-468h-47v586zM348 -250q28 16 38 33.5t10 42.5q-79 8 -79 68q0 31 24 53t62 22q45 0 70.5 -25t25.5 -70q0 -56 -41 -89t-110 -38v3zM466 -126q0 37 -16 52
t-47 15q-26 0 -39.5 -13.5t-13.5 -33.5q0 -22 16 -33t58 -13q0 -35 -11 -61q53 30 53 87zM395 -123q-9 3 -9 17q0 8 5.5 14.5t13.5 6.5t13.5 -6.5t5.5 -16.5v-19q-20 1 -29 4z" />
    <glyph glyph-name="ncommaaccent" unicode="&#x146;" horiz-adv-x="814" 
d="M69 682h134l399 -467v467h48v-588l-471 546h-62v-640h-48v682zM164 586l470 -544h63v640h48v-682h-135l-399 468v-468h-47v586zM348 -250q28 16 38 33.5t10 42.5q-79 8 -79 68q0 31 24 53t62 22q45 0 70.5 -25t25.5 -70q0 -56 -41 -89t-110 -38v3zM466 -126q0 37 -16 52
t-47 15q-26 0 -39.5 -13.5t-13.5 -33.5q0 -22 16 -33t58 -13q0 -35 -11 -61q53 30 53 87zM395 -123q-9 3 -9 17q0 8 5.5 14.5t13.5 6.5t13.5 -6.5t5.5 -16.5v-19q-20 1 -29 4z" />
    <glyph glyph-name="Ncaron" unicode="&#x147;" horiz-adv-x="814" 
d="M69 682h134l399 -467v467h48v-588l-471 546h-62v-640h-48v682zM164 586l470 -544h63v640h48v-682h-135l-399 468v-468h-47v586zM228 889h45l112 -157h-55zM304 889h42l68 -73l67 73h42l-109 -127zM554 889h45l-101 -157h-55z" />
    <glyph glyph-name="ncaron" unicode="&#x148;" horiz-adv-x="814" 
d="M69 682h134l399 -467v467h48v-588l-471 546h-62v-640h-48v682zM164 586l470 -544h63v640h48v-682h-135l-399 468v-468h-47v586zM228 889h45l112 -157h-55zM304 889h42l68 -73l67 73h42l-109 -127zM554 889h45l-101 -157h-55z" />
    <glyph glyph-name="napostrophe" unicode="&#x149;" horiz-adv-x="1086" 
d="M42 353q38 27 58 61t24 80q-46 7 -69 31.5t-23 62.5q0 43 30.5 73t77.5 30q56 0 90 -38.5t34 -99.5q0 -84 -60.5 -142t-161.5 -72v14zM222 553q0 45 -23 70.5t-59 25.5q-31 0 -48.5 -18t-17.5 -43q0 -60 89 -64q1 -33 -6.5 -64t-27.5 -65q93 65 93 158zM121 587
q0 10 6.5 17.5t14.5 7.5q10 0 16 -8t6 -23v-23q-43 0 -43 29zM341 682h134l399 -467v467h48v-588l-471 546h-62v-640h-48v682zM436 586l470 -544h63v640h48v-682h-135l-399 468v-468h-47v586z" />
    <glyph glyph-name="Eng" unicode="&#x14a;" horiz-adv-x="765" 
d="M428 -4v38q23 -4 51 -4q89 0 129.5 43t40.5 139v212q0 107 -58 166t-161 59q-73 0 -137 -36t-130 -111v180h47v-89q55 52 111 75t124 23q75 0 131.5 -31t88 -89.5t31.5 -140.5v-221q0 -107 -51.5 -162.5t-151.5 -55.5q-46 0 -65 5zM69 682h47v-682h-47v682zM163 466
q59 69 124.5 105t126.5 36q92 0 140 -52.5t48 -151.5v-186q0 -51 -11.5 -82t-41 -46.5t-83.5 -15.5q-1 0 -37 3v40q13 -3 28 -3q55 0 76.5 25.5t21.5 83.5v171q0 84 -38 128t-110 44q-54 0 -105 -28t-92 -78v-459h-47v466z" />
    <glyph glyph-name="eng" unicode="&#x14b;" horiz-adv-x="765" 
d="M428 -4v38q23 -4 51 -4q89 0 129.5 43t40.5 139v212q0 107 -58 166t-161 59q-73 0 -137 -36t-130 -111v180h47v-89q55 52 111 75t124 23q75 0 131.5 -31t88 -89.5t31.5 -140.5v-221q0 -107 -51.5 -162.5t-151.5 -55.5q-46 0 -65 5zM69 682h47v-682h-47v682zM163 466
q59 69 124.5 105t126.5 36q92 0 140 -52.5t48 -151.5v-186q0 -51 -11.5 -82t-41 -46.5t-83.5 -15.5q-1 0 -37 3v40q13 -3 28 -3q55 0 76.5 25.5t21.5 83.5v171q0 84 -38 128t-110 44q-54 0 -105 -28t-92 -78v-459h-47v466z" />
    <glyph glyph-name="Omacron" unicode="&#x14c;" horiz-adv-x="810" 
d="M210.5 38.5q-82.5 47.5 -128 127t-45.5 173.5q0 91 43.5 172t126.5 130.5t196 49.5q106 0 190.5 -46.5t132 -126.5t47.5 -176q0 -93 -45 -173.5t-130.5 -129t-199.5 -48.5q-105 0 -187.5 47.5zM573 75.5q74 42.5 113 113.5t39 152q0 85 -41 155.5t-114.5 111.5t-165.5 41
q-100 0 -172 -44t-109.5 -115t-37.5 -152q0 -82 39.5 -152t111 -111.5t163.5 -41.5q100 0 174 42.5zM268.5 108q-61.5 34 -98 94.5t-36.5 135.5t33 136.5t94.5 97.5t144.5 36q84 0 145.5 -40t93 -101.5t31.5 -124.5q0 -86 -37 -146.5t-99.5 -91t-138.5 -30.5
q-71 0 -132.5 34zM516.5 142.5q51.5 26.5 81.5 77.5t30 122q0 56 -26 107.5t-76.5 84t-119.5 32.5t-119.5 -29.5t-77.5 -81t-27 -115.5q0 -65 29.5 -116t80 -79.5t110.5 -28.5q63 0 114.5 26.5zM265 880h295v-41h-295v41zM265 806h295v-41h-295v41z" />
    <glyph glyph-name="omacron" unicode="&#x14d;" horiz-adv-x="810" 
d="M210.5 38.5q-82.5 47.5 -128 127t-45.5 173.5q0 91 43.5 172t126.5 130.5t196 49.5q106 0 190.5 -46.5t132 -126.5t47.5 -176q0 -93 -45 -173.5t-130.5 -129t-199.5 -48.5q-105 0 -187.5 47.5zM573 75.5q74 42.5 113 113.5t39 152q0 85 -41 155.5t-114.5 111.5t-165.5 41
q-100 0 -172 -44t-109.5 -115t-37.5 -152q0 -82 39.5 -152t111 -111.5t163.5 -41.5q100 0 174 42.5zM268.5 108q-61.5 34 -98 94.5t-36.5 135.5t33 136.5t94.5 97.5t144.5 36q84 0 145.5 -40t93 -101.5t31.5 -124.5q0 -86 -37 -146.5t-99.5 -91t-138.5 -30.5
q-71 0 -132.5 34zM516.5 142.5q51.5 26.5 81.5 77.5t30 122q0 56 -26 107.5t-76.5 84t-119.5 32.5t-119.5 -29.5t-77.5 -81t-27 -115.5q0 -65 29.5 -116t80 -79.5t110.5 -28.5q63 0 114.5 26.5zM265 880h295v-41h-295v41zM265 806h295v-41h-295v41z" />
    <glyph glyph-name="Obreve" unicode="&#x14e;" horiz-adv-x="810" 
d="M210.5 38.5q-82.5 47.5 -128 127t-45.5 173.5q0 91 43.5 172t126.5 130.5t196 49.5q106 0 190.5 -46.5t132 -126.5t47.5 -176q0 -93 -45 -173.5t-130.5 -129t-199.5 -48.5q-105 0 -187.5 47.5zM573 75.5q74 42.5 113 113.5t39 152q0 85 -41 155.5t-114.5 111.5t-165.5 41
q-100 0 -172 -44t-109.5 -115t-37.5 -152q0 -82 39.5 -152t111 -111.5t163.5 -41.5q100 0 174 42.5zM268.5 108q-61.5 34 -98 94.5t-36.5 135.5t33 136.5t94.5 97.5t144.5 36q84 0 145.5 -40t93 -101.5t31.5 -124.5q0 -86 -37 -146.5t-99.5 -91t-138.5 -30.5
q-71 0 -132.5 34zM516.5 142.5q51.5 26.5 81.5 77.5t30 122q0 56 -26 107.5t-76.5 84t-119.5 32.5t-119.5 -29.5t-77.5 -81t-27 -115.5q0 -65 29.5 -116t80 -79.5t110.5 -28.5q63 0 114.5 26.5zM297.5 759.5q-45.5 40.5 -56.5 116.5h41q12 -54 45.5 -85t84.5 -31
q52 0 87.5 32t44.5 84h41q-10 -72 -57 -114.5t-116 -42.5t-114.5 40.5zM354.5 818q-23.5 20 -32.5 58h40q12 -37 52 -37q21 0 32 8.5t17 28.5h40q-10 -40 -31 -59t-58 -19q-36 0 -59.5 20z" />
    <glyph glyph-name="obreve" unicode="&#x14f;" horiz-adv-x="810" 
d="M210.5 38.5q-82.5 47.5 -128 127t-45.5 173.5q0 91 43.5 172t126.5 130.5t196 49.5q106 0 190.5 -46.5t132 -126.5t47.5 -176q0 -93 -45 -173.5t-130.5 -129t-199.5 -48.5q-105 0 -187.5 47.5zM573 75.5q74 42.5 113 113.5t39 152q0 85 -41 155.5t-114.5 111.5t-165.5 41
q-100 0 -172 -44t-109.5 -115t-37.5 -152q0 -82 39.5 -152t111 -111.5t163.5 -41.5q100 0 174 42.5zM268.5 108q-61.5 34 -98 94.5t-36.5 135.5t33 136.5t94.5 97.5t144.5 36q84 0 145.5 -40t93 -101.5t31.5 -124.5q0 -86 -37 -146.5t-99.5 -91t-138.5 -30.5
q-71 0 -132.5 34zM516.5 142.5q51.5 26.5 81.5 77.5t30 122q0 56 -26 107.5t-76.5 84t-119.5 32.5t-119.5 -29.5t-77.5 -81t-27 -115.5q0 -65 29.5 -116t80 -79.5t110.5 -28.5q63 0 114.5 26.5zM297.5 759.5q-45.5 40.5 -56.5 116.5h41q12 -54 45.5 -85t84.5 -31
q52 0 87.5 32t44.5 84h41q-10 -72 -57 -114.5t-116 -42.5t-114.5 40.5zM354.5 818q-23.5 20 -32.5 58h40q12 -37 52 -37q21 0 32 8.5t17 28.5h40q-10 -40 -31 -59t-58 -19q-36 0 -59.5 20z" />
    <glyph glyph-name="Ohungarumlaut" unicode="&#x150;" horiz-adv-x="810" 
d="M210.5 38.5q-82.5 47.5 -128 127t-45.5 173.5q0 91 43.5 172t126.5 130.5t196 49.5q106 0 190.5 -46.5t132 -126.5t47.5 -176q0 -93 -45 -173.5t-130.5 -129t-199.5 -48.5q-105 0 -187.5 47.5zM573 75.5q74 42.5 113 113.5t39 152q0 85 -41 155.5t-114.5 111.5t-165.5 41
q-100 0 -172 -44t-109.5 -115t-37.5 -152q0 -82 39.5 -152t111 -111.5t163.5 -41.5q100 0 174 42.5zM268.5 108q-61.5 34 -98 94.5t-36.5 135.5t33 136.5t94.5 97.5t144.5 36q84 0 145.5 -40t93 -101.5t31.5 -124.5q0 -86 -37 -146.5t-99.5 -91t-138.5 -30.5
q-71 0 -132.5 34zM516.5 142.5q51.5 26.5 81.5 77.5t30 122q0 56 -26 107.5t-76.5 84t-119.5 32.5t-119.5 -29.5t-77.5 -81t-27 -115.5q0 -65 29.5 -116t80 -79.5t110.5 -28.5q63 0 114.5 26.5zM305 887h48l-56 -155h-36zM406 887h51l-99 -155h-37zM499 887h47l-64 -155h-37
zM599 887h51l-107 -155h-37z" />
    <glyph glyph-name="ohungarumlaut" unicode="&#x151;" horiz-adv-x="810" 
d="M210.5 38.5q-82.5 47.5 -128 127t-45.5 173.5q0 91 43.5 172t126.5 130.5t196 49.5q106 0 190.5 -46.5t132 -126.5t47.5 -176q0 -93 -45 -173.5t-130.5 -129t-199.5 -48.5q-105 0 -187.5 47.5zM573 75.5q74 42.5 113 113.5t39 152q0 85 -41 155.5t-114.5 111.5t-165.5 41
q-100 0 -172 -44t-109.5 -115t-37.5 -152q0 -82 39.5 -152t111 -111.5t163.5 -41.5q100 0 174 42.5zM268.5 108q-61.5 34 -98 94.5t-36.5 135.5t33 136.5t94.5 97.5t144.5 36q84 0 145.5 -40t93 -101.5t31.5 -124.5q0 -86 -37 -146.5t-99.5 -91t-138.5 -30.5
q-71 0 -132.5 34zM516.5 142.5q51.5 26.5 81.5 77.5t30 122q0 56 -26 107.5t-76.5 84t-119.5 32.5t-119.5 -29.5t-77.5 -81t-27 -115.5q0 -65 29.5 -116t80 -79.5t110.5 -28.5q63 0 114.5 26.5zM305 887h48l-56 -155h-36zM406 887h51l-99 -155h-37zM499 887h47l-64 -155h-37
zM599 887h51l-107 -155h-37z" />
    <glyph glyph-name="OE" unicode="&#x152;" horiz-adv-x="968" 
d="M219 42q-88 42 -135 118.5t-47 178.5q0 113 51 190t141 115t207 38h455v-42h-455q-168 0 -260 -79t-92 -222q0 -89 41.5 -156t119 -104t182.5 -37h472v-42h-472q-120 0 -208 42zM280 110q-70 32 -107.5 91t-37.5 140q0 127 80 194.5t232 67.5h83v-525h-87q-93 0 -163 32z
M578 603h313v-40h-266v-157h252v-42h-299v239zM483 115v448h-36q-123 0 -194 -54.5t-71 -167.5q0 -107 69 -166.5t192 -59.5h40zM578 325h299v-42h-252v-162h274v-43h-321v247z" />
    <glyph glyph-name="oe" unicode="&#x153;" horiz-adv-x="968" 
d="M219 42q-88 42 -135 118.5t-47 178.5q0 113 51 190t141 115t207 38h455v-42h-455q-168 0 -260 -79t-92 -222q0 -89 41.5 -156t119 -104t182.5 -37h472v-42h-472q-120 0 -208 42zM280 110q-70 32 -107.5 91t-37.5 140q0 127 80 194.5t232 67.5h83v-525h-87q-93 0 -163 32z
M578 603h313v-40h-266v-157h252v-42h-299v239zM483 115v448h-36q-123 0 -194 -54.5t-71 -167.5q0 -107 69 -166.5t192 -59.5h40zM578 325h299v-42h-252v-162h274v-43h-321v247z" />
    <glyph glyph-name="Racute" unicode="&#x154;" horiz-adv-x="662" 
d="M69 682h251q110 0 165.5 -55.5t55.5 -141.5q0 -118 -106 -165q26 -13 44 -32.5t43 -61.5l137 -226h-55l-124 208q-32 51 -59.5 75.5t-65.5 38.5v4q138 26 138 155q0 74 -47 116.5t-135 42.5h-194v-640h-48v682zM166 595h140q63 0 100.5 -28t37.5 -85q0 -68 -40.5 -97.5
t-125.5 -29.5h-112v240zM282 397q54 0 84 16t30 64q0 40 -23.5 58t-70.5 18h-89v-156h69zM166 311h89q62 0 103.5 -31.5t85.5 -105.5l104 -174h-56l-87 150q-29 49 -52 74.5t-46 35t-55 9.5h-39v-269h-47v311zM278 887h55l-90 -155h-45zM394 887h60l-141 -155h-46z" />
    <glyph glyph-name="racute" unicode="&#x155;" horiz-adv-x="662" 
d="M69 682h251q110 0 165.5 -55.5t55.5 -141.5q0 -118 -106 -165q26 -13 44 -32.5t43 -61.5l137 -226h-55l-124 208q-32 51 -59.5 75.5t-65.5 38.5v4q138 26 138 155q0 74 -47 116.5t-135 42.5h-194v-640h-48v682zM166 595h140q63 0 100.5 -28t37.5 -85q0 -68 -40.5 -97.5
t-125.5 -29.5h-112v240zM282 397q54 0 84 16t30 64q0 40 -23.5 58t-70.5 18h-89v-156h69zM166 311h89q62 0 103.5 -31.5t85.5 -105.5l104 -174h-56l-87 150q-29 49 -52 74.5t-46 35t-55 9.5h-39v-269h-47v311zM278 887h55l-90 -155h-45zM394 887h60l-141 -155h-46z" />
    <glyph glyph-name="Rcommaaccent" unicode="&#x156;" horiz-adv-x="662" 
d="M69 682h251q110 0 165.5 -55.5t55.5 -141.5q0 -118 -106 -165q26 -13 44 -32.5t43 -61.5l137 -226h-55l-124 208q-32 51 -59.5 75.5t-65.5 38.5v4q138 26 138 155q0 74 -47 116.5t-135 42.5h-194v-640h-48v682zM166 595h140q63 0 100.5 -28t37.5 -85q0 -68 -40.5 -97.5
t-125.5 -29.5h-112v240zM282 397q54 0 84 16t30 64q0 40 -23.5 58t-70.5 18h-89v-156h69zM166 311h89q62 0 103.5 -31.5t85.5 -105.5l104 -174h-56l-87 150q-29 49 -52 74.5t-46 35t-55 9.5h-39v-269h-47v311zM290 -250q28 16 38 33.5t10 42.5q-79 8 -79 68q0 31 24 53
t62 22q45 0 70.5 -25t25.5 -70q0 -56 -41 -89t-110 -38v3zM408 -126q0 37 -16 52t-47 15q-26 0 -39.5 -13.5t-13.5 -33.5q0 -22 16 -33t58 -13q0 -35 -11 -61q53 30 53 87zM337 -123q-9 3 -9 17q0 8 5.5 14.5t13.5 6.5t13.5 -6.5t5.5 -16.5v-19q-20 1 -29 4z" />
    <glyph glyph-name="rcommaaccent" unicode="&#x157;" horiz-adv-x="662" 
d="M69 682h251q110 0 165.5 -55.5t55.5 -141.5q0 -118 -106 -165q26 -13 44 -32.5t43 -61.5l137 -226h-55l-124 208q-32 51 -59.5 75.5t-65.5 38.5v4q138 26 138 155q0 74 -47 116.5t-135 42.5h-194v-640h-48v682zM166 595h140q63 0 100.5 -28t37.5 -85q0 -68 -40.5 -97.5
t-125.5 -29.5h-112v240zM282 397q54 0 84 16t30 64q0 40 -23.5 58t-70.5 18h-89v-156h69zM166 311h89q62 0 103.5 -31.5t85.5 -105.5l104 -174h-56l-87 150q-29 49 -52 74.5t-46 35t-55 9.5h-39v-269h-47v311zM290 -250q28 16 38 33.5t10 42.5q-79 8 -79 68q0 31 24 53
t62 22q45 0 70.5 -25t25.5 -70q0 -56 -41 -89t-110 -38v3zM408 -126q0 37 -16 52t-47 15q-26 0 -39.5 -13.5t-13.5 -33.5q0 -22 16 -33t58 -13q0 -35 -11 -61q53 30 53 87zM337 -123q-9 3 -9 17q0 8 5.5 14.5t13.5 6.5t13.5 -6.5t5.5 -16.5v-19q-20 1 -29 4z" />
    <glyph glyph-name="Rcaron" unicode="&#x158;" horiz-adv-x="662" 
d="M69 682h251q110 0 165.5 -55.5t55.5 -141.5q0 -118 -106 -165q26 -13 44 -32.5t43 -61.5l137 -226h-55l-124 208q-32 51 -59.5 75.5t-65.5 38.5v4q138 26 138 155q0 74 -47 116.5t-135 42.5h-194v-640h-48v682zM166 595h140q63 0 100.5 -28t37.5 -85q0 -68 -40.5 -97.5
t-125.5 -29.5h-112v240zM282 397q54 0 84 16t30 64q0 40 -23.5 58t-70.5 18h-89v-156h69zM166 311h89q62 0 103.5 -31.5t85.5 -105.5l104 -174h-56l-87 150q-29 49 -52 74.5t-46 35t-55 9.5h-39v-269h-47v311zM108 889h45l112 -157h-55zM184 889h42l68 -73l67 73h42
l-109 -127zM434 889h45l-101 -157h-55z" />
    <glyph glyph-name="rcaron" unicode="&#x159;" horiz-adv-x="662" 
d="M69 682h251q110 0 165.5 -55.5t55.5 -141.5q0 -118 -106 -165q26 -13 44 -32.5t43 -61.5l137 -226h-55l-124 208q-32 51 -59.5 75.5t-65.5 38.5v4q138 26 138 155q0 74 -47 116.5t-135 42.5h-194v-640h-48v682zM166 595h140q63 0 100.5 -28t37.5 -85q0 -68 -40.5 -97.5
t-125.5 -29.5h-112v240zM282 397q54 0 84 16t30 64q0 40 -23.5 58t-70.5 18h-89v-156h69zM166 311h89q62 0 103.5 -31.5t85.5 -105.5l104 -174h-56l-87 150q-29 49 -52 74.5t-46 35t-55 9.5h-39v-269h-47v311zM108 889h45l112 -157h-55zM184 889h42l68 -73l67 73h42
l-109 -127zM434 889h45l-101 -157h-55z" />
    <glyph glyph-name="Sacute" unicode="&#x15a;" horiz-adv-x="513" 
d="M51 153v52q40 -45 89 -70t99 -25q37 0 59 18.5t22 48.5q0 22 -8.5 38t-36.5 38t-88 56q-75 42 -106.5 89.5t-31.5 112.5q0 51 27 92t76.5 64.5t112.5 23.5q91 0 173 -47v-49q-38 27 -84 41t-88 14q-76 0 -122.5 -38t-46.5 -100q0 -58 28 -95t91 -74q62 -37 93.5 -61.5
t44 -48t12.5 -56.5q0 -48 -35 -78t-90 -30q-108 0 -190 84zM51 49v48q41 -32 87.5 -48t104.5 -16q79 0 126.5 40t47.5 105q0 43 -14.5 73t-47.5 57t-98 66q-47 27 -71 49t-32.5 42.5t-8.5 47.5q0 45 33 72t91 27q42 0 86 -14.5t83 -45.5v-52q-77 71 -168 71q-38 0 -58 -15.5
t-20 -42.5q0 -18 5.5 -31.5t26 -31.5t63.5 -42q71 -39 109.5 -74t53 -71.5t14.5 -85.5q0 -53 -27 -95.5t-76.5 -66.5t-115.5 -24q-111 0 -194 58zM245 887h55l-90 -155h-45zM361 887h60l-141 -155h-46z" />
    <glyph glyph-name="sacute" unicode="&#x15b;" horiz-adv-x="513" 
d="M51 153v52q40 -45 89 -70t99 -25q37 0 59 18.5t22 48.5q0 22 -8.5 38t-36.5 38t-88 56q-75 42 -106.5 89.5t-31.5 112.5q0 51 27 92t76.5 64.5t112.5 23.5q91 0 173 -47v-49q-38 27 -84 41t-88 14q-76 0 -122.5 -38t-46.5 -100q0 -58 28 -95t91 -74q62 -37 93.5 -61.5
t44 -48t12.5 -56.5q0 -48 -35 -78t-90 -30q-108 0 -190 84zM51 49v48q41 -32 87.5 -48t104.5 -16q79 0 126.5 40t47.5 105q0 43 -14.5 73t-47.5 57t-98 66q-47 27 -71 49t-32.5 42.5t-8.5 47.5q0 45 33 72t91 27q42 0 86 -14.5t83 -45.5v-52q-77 71 -168 71q-38 0 -58 -15.5
t-20 -42.5q0 -18 5.5 -31.5t26 -31.5t63.5 -42q71 -39 109.5 -74t53 -71.5t14.5 -85.5q0 -53 -27 -95.5t-76.5 -66.5t-115.5 -24q-111 0 -194 58zM245 887h55l-90 -155h-45zM361 887h60l-141 -155h-46z" />
    <glyph glyph-name="Scircumflex" unicode="&#x15c;" horiz-adv-x="513" 
d="M51 153v52q40 -45 89 -70t99 -25q37 0 59 18.5t22 48.5q0 22 -8.5 38t-36.5 38t-88 56q-75 42 -106.5 89.5t-31.5 112.5q0 51 27 92t76.5 64.5t112.5 23.5q91 0 173 -47v-49q-38 27 -84 41t-88 14q-76 0 -122.5 -38t-46.5 -100q0 -58 28 -95t91 -74q62 -37 93.5 -61.5
t44 -48t12.5 -56.5q0 -48 -35 -78t-90 -30q-108 0 -190 84zM51 49v48q41 -32 87.5 -48t104.5 -16q79 0 126.5 40t47.5 105q0 43 -14.5 73t-47.5 57t-98 66q-47 27 -71 49t-32.5 42.5t-8.5 47.5q0 45 33 72t91 27q42 0 86 -14.5t83 -45.5v-52q-77 71 -168 71q-38 0 -58 -15.5
t-20 -42.5q0 -18 5.5 -31.5t26 -31.5t63.5 -42q71 -39 109.5 -74t53 -71.5t14.5 -85.5q0 -53 -27 -95.5t-76.5 -66.5t-115.5 -24q-111 0 -194 58zM168 889h55l-111 -157h-45zM281 889h55l102 -157h-45zM252 860l110 -128h-42l-68 74l-67 -74h-42z" />
    <glyph glyph-name="scircumflex" unicode="&#x15d;" horiz-adv-x="513" 
d="M51 153v52q40 -45 89 -70t99 -25q37 0 59 18.5t22 48.5q0 22 -8.5 38t-36.5 38t-88 56q-75 42 -106.5 89.5t-31.5 112.5q0 51 27 92t76.5 64.5t112.5 23.5q91 0 173 -47v-49q-38 27 -84 41t-88 14q-76 0 -122.5 -38t-46.5 -100q0 -58 28 -95t91 -74q62 -37 93.5 -61.5
t44 -48t12.5 -56.5q0 -48 -35 -78t-90 -30q-108 0 -190 84zM51 49v48q41 -32 87.5 -48t104.5 -16q79 0 126.5 40t47.5 105q0 43 -14.5 73t-47.5 57t-98 66q-47 27 -71 49t-32.5 42.5t-8.5 47.5q0 45 33 72t91 27q42 0 86 -14.5t83 -45.5v-52q-77 71 -168 71q-38 0 -58 -15.5
t-20 -42.5q0 -18 5.5 -31.5t26 -31.5t63.5 -42q71 -39 109.5 -74t53 -71.5t14.5 -85.5q0 -53 -27 -95.5t-76.5 -66.5t-115.5 -24q-111 0 -194 58zM168 889h55l-111 -157h-45zM281 889h55l102 -157h-45zM252 860l110 -128h-42l-68 74l-67 -74h-42z" />
    <glyph glyph-name="Scedilla" unicode="&#x15e;" horiz-adv-x="513" 
d="M80.5 398.5q-31.5 47.5 -31.5 112.5q0 51 27 92t76.5 64.5t112.5 23.5q91 0 173 -47v-49q-38 27 -84 41t-88 14q-76 0 -122.5 -38t-46.5 -100q0 -58 28 -95t91 -74q62 -37 93.5 -61.5t44 -48t12.5 -56.5q0 -48 -35 -78t-90 -30q-108 0 -190 84v52q40 -45 89 -70t99 -25
q37 0 59 18.5t22 48.5q0 22 -8.5 38t-36.5 38t-88 56q-75 42 -106.5 89.5zM419 58q-45 -50 -122 -63l-7 -15q80 -13 80 -87q0 -48 -40.5 -77t-115.5 -29q-41 0 -81 5v32q35 -5 75 -5q58 0 91.5 20t33.5 54q0 32 -21.5 47.5t-66.5 17.5l16 33h-16h-16l-23 -50q69 0 69 -48
q0 -22 -21 -35t-63 -13q-29 0 -58 5v30q24 -4 55 -4q50 0 50 19q0 10 -9.5 15t-34.5 5t-34 -4l37 83q-78 9 -146 55v48q41 -32 87.5 -48t104.5 -16q79 0 126.5 40t47.5 105q0 43 -14.5 73t-47.5 57t-98 66q-47 27 -71 49t-32.5 42.5t-8.5 47.5q0 45 33 72t91 27
q42 0 86 -14.5t83 -45.5v-52q-77 71 -168 71q-38 0 -58 -15.5t-20 -42.5q0 -18 5.5 -31.5t26 -31.5t63.5 -42q71 -39 109.5 -74t53 -71.5t14.5 -85.5q0 -69 -45 -119z" />
    <glyph glyph-name="scedilla" unicode="&#x15f;" horiz-adv-x="513" 
d="M80.5 398.5q-31.5 47.5 -31.5 112.5q0 51 27 92t76.5 64.5t112.5 23.5q91 0 173 -47v-49q-38 27 -84 41t-88 14q-76 0 -122.5 -38t-46.5 -100q0 -58 28 -95t91 -74q62 -37 93.5 -61.5t44 -48t12.5 -56.5q0 -48 -35 -78t-90 -30q-108 0 -190 84v52q40 -45 89 -70t99 -25
q37 0 59 18.5t22 48.5q0 22 -8.5 38t-36.5 38t-88 56q-75 42 -106.5 89.5zM419 58q-45 -50 -122 -63l-7 -15q80 -13 80 -87q0 -48 -40.5 -77t-115.5 -29q-41 0 -81 5v32q35 -5 75 -5q58 0 91.5 20t33.5 54q0 32 -21.5 47.5t-66.5 17.5l16 33h-16h-16l-23 -50q69 0 69 -48
q0 -22 -21 -35t-63 -13q-29 0 -58 5v30q24 -4 55 -4q50 0 50 19q0 10 -9.5 15t-34.5 5t-34 -4l37 83q-78 9 -146 55v48q41 -32 87.5 -48t104.5 -16q79 0 126.5 40t47.5 105q0 43 -14.5 73t-47.5 57t-98 66q-47 27 -71 49t-32.5 42.5t-8.5 47.5q0 45 33 72t91 27
q42 0 86 -14.5t83 -45.5v-52q-77 71 -168 71q-38 0 -58 -15.5t-20 -42.5q0 -18 5.5 -31.5t26 -31.5t63.5 -42q71 -39 109.5 -74t53 -71.5t14.5 -85.5q0 -69 -45 -119z" />
    <glyph glyph-name="Scaron" unicode="&#x160;" horiz-adv-x="513" 
d="M51 153v52q40 -45 89 -70t99 -25q37 0 59 18.5t22 48.5q0 22 -8.5 38t-36.5 38t-88 56q-75 42 -106.5 89.5t-31.5 112.5q0 51 27 92t76.5 64.5t112.5 23.5q91 0 173 -47v-49q-38 27 -84 41t-88 14q-76 0 -122.5 -38t-46.5 -100q0 -58 28 -95t91 -74q62 -37 93.5 -61.5
t44 -48t12.5 -56.5q0 -48 -35 -78t-90 -30q-108 0 -190 84zM51 49v48q41 -32 87.5 -48t104.5 -16q79 0 126.5 40t47.5 105q0 43 -14.5 73t-47.5 57t-98 66q-47 27 -71 49t-32.5 42.5t-8.5 47.5q0 45 33 72t91 27q42 0 86 -14.5t83 -45.5v-52q-77 71 -168 71q-38 0 -58 -15.5
t-20 -42.5q0 -18 5.5 -31.5t26 -31.5t63.5 -42q71 -39 109.5 -74t53 -71.5t14.5 -85.5q0 -53 -27 -95.5t-76.5 -66.5t-115.5 -24q-111 0 -194 58zM79 889h45l112 -157h-55zM155 889h42l68 -73l67 73h42l-109 -127zM405 889h45l-101 -157h-55z" />
    <glyph glyph-name="scaron" unicode="&#x161;" horiz-adv-x="513" 
d="M51 153v52q40 -45 89 -70t99 -25q37 0 59 18.5t22 48.5q0 22 -8.5 38t-36.5 38t-88 56q-75 42 -106.5 89.5t-31.5 112.5q0 51 27 92t76.5 64.5t112.5 23.5q91 0 173 -47v-49q-38 27 -84 41t-88 14q-76 0 -122.5 -38t-46.5 -100q0 -58 28 -95t91 -74q62 -37 93.5 -61.5
t44 -48t12.5 -56.5q0 -48 -35 -78t-90 -30q-108 0 -190 84zM51 49v48q41 -32 87.5 -48t104.5 -16q79 0 126.5 40t47.5 105q0 43 -14.5 73t-47.5 57t-98 66q-47 27 -71 49t-32.5 42.5t-8.5 47.5q0 45 33 72t91 27q42 0 86 -14.5t83 -45.5v-52q-77 71 -168 71q-38 0 -58 -15.5
t-20 -42.5q0 -18 5.5 -31.5t26 -31.5t63.5 -42q71 -39 109.5 -74t53 -71.5t14.5 -85.5q0 -53 -27 -95.5t-76.5 -66.5t-115.5 -24q-111 0 -194 58zM79 889h45l112 -157h-55zM155 889h42l68 -73l67 73h42l-109 -127zM405 889h45l-101 -157h-55z" />
    <glyph glyph-name="Tcommaaccent" unicode="&#x162;" horiz-adv-x="640" 
d="M20 682h600v-42h-600v42zM246 554h-226v42h274v-596h-48v554zM343 596h277v-42h-230v-554h-47v596zM260 -250q28 16 38 33.5t10 42.5q-79 8 -79 68q0 31 24 53t62 22q45 0 70.5 -25t25.5 -70q0 -56 -41 -89t-110 -38v3zM378 -126q0 37 -16 52t-47 15q-26 0 -39.5 -13.5
t-13.5 -33.5q0 -22 16 -33t58 -13q0 -35 -11 -61q53 30 53 87zM307 -123q-9 3 -9 17q0 8 5.5 14.5t13.5 6.5t13.5 -6.5t5.5 -16.5v-19q-20 1 -29 4z" />
    <glyph glyph-name="tcommaaccent" unicode="&#x163;" horiz-adv-x="640" 
d="M20 682h600v-42h-600v42zM246 554h-226v42h274v-596h-48v554zM343 596h277v-42h-230v-554h-47v596zM260 -250q28 16 38 33.5t10 42.5q-79 8 -79 68q0 31 24 53t62 22q45 0 70.5 -25t25.5 -70q0 -56 -41 -89t-110 -38v3zM378 -126q0 37 -16 52t-47 15q-26 0 -39.5 -13.5
t-13.5 -33.5q0 -22 16 -33t58 -13q0 -35 -11 -61q53 30 53 87zM307 -123q-9 3 -9 17q0 8 5.5 14.5t13.5 6.5t13.5 -6.5t5.5 -16.5v-19q-20 1 -29 4z" />
    <glyph glyph-name="Tcaron" unicode="&#x164;" horiz-adv-x="640" 
d="M20 682h600v-42h-600v42zM246 554h-226v42h274v-596h-48v554zM343 596h277v-42h-230v-554h-47v596zM145 889h45l112 -157h-55zM221 889h42l68 -73l67 73h42l-109 -127zM471 889h45l-101 -157h-55z" />
    <glyph glyph-name="tcaron" unicode="&#x165;" horiz-adv-x="640" 
d="M20 682h600v-42h-600v42zM246 554h-226v42h274v-596h-48v554zM343 596h277v-42h-230v-554h-47v596zM145 889h45l112 -157h-55zM221 889h42l68 -73l67 73h42l-109 -127zM471 889h45l-101 -157h-55z" />
    <glyph glyph-name="Tbar" unicode="&#x166;" horiz-adv-x="640" 
d="M20 682h600v-42h-600v42zM246 292h-131v44h131v218h-226v42h274v-596h-48v292zM343 596h277v-42h-230v-218h131v-44h-131v-292h-47v596z" />
    <glyph glyph-name="tbar" unicode="&#x167;" horiz-adv-x="640" 
d="M20 682h600v-42h-600v42zM246 292h-131v44h131v218h-226v42h274v-596h-48v292zM343 596h277v-42h-230v-218h131v-44h-131v-292h-47v596z" />
    <glyph glyph-name="Utilde" unicode="&#x168;" horiz-adv-x="766" 
d="M149.5 68q-80.5 77 -80.5 226v388h48v-383q0 -128 66.5 -197t200.5 -69q137 0 201.5 69.5t64.5 196.5v383h48v-388q0 -145 -78.5 -224t-234.5 -79q-155 0 -235.5 77zM219.5 130q-53.5 52 -53.5 172v380h48v-378q0 -100 41 -142t130 -42q88 0 128 42t40 142v378h48v-380
q0 -116 -53.5 -170t-162.5 -54q-112 0 -165.5 52zM217.5 847.5q34.5 42.5 86.5 42.5q24 0 46 -6.5t50 -18.5q27 -12 38 -12q14 0 21.5 9t9.5 30h42q-5 -82 -64 -82q-12 0 -28.5 5.5t-32.5 12.5q-25 10 -42 15.5t-35 5.5q-37 0 -60 -26.5t-24 -87.5h-42q0 70 34.5 112.5z
M269 799q16 18 44 18q15 0 30 -4.5t40 -14.5t40 -15t30 -5q35 0 57.5 29t25.5 85h42q-1 -72 -35.5 -113.5t-84.5 -41.5q-22 0 -42 6t-45 17q-14 6 -27 10.5t-22 4.5q-14 0 -22 -9t-9 -31h-42q4 46 20 64z" />
    <glyph glyph-name="utilde" unicode="&#x169;" horiz-adv-x="766" 
d="M149.5 68q-80.5 77 -80.5 226v388h48v-383q0 -128 66.5 -197t200.5 -69q137 0 201.5 69.5t64.5 196.5v383h48v-388q0 -145 -78.5 -224t-234.5 -79q-155 0 -235.5 77zM219.5 130q-53.5 52 -53.5 172v380h48v-378q0 -100 41 -142t130 -42q88 0 128 42t40 142v378h48v-380
q0 -116 -53.5 -170t-162.5 -54q-112 0 -165.5 52zM217.5 847.5q34.5 42.5 86.5 42.5q24 0 46 -6.5t50 -18.5q27 -12 38 -12q14 0 21.5 9t9.5 30h42q-5 -82 -64 -82q-12 0 -28.5 5.5t-32.5 12.5q-25 10 -42 15.5t-35 5.5q-37 0 -60 -26.5t-24 -87.5h-42q0 70 34.5 112.5z
M269 799q16 18 44 18q15 0 30 -4.5t40 -14.5t40 -15t30 -5q35 0 57.5 29t25.5 85h42q-1 -72 -35.5 -113.5t-84.5 -41.5q-22 0 -42 6t-45 17q-14 6 -27 10.5t-22 4.5q-14 0 -22 -9t-9 -31h-42q4 46 20 64z" />
    <glyph glyph-name="Umacron" unicode="&#x16a;" horiz-adv-x="766" 
d="M149.5 68q-80.5 77 -80.5 226v388h48v-383q0 -128 66.5 -197t200.5 -69q137 0 201.5 69.5t64.5 196.5v383h48v-388q0 -145 -78.5 -224t-234.5 -79q-155 0 -235.5 77zM219.5 130q-53.5 52 -53.5 172v380h48v-378q0 -100 41 -142t130 -42q88 0 128 42t40 142v378h48v-380
q0 -116 -53.5 -170t-162.5 -54q-112 0 -165.5 52zM233 880h295v-41h-295v41zM233 806h295v-41h-295v41z" />
    <glyph glyph-name="umacron" unicode="&#x16b;" horiz-adv-x="766" 
d="M149.5 68q-80.5 77 -80.5 226v388h48v-383q0 -128 66.5 -197t200.5 -69q137 0 201.5 69.5t64.5 196.5v383h48v-388q0 -145 -78.5 -224t-234.5 -79q-155 0 -235.5 77zM219.5 130q-53.5 52 -53.5 172v380h48v-378q0 -100 41 -142t130 -42q88 0 128 42t40 142v378h48v-380
q0 -116 -53.5 -170t-162.5 -54q-112 0 -165.5 52zM233 880h295v-41h-295v41zM233 806h295v-41h-295v41z" />
    <glyph glyph-name="Ubreve" unicode="&#x16c;" horiz-adv-x="766" 
d="M149.5 68q-80.5 77 -80.5 226v388h48v-383q0 -128 66.5 -197t200.5 -69q137 0 201.5 69.5t64.5 196.5v383h48v-388q0 -145 -78.5 -224t-234.5 -79q-155 0 -235.5 77zM219.5 130q-53.5 52 -53.5 172v380h48v-378q0 -100 41 -142t130 -42q88 0 128 42t40 142v378h48v-380
q0 -116 -53.5 -170t-162.5 -54q-112 0 -165.5 52zM264.5 759.5q-45.5 40.5 -56.5 116.5h41q12 -54 45.5 -85t84.5 -31q52 0 87.5 32t44.5 84h41q-10 -72 -57 -114.5t-116 -42.5t-114.5 40.5zM321.5 818q-23.5 20 -32.5 58h40q12 -37 52 -37q21 0 32 8.5t17 28.5h40
q-10 -40 -31 -59t-58 -19q-36 0 -59.5 20z" />
    <glyph glyph-name="ubreve" unicode="&#x16d;" horiz-adv-x="766" 
d="M149.5 68q-80.5 77 -80.5 226v388h48v-383q0 -128 66.5 -197t200.5 -69q137 0 201.5 69.5t64.5 196.5v383h48v-388q0 -145 -78.5 -224t-234.5 -79q-155 0 -235.5 77zM219.5 130q-53.5 52 -53.5 172v380h48v-378q0 -100 41 -142t130 -42q88 0 128 42t40 142v378h48v-380
q0 -116 -53.5 -170t-162.5 -54q-112 0 -165.5 52zM264.5 759.5q-45.5 40.5 -56.5 116.5h41q12 -54 45.5 -85t84.5 -31q52 0 87.5 32t44.5 84h41q-10 -72 -57 -114.5t-116 -42.5t-114.5 40.5zM321.5 818q-23.5 20 -32.5 58h40q12 -37 52 -37q21 0 32 8.5t17 28.5h40
q-10 -40 -31 -59t-58 -19q-36 0 -59.5 20z" />
    <glyph glyph-name="Uring" unicode="&#x16e;" horiz-adv-x="766" 
d="M149.5 68q-80.5 77 -80.5 226v388h48v-383q0 -128 66.5 -197t200.5 -69q137 0 201.5 69.5t64.5 196.5v383h48v-388q0 -145 -78.5 -224t-234.5 -79q-155 0 -235.5 77zM219.5 130q-53.5 52 -53.5 172v380h48v-378q0 -100 41 -142t130 -42q88 0 128 42t40 142v378h48v-380
q0 -116 -53.5 -170t-162.5 -54q-112 0 -165.5 52zM302.5 751.5q-30.5 30.5 -30.5 73.5q0 44 30.5 74t73.5 30q44 0 74.5 -30.5t30.5 -73.5t-30.5 -73.5t-74.5 -30.5q-43 0 -73.5 30.5zM420.5 781q18.5 18 18.5 44t-18.5 44t-44.5 18t-43.5 -18t-17.5 -44t17.5 -44t43.5 -18
t44.5 18z" />
    <glyph glyph-name="uring" unicode="&#x16f;" horiz-adv-x="766" 
d="M149.5 68q-80.5 77 -80.5 226v388h48v-383q0 -128 66.5 -197t200.5 -69q137 0 201.5 69.5t64.5 196.5v383h48v-388q0 -145 -78.5 -224t-234.5 -79q-155 0 -235.5 77zM219.5 130q-53.5 52 -53.5 172v380h48v-378q0 -100 41 -142t130 -42q88 0 128 42t40 142v378h48v-380
q0 -116 -53.5 -170t-162.5 -54q-112 0 -165.5 52zM302.5 751.5q-30.5 30.5 -30.5 73.5q0 44 30.5 74t73.5 30q44 0 74.5 -30.5t30.5 -73.5t-30.5 -73.5t-74.5 -30.5q-43 0 -73.5 30.5zM420.5 781q18.5 18 18.5 44t-18.5 44t-44.5 18t-43.5 -18t-17.5 -44t17.5 -44t43.5 -18
t44.5 18z" />
    <glyph glyph-name="Uhungarumlaut" unicode="&#x170;" horiz-adv-x="766" 
d="M149.5 68q-80.5 77 -80.5 226v388h48v-383q0 -128 66.5 -197t200.5 -69q137 0 201.5 69.5t64.5 196.5v383h48v-388q0 -145 -78.5 -224t-234.5 -79q-155 0 -235.5 77zM219.5 130q-53.5 52 -53.5 172v380h48v-378q0 -100 41 -142t130 -42q88 0 128 42t40 142v378h48v-380
q0 -116 -53.5 -170t-162.5 -54q-112 0 -165.5 52zM268 887h48l-56 -155h-36zM369 887h51l-99 -155h-37zM462 887h47l-64 -155h-37zM562 887h51l-107 -155h-37z" />
    <glyph glyph-name="uhungarumlaut" unicode="&#x171;" horiz-adv-x="766" 
d="M149.5 68q-80.5 77 -80.5 226v388h48v-383q0 -128 66.5 -197t200.5 -69q137 0 201.5 69.5t64.5 196.5v383h48v-388q0 -145 -78.5 -224t-234.5 -79q-155 0 -235.5 77zM219.5 130q-53.5 52 -53.5 172v380h48v-378q0 -100 41 -142t130 -42q88 0 128 42t40 142v378h48v-380
q0 -116 -53.5 -170t-162.5 -54q-112 0 -165.5 52zM268 887h48l-56 -155h-36zM369 887h51l-99 -155h-37zM462 887h47l-64 -155h-37zM562 887h51l-107 -155h-37z" />
    <glyph glyph-name="Uogonek" unicode="&#x172;" horiz-adv-x="766" 
d="M698 682v-388q0 -131 -64 -208t-191 -92q-19 -30 -19 -49q0 -38 39 -38q23 0 55 16v-37q-37 -17 -71 -17q-29 0 -46 17.5t-17 48.5q0 24 18 56h-17h-16q-26 -39 -26 -79q0 -77 93 -77q43 0 82 22v-40q-45 -20 -92 -20q-59 0 -91 29.5t-32 81.5q0 43 27 86
q-128 13 -194.5 89.5t-66.5 210.5v388h48v-383q0 -128 66.5 -197t200.5 -69q137 0 201.5 69.5t64.5 196.5v383h48zM219.5 130q-53.5 52 -53.5 172v380h48v-378q0 -100 41 -142t130 -42q88 0 128 42t40 142v378h48v-380q0 -116 -53.5 -170t-162.5 -54q-112 0 -165.5 52z" />
    <glyph glyph-name="uogonek" unicode="&#x173;" horiz-adv-x="766" 
d="M698 682v-388q0 -131 -64 -208t-191 -92q-19 -30 -19 -49q0 -38 39 -38q23 0 55 16v-37q-37 -17 -71 -17q-29 0 -46 17.5t-17 48.5q0 24 18 56h-17h-16q-26 -39 -26 -79q0 -77 93 -77q43 0 82 22v-40q-45 -20 -92 -20q-59 0 -91 29.5t-32 81.5q0 43 27 86
q-128 13 -194.5 89.5t-66.5 210.5v388h48v-383q0 -128 66.5 -197t200.5 -69q137 0 201.5 69.5t64.5 196.5v383h48zM219.5 130q-53.5 52 -53.5 172v380h48v-378q0 -100 41 -142t130 -42q88 0 128 42t40 142v378h48v-380q0 -116 -53.5 -170t-162.5 -54q-112 0 -165.5 52z" />
    <glyph glyph-name="Wcircumflex" unicode="&#x174;" horiz-adv-x="1026" 
d="M3 682h49l242 -623l219 544l220 -543l240 622h50l-267 -685h-46l-197 484l-197 -484h-47zM101 682h49l145 -372l151 372h49l-201 -501zM532 682h49l151 -369l142 369h49l-190 -498zM427 889h55l-111 -157h-45zM540 889h55l102 -157h-45zM511 860l110 -128h-42l-68 74
l-67 -74h-42z" />
    <glyph glyph-name="wcircumflex" unicode="&#x175;" horiz-adv-x="1026" 
d="M3 682h49l242 -623l219 544l220 -543l240 622h50l-267 -685h-46l-197 484l-197 -484h-47zM101 682h49l145 -372l151 372h49l-201 -501zM532 682h49l151 -369l142 369h49l-190 -498zM427 889h55l-111 -157h-45zM540 889h55l102 -157h-45zM511 860l110 -128h-42l-68 74
l-67 -74h-42z" />
    <glyph glyph-name="Ycircumflex" unicode="&#x176;" horiz-adv-x="664" 
d="M260 339l-257 343h52l253 -334v-348h-48v339zM115 682h52l164 -224l167 224h52l-219 -293zM356 348l252 334h53l-257 -343v-339h-48v348zM242 889h55l-111 -157h-45zM355 889h55l102 -157h-45zM326 860l110 -128h-42l-68 74l-67 -74h-42z" />
    <glyph glyph-name="ycircumflex" unicode="&#x177;" horiz-adv-x="664" 
d="M260 339l-257 343h52l253 -334v-348h-48v339zM115 682h52l164 -224l167 224h52l-219 -293zM356 348l252 334h53l-257 -343v-339h-48v348zM242 889h55l-111 -157h-45zM355 889h55l102 -157h-45zM326 860l110 -128h-42l-68 74l-67 -74h-42z" />
    <glyph glyph-name="Ydieresis" unicode="&#x178;" horiz-adv-x="664" 
d="M260 339l-257 343h52l253 -334v-348h-48v339zM115 682h52l164 -224l167 224h52l-219 -293zM356 348l252 334h53l-257 -343v-339h-48v348zM171.5 757q-26.5 26 -26.5 61q0 36 26 61.5t62 25.5t61.5 -25.5t25.5 -61.5q0 -35 -25.5 -61t-61.5 -26q-35 0 -61.5 26zM364 757
q-26 26 -26 61q0 36 26 61.5t62 25.5q35 0 60.5 -25.5t25.5 -61.5q0 -35 -25.5 -61t-60.5 -26q-36 0 -62 26zM272 779.5q17 16.5 17 38.5q0 23 -17 39.5t-40 16.5q-22 0 -38.5 -16.5t-16.5 -39.5q0 -22 16.5 -38.5t38.5 -16.5q23 0 40 16.5zM465 779.5q16 16.5 16 38.5
q0 23 -16.5 39.5t-38.5 16.5q-23 0 -40 -16.5t-17 -39.5q0 -22 17 -38.5t40 -16.5t39 16.5zM215 801q-8 8 -8 18q0 9 8 16.5t18 7.5t17 -7t7 -17q0 -11 -7 -18.5t-17 -7.5t-18 8zM407.5 800.5q-7.5 7.5 -7.5 18.5q0 9 7.5 16.5t18.5 7.5q9 0 16.5 -7t7.5 -17q0 -11 -7 -18.5
t-17 -7.5q-11 0 -18.5 7.5z" />
    <glyph glyph-name="Zacute" unicode="&#x179;" horiz-adv-x="695" 
d="M593 640h-550v42h632l-405 -553h401v-42h-484zM426 553h-383v42h464l-406 -553h570v-42h-651zM323 887h55l-90 -155h-45zM439 887h60l-141 -155h-46z" />
    <glyph glyph-name="zacute" unicode="&#x17a;" horiz-adv-x="695" 
d="M593 640h-550v42h632l-405 -553h401v-42h-484zM426 553h-383v42h464l-406 -553h570v-42h-651zM323 887h55l-90 -155h-45zM439 887h60l-141 -155h-46z" />
    <glyph glyph-name="Zdotaccent" unicode="&#x17b;" horiz-adv-x="695" 
d="M593 640h-550v42h632l-405 -553h401v-42h-484zM426 553h-383v42h464l-406 -553h570v-42h-651zM282 761.5q-26 25.5 -26 60.5q0 36 25.5 61.5t61.5 25.5t61.5 -25t25.5 -62q0 -35 -25.5 -60.5t-61.5 -25.5q-35 0 -61 25.5zM382.5 783.5q16.5 16.5 16.5 38.5
q0 23 -16.5 39.5t-39.5 16.5t-39.5 -16.5t-16.5 -39.5q0 -22 16.5 -38.5t39.5 -16.5t39.5 16.5zM325 805q-8 8 -8 18t7.5 17t18.5 7q10 0 17.5 -7t7.5 -17t-7.5 -18t-17.5 -8t-18 8z" />
    <glyph glyph-name="zdotaccent" unicode="&#x17c;" horiz-adv-x="695" 
d="M593 640h-550v42h632l-405 -553h401v-42h-484zM426 553h-383v42h464l-406 -553h570v-42h-651zM282 761.5q-26 25.5 -26 60.5q0 36 25.5 61.5t61.5 25.5t61.5 -25t25.5 -62q0 -35 -25.5 -60.5t-61.5 -25.5q-35 0 -61 25.5zM382.5 783.5q16.5 16.5 16.5 38.5
q0 23 -16.5 39.5t-39.5 16.5t-39.5 -16.5t-16.5 -39.5q0 -22 16.5 -38.5t39.5 -16.5t39.5 16.5zM325 805q-8 8 -8 18t7.5 17t18.5 7q10 0 17.5 -7t7.5 -17t-7.5 -18t-17.5 -8t-18 8z" />
    <glyph glyph-name="Zcaron" unicode="&#x17d;" horiz-adv-x="695" 
d="M593 640h-550v42h632l-405 -553h401v-42h-484zM426 553h-383v42h464l-406 -553h570v-42h-651zM157 889h45l112 -157h-55zM233 889h42l68 -73l67 73h42l-109 -127zM483 889h45l-101 -157h-55z" />
    <glyph glyph-name="zcaron" unicode="&#x17e;" horiz-adv-x="695" 
d="M593 640h-550v42h632l-405 -553h401v-42h-484zM426 553h-383v42h464l-406 -553h570v-42h-651zM157 889h45l112 -157h-55zM233 889h42l68 -73l67 73h42l-109 -127zM483 889h45l-101 -157h-55z" />
    <glyph glyph-name="longs" unicode="&#x17f;" horiz-adv-x="513" 
d="M51 153v52q40 -45 89 -70t99 -25q37 0 59 18.5t22 48.5q0 22 -8.5 38t-36.5 38t-88 56q-75 42 -106.5 89.5t-31.5 112.5q0 51 27 92t76.5 64.5t112.5 23.5q91 0 173 -47v-49q-38 27 -84 41t-88 14q-76 0 -122.5 -38t-46.5 -100q0 -58 28 -95t91 -74q62 -37 93.5 -61.5
t44 -48t12.5 -56.5q0 -48 -35 -78t-90 -30q-108 0 -190 84zM51 49v48q41 -32 87.5 -48t104.5 -16q79 0 126.5 40t47.5 105q0 43 -14.5 73t-47.5 57t-98 66q-47 27 -71 49t-32.5 42.5t-8.5 47.5q0 45 33 72t91 27q42 0 86 -14.5t83 -45.5v-52q-77 71 -168 71q-38 0 -58 -15.5
t-20 -42.5q0 -18 5.5 -31.5t26 -31.5t63.5 -42q71 -39 109.5 -74t53 -71.5t14.5 -85.5q0 -53 -27 -95.5t-76.5 -66.5t-115.5 -24q-111 0 -194 58z" />
    <glyph glyph-name="uni018F" unicode="&#x18f;" horiz-adv-x="765" 
d="M127 87q-89 96 -90 275h545q-5 98 -73.5 153t-182.5 55q-56 0 -118.5 -19t-120.5 -55v45q129 70 244 70q93 0 161.5 -35t104.5 -98.5t33 -148.5h-545q7 -148 81.5 -225t210.5 -77q92 0 160.5 39t105.5 111.5t37 170.5q0 89 -42.5 158t-119.5 107t-176 38q-130 0 -255 -64
v41q112 63 260 63q116 0 202.5 -45t132.5 -123t46 -175q0 -105 -42.5 -186t-122 -126t-186.5 -45q-161 0 -250 96zM213 125.5q-62 58.5 -75 167.5h489q-13 -106 -79.5 -166t-171.5 -60q-101 0 -163 58.5zM506 143q52 40 70 117h-387q15 -77 63 -117t124 -40q78 0 130 40z
" />
    <glyph glyph-name="florin" unicode="&#x192;" horiz-adv-x="535" 
d="M120 420h97l14 71q14 72 33 114.5t51 64t85 21.5q52 0 117 -22l-10 -39q-27 11 -54.5 16.5t-48.5 5.5q-41 0 -65.5 -15t-40 -52t-28.5 -106l-20 -97h-137zM311 482q11 56 23 85.5t30.5 42t49.5 12.5q16 0 42 -5t44 -13l-10 -38q-43 18 -71 18q-29 0 -43.5 -24t-26.5 -86
l-10 -54h99l-8 -38h-139zM37 -227q-26 4 -64 13l9 37q56 -15 107 -15q52 0 81 39t46 135l70 375h139l-7 -39h-99l-64 -343q-20 -112 -58.5 -159t-102.5 -47q-31 0 -57 4zM-11 -148l9 37q39 -13 69 -13q19 0 32 11.5t23.5 41t19.5 85.5l55 304h-97l8 39h136l-64 -355
q-16 -92 -40 -128t-66 -36q-35 0 -85 14z" />
    <glyph glyph-name="Ohorn" unicode="&#x1a0;" horiz-adv-x="863" 
d="M210.5 38.5q-82.5 47.5 -128 127t-45.5 173.5q0 91 43.5 172t126.5 130.5t196 49.5q80 0 148.5 -27t118.5 -75q46 6 67 40.5t21 114.5h42q0 -72 -14 -112t-48 -58.5t-96 -20.5q-44 45 -105.5 70.5t-132.5 25.5q-100 0 -172 -44t-109.5 -115t-37.5 -152q0 -82 39.5 -152
t111 -111.5t163.5 -41.5q100 0 174 42.5t113 113.5t39 152q0 110 -63 188q95 3 134 53t39 162h41q0 -112 -37.5 -168t-110.5 -68q45 -76 45 -166q0 -93 -45 -173.5t-130.5 -129t-199.5 -48.5q-105 0 -187.5 47.5zM268.5 108q-61.5 34 -98 94.5t-36.5 135.5t33 136.5
t94.5 97.5t144.5 36q84 0 145.5 -40t93 -101.5t31.5 -124.5q0 -86 -37 -146.5t-99.5 -91t-138.5 -30.5q-71 0 -132.5 34zM516.5 142.5q51.5 26.5 81.5 77.5t30 122q0 56 -26 107.5t-76.5 84t-119.5 32.5t-119.5 -29.5t-77.5 -81t-27 -115.5q0 -65 29.5 -116t80 -79.5
t110.5 -28.5q63 0 114.5 26.5z" />
    <glyph glyph-name="ohorn" unicode="&#x1a1;" horiz-adv-x="863" 
d="M210.5 38.5q-82.5 47.5 -128 127t-45.5 173.5q0 91 43.5 172t126.5 130.5t196 49.5q80 0 148.5 -27t118.5 -75q46 6 67 40.5t21 114.5h42q0 -72 -14 -112t-48 -58.5t-96 -20.5q-44 45 -105.5 70.5t-132.5 25.5q-100 0 -172 -44t-109.5 -115t-37.5 -152q0 -82 39.5 -152
t111 -111.5t163.5 -41.5q100 0 174 42.5t113 113.5t39 152q0 110 -63 188q95 3 134 53t39 162h41q0 -112 -37.5 -168t-110.5 -68q45 -76 45 -166q0 -93 -45 -173.5t-130.5 -129t-199.5 -48.5q-105 0 -187.5 47.5zM268.5 108q-61.5 34 -98 94.5t-36.5 135.5t33 136.5
t94.5 97.5t144.5 36q84 0 145.5 -40t93 -101.5t31.5 -124.5q0 -86 -37 -146.5t-99.5 -91t-138.5 -30.5q-71 0 -132.5 34zM516.5 142.5q51.5 26.5 81.5 77.5t30 122q0 56 -26 107.5t-76.5 84t-119.5 32.5t-119.5 -29.5t-77.5 -81t-27 -115.5q0 -65 29.5 -116t80 -79.5
t110.5 -28.5q63 0 114.5 26.5z" />
    <glyph glyph-name="Uhorn" unicode="&#x1af;" horiz-adv-x="873" 
d="M149.5 68q-80.5 77 -80.5 226v388h48v-383q0 -128 66.5 -197t200.5 -69q137 0 201.5 69.5t64.5 196.5v229q81 0 125.5 20.5t63.5 67t19 128.5h42q0 -90 -18.5 -141t-62 -76t-121.5 -32v-201q0 -145 -78.5 -224t-234.5 -79q-155 0 -235.5 77zM650 682h48v-89q44 5 64 39
t20 112h41q1 -75 -15 -115t-53 -57t-105 -17v127zM219.5 130q-53.5 52 -53.5 172v380h48v-378q0 -100 41 -142t130 -42q88 0 128 42t40 142v378h48v-380q0 -116 -53.5 -170t-162.5 -54q-112 0 -165.5 52z" />
    <glyph glyph-name="uhorn" unicode="&#x1b0;" horiz-adv-x="873" 
d="M149.5 68q-80.5 77 -80.5 226v388h48v-383q0 -128 66.5 -197t200.5 -69q137 0 201.5 69.5t64.5 196.5v229q81 0 125.5 20.5t63.5 67t19 128.5h42q0 -90 -18.5 -141t-62 -76t-121.5 -32v-201q0 -145 -78.5 -224t-234.5 -79q-155 0 -235.5 77zM650 682h48v-89q44 5 64 39
t20 112h41q1 -75 -15 -115t-53 -57t-105 -17v127zM219.5 130q-53.5 52 -53.5 172v380h48v-378q0 -100 41 -142t130 -42q88 0 128 42t40 142v378h48v-380q0 -116 -53.5 -170t-162.5 -54q-112 0 -165.5 52z" />
    <glyph glyph-name="Aringacute" unicode="&#x1fa;" 
d="M738 0h-52l-289 643h-66l-277 -643h-51l293 673q-34 31 -34 77q0 44 30.5 74t73.5 30q44 0 74.5 -30.5t30.5 -73.5q0 -24 -9.5 -44.5t-27.5 -34.5zM322.5 794q-17.5 -18 -17.5 -44t17.5 -44t43.5 -18t44.5 18t18.5 44t-18.5 44t-44.5 18t-43.5 -18zM379 592l145 -334
h-310l135 334h30zM460 298l-96 222l-86 -222h182zM543 214l91 -214h-52l-72 173h-281l-71 -173h-52l88 214h349zM360 994h55l-70 -125h-45zM468 994h59l-112 -125h-46z" />
    <glyph glyph-name="aringacute" unicode="&#x1fb;" 
d="M738 0h-52l-289 643h-66l-277 -643h-51l293 673q-34 31 -34 77q0 44 30.5 74t73.5 30q44 0 74.5 -30.5t30.5 -73.5q0 -24 -9.5 -44.5t-27.5 -34.5zM322.5 794q-17.5 -18 -17.5 -44t17.5 -44t43.5 -18t44.5 18t18.5 44t-18.5 44t-44.5 18t-43.5 -18zM379 592l145 -334
h-310l135 334h30zM460 298l-96 222l-86 -222h182zM543 214l91 -214h-52l-72 173h-281l-71 -173h-52l88 214h349zM360 994h55l-70 -125h-45zM468 994h59l-112 -125h-46z" />
    <glyph glyph-name="AEacute" unicode="&#x1fc;" horiz-adv-x="976" 
d="M399 682h499v-42h-469l-354 -607h50l143 243h270v-234h369v-42h-416v235h-193l-138 -235h-157zM455 602h83v-287h-248zM585 602h313v-42h-266v-154h253v-41h-300v237zM491 355v205h-11l-115 -205h126zM585 326h300v-43h-253v-160h275v-42h-322v245zM583 887h55l-90 -155
h-45zM699 887h60l-141 -155h-46z" />
    <glyph glyph-name="aeacute" unicode="&#x1fd;" horiz-adv-x="976" 
d="M399 682h499v-42h-469l-354 -607h50l143 243h270v-234h369v-42h-416v235h-193l-138 -235h-157zM455 602h83v-287h-248zM585 602h313v-42h-266v-154h253v-41h-300v237zM491 355v205h-11l-115 -205h126zM585 326h300v-43h-253v-160h275v-42h-322v245zM583 887h55l-90 -155
h-45zM699 887h60l-141 -155h-46z" />
    <glyph glyph-name="Oslashacute" unicode="&#x1fe;" horiz-adv-x="810" 
d="M88 6l65 74q-56 49 -86 116t-30 143q0 91 43.5 172t126.5 130.5t196 49.5q129 0 227 -69l66 73l30 -28l-64 -71q53 -48 82 -113.5t29 -140.5q0 -93 -45 -173.5t-130.5 -129t-199.5 -48.5q-122 0 -213 63l-67 -75zM573 75.5q74 42.5 113 113.5t39 152q0 85 -41 155.5
t-114.5 111.5t-165.5 41q-100 0 -172 -44t-109.5 -115t-37.5 -152q0 -82 39.5 -152t111 -111.5t163.5 -41.5q100 0 174 42.5zM268.5 108q-61.5 34 -98 94.5t-36.5 135.5t33 136.5t94.5 97.5t144.5 36q84 0 145.5 -40t93 -101.5t31.5 -124.5q0 -86 -37 -146.5t-99.5 -91
t-138.5 -30.5q-71 0 -132.5 34zM540 523q-54 43 -134 43q-69 0 -119.5 -29.5t-77.5 -81t-27 -115.5q0 -47 17 -87t47 -69zM516.5 142.5q51.5 26.5 81.5 77.5t30 122q0 40 -16 80t-45 70l-293 -337q58 -39 128 -39q63 0 114.5 26.5zM398 887h55l-90 -155h-45zM514 887h60
l-141 -155h-46z" />
    <glyph glyph-name="oslashacute" unicode="&#x1ff;" horiz-adv-x="810" 
d="M88 6l65 74q-56 49 -86 116t-30 143q0 91 43.5 172t126.5 130.5t196 49.5q129 0 227 -69l66 73l30 -28l-64 -71q53 -48 82 -113.5t29 -140.5q0 -93 -45 -173.5t-130.5 -129t-199.5 -48.5q-122 0 -213 63l-67 -75zM573 75.5q74 42.5 113 113.5t39 152q0 85 -41 155.5
t-114.5 111.5t-165.5 41q-100 0 -172 -44t-109.5 -115t-37.5 -152q0 -82 39.5 -152t111 -111.5t163.5 -41.5q100 0 174 42.5zM268.5 108q-61.5 34 -98 94.5t-36.5 135.5t33 136.5t94.5 97.5t144.5 36q84 0 145.5 -40t93 -101.5t31.5 -124.5q0 -86 -37 -146.5t-99.5 -91
t-138.5 -30.5q-71 0 -132.5 34zM540 523q-54 43 -134 43q-69 0 -119.5 -29.5t-77.5 -81t-27 -115.5q0 -47 17 -87t47 -69zM516.5 142.5q51.5 26.5 81.5 77.5t30 122q0 40 -16 80t-45 70l-293 -337q58 -39 128 -39q63 0 114.5 26.5zM398 887h55l-90 -155h-45zM514 887h60
l-141 -155h-46z" />
    <glyph glyph-name="Scommaaccent" unicode="&#x218;" horiz-adv-x="513" 
d="M51 153v52q40 -45 89 -70t99 -25q37 0 59 18.5t22 48.5q0 22 -8.5 38t-36.5 38t-88 56q-75 42 -106.5 89.5t-31.5 112.5q0 51 27 92t76.5 64.5t112.5 23.5q91 0 173 -47v-49q-38 27 -84 41t-88 14q-76 0 -122.5 -38t-46.5 -100q0 -58 28 -95t91 -74q62 -37 93.5 -61.5
t44 -48t12.5 -56.5q0 -48 -35 -78t-90 -30q-108 0 -190 84zM51 49v48q41 -32 87.5 -48t104.5 -16q79 0 126.5 40t47.5 105q0 43 -14.5 73t-47.5 57t-98 66q-47 27 -71 49t-32.5 42.5t-8.5 47.5q0 45 33 72t91 27q42 0 86 -14.5t83 -45.5v-52q-77 71 -168 71q-38 0 -58 -15.5
t-20 -42.5q0 -18 5.5 -31.5t26 -31.5t63.5 -42q71 -39 109.5 -74t53 -71.5t14.5 -85.5q0 -53 -27 -95.5t-76.5 -66.5t-115.5 -24q-111 0 -194 58zM192 -250q28 16 38 33.5t10 42.5q-79 8 -79 68q0 31 24 53t62 22q45 0 70.5 -25t25.5 -70q0 -56 -41 -89t-110 -38v3z
M310 -126q0 37 -16 52t-47 15q-26 0 -39.5 -13.5t-13.5 -33.5q0 -22 16 -33t58 -13q0 -35 -11 -61q53 30 53 87zM239 -123q-9 3 -9 17q0 8 5.5 14.5t13.5 6.5t13.5 -6.5t5.5 -16.5v-19q-20 1 -29 4z" />
    <glyph glyph-name="scommaaccent" unicode="&#x219;" horiz-adv-x="513" 
d="M51 153v52q40 -45 89 -70t99 -25q37 0 59 18.5t22 48.5q0 22 -8.5 38t-36.5 38t-88 56q-75 42 -106.5 89.5t-31.5 112.5q0 51 27 92t76.5 64.5t112.5 23.5q91 0 173 -47v-49q-38 27 -84 41t-88 14q-76 0 -122.5 -38t-46.5 -100q0 -58 28 -95t91 -74q62 -37 93.5 -61.5
t44 -48t12.5 -56.5q0 -48 -35 -78t-90 -30q-108 0 -190 84zM51 49v48q41 -32 87.5 -48t104.5 -16q79 0 126.5 40t47.5 105q0 43 -14.5 73t-47.5 57t-98 66q-47 27 -71 49t-32.5 42.5t-8.5 47.5q0 45 33 72t91 27q42 0 86 -14.5t83 -45.5v-52q-77 71 -168 71q-38 0 -58 -15.5
t-20 -42.5q0 -18 5.5 -31.5t26 -31.5t63.5 -42q71 -39 109.5 -74t53 -71.5t14.5 -85.5q0 -53 -27 -95.5t-76.5 -66.5t-115.5 -24q-111 0 -194 58zM192 -250q28 16 38 33.5t10 42.5q-79 8 -79 68q0 31 24 53t62 22q45 0 70.5 -25t25.5 -70q0 -56 -41 -89t-110 -38v3z
M310 -126q0 37 -16 52t-47 15q-26 0 -39.5 -13.5t-13.5 -33.5q0 -22 16 -33t58 -13q0 -35 -11 -61q53 30 53 87zM239 -123q-9 3 -9 17q0 8 5.5 14.5t13.5 6.5t13.5 -6.5t5.5 -16.5v-19q-20 1 -29 4z" />
    <glyph glyph-name="uni021A" unicode="&#x21a;" horiz-adv-x="640" 
d="M20 682h600v-42h-600v42zM246 554h-226v42h274v-596h-48v554zM343 596h277v-42h-230v-554h-47v596zM260 -250q28 16 38 33.5t10 42.5q-79 8 -79 68q0 31 24 53t62 22q45 0 70.5 -25t25.5 -70q0 -56 -41 -89t-110 -38v3zM378 -126q0 37 -16 52t-47 15q-26 0 -39.5 -13.5
t-13.5 -33.5q0 -22 16 -33t58 -13q0 -35 -11 -61q53 30 53 87zM307 -123q-9 3 -9 17q0 8 5.5 14.5t13.5 6.5t13.5 -6.5t5.5 -16.5v-19q-20 1 -29 4z" />
    <glyph glyph-name="uni021B" unicode="&#x21b;" horiz-adv-x="640" 
d="M20 682h600v-42h-600v42zM246 554h-226v42h274v-596h-48v554zM343 596h277v-42h-230v-554h-47v596zM260 -250q28 16 38 33.5t10 42.5q-79 8 -79 68q0 31 24 53t62 22q45 0 70.5 -25t25.5 -70q0 -56 -41 -89t-110 -38v3zM378 -126q0 37 -16 52t-47 15q-26 0 -39.5 -13.5
t-13.5 -33.5q0 -22 16 -33t58 -13q0 -35 -11 -61q53 30 53 87zM307 -123q-9 3 -9 17q0 8 5.5 14.5t13.5 6.5t13.5 -6.5t5.5 -16.5v-19q-20 1 -29 4z" />
    <glyph glyph-name="uni0237" unicode="&#x237;" horiz-adv-x="329" 
d="M-31 -101q63 0 90.5 9t37 34.5t9.5 84.5v655h48v-657q0 -69 -14 -104t-50 -49.5t-107 -14.5zM-5 -188q78 2 122 19t65 61t21 127v663h47v-666q0 -81 -20.5 -133.5t-73 -82t-147.5 -30.5z" />
    <glyph glyph-name="uni0259" unicode="&#x259;" horiz-adv-x="765" 
d="M127 87q-89 96 -90 275h545q-5 98 -73.5 153t-182.5 55q-56 0 -118.5 -19t-120.5 -55v45q129 70 244 70q93 0 161.5 -35t104.5 -98.5t33 -148.5h-545q7 -148 81.5 -225t210.5 -77q92 0 160.5 39t105.5 111.5t37 170.5q0 89 -42.5 158t-119.5 107t-176 38q-130 0 -255 -64
v41q112 63 260 63q116 0 202.5 -45t132.5 -123t46 -175q0 -105 -42.5 -186t-122 -126t-186.5 -45q-161 0 -250 96zM213 125.5q-62 58.5 -75 167.5h489q-13 -106 -79.5 -166t-171.5 -60q-101 0 -163 58.5zM506 143q52 40 70 117h-387q15 -77 63 -117t124 -40q78 0 130 40z
" />
    <glyph glyph-name="afii57929" unicode="&#x2bc;" horiz-adv-x="263" 
d="M43 397q28 20 45 52t20 71q-39 7 -58.5 29t-19.5 55q0 36 26.5 62t67.5 26q48 0 77.5 -34t29.5 -87q0 -72 -52 -123t-136 -63v12zM176 499q19 34 19 72q0 41 -19.5 63.5t-51.5 22.5q-28 0 -43 -15.5t-15 -37.5q0 -26 18 -40.5t61 -16.5q0 -29 -6 -55t-22 -54q40 27 59 61
zM107 603q0 9 6 15t13 6q18 0 18 -26v-20q-37 0 -37 25z" />
    <glyph glyph-name="circumflex" unicode="&#x2c6;" horiz-adv-x="333" 
d="M82 687h55l-104 -158h-45zM195 687h55l95 -158h-45zM166 657l103 -128h-42l-60 72l-61 -72h-42z" />
    <glyph glyph-name="caron" unicode="&#x2c7;" horiz-adv-x="333" 
d="M-12 687h45l105 -158h-55zM64 687h42l60 -72l61 72h42l-102 -128zM300 687h45l-94 -158h-55z" />
    <glyph glyph-name="uni02C9" unicode="&#x2c9;" horiz-adv-x="333" 
d="M19 665h295v-41h-295v41zM19 591h295v-41h-295v41z" />
    <glyph glyph-name="breve" unicode="&#x2d8;" horiz-adv-x="333" 
d="M51.5 565q-45.5 41 -56.5 116h41q12 -54 45.5 -85t84.5 -31q52 0 87.5 32.5t44.5 83.5h41q-10 -72 -57 -114.5t-116 -42.5t-114.5 41zM108.5 623.5q-23.5 19.5 -32.5 57.5h40q13 -36 52 -36q21 0 32 8.5t17 27.5h40q-10 -39 -31 -58t-58 -19q-36 0 -59.5 19.5z" />
    <glyph glyph-name="dotaccent" unicode="&#x2d9;" horiz-adv-x="333" 
d="M105 561.5q-26 25.5 -26 60.5q0 36 26 61.5t61 25.5q36 0 61.5 -25.5t25.5 -61.5q0 -35 -25.5 -60.5t-61.5 -25.5q-35 0 -61 25.5zM205.5 583.5q16.5 16.5 16.5 38.5q0 23 -16.5 39.5t-39.5 16.5t-39.5 -16.5t-16.5 -39.5q0 -22 16.5 -38.5t39.5 -16.5t39.5 16.5z
M148 605q-8 8 -8 18t7.5 17t18.5 7q10 0 17.5 -7t7.5 -17t-7.5 -18t-17.5 -8t-18 8z" />
    <glyph glyph-name="ring" unicode="&#x2da;" horiz-adv-x="333" 
d="M92.5 555.5q-30.5 30.5 -30.5 73.5q0 44 30.5 74.5t73.5 30.5q44 0 74.5 -30.5t30.5 -74.5q0 -43 -30.5 -73.5t-74.5 -30.5q-43 0 -73.5 30.5zM210.5 585q18.5 18 18.5 44t-18.5 44.5t-44.5 18.5q-25 0 -43 -18.5t-18 -44.5t18 -44t43 -18q26 0 44.5 18z" />
    <glyph glyph-name="ogonek" unicode="&#x2db;" horiz-adv-x="333" 
d="M95 -173.5q-32 29.5 -32 81.5q0 47 31 92h41q-32 -44 -32 -88q0 -77 93 -77q43 0 82 22v-40q-45 -20 -92 -20q-59 0 -91 29.5zM161 -113.5q-17 17.5 -17 48.5q0 28 23 65h40q-23 -34 -23 -55q0 -38 39 -38q23 0 55 16v-37q-37 -17 -71 -17q-29 0 -46 17.5z" />
    <glyph glyph-name="tilde" unicode="&#x2dc;" horiz-adv-x="333" 
d="M3.5 653q34.5 42 86.5 42q24 0 46 -6.5t50 -18.5q27 -12 38 -12q14 0 21.5 9t9.5 30h42q-5 -82 -64 -82q-12 0 -28.5 5.5t-32.5 12.5q-25 10 -42 15.5t-35 5.5q-37 0 -60 -26.5t-24 -87.5h-42q0 71 34.5 113zM55 605q16 18 44 18q15 0 31.5 -5t38.5 -15q25 -10 40 -15
t30 -5q35 0 57.5 29t25.5 85h42q-1 -72 -35.5 -113.5t-84.5 -41.5q-22 0 -42 6t-45 17q-14 6 -27 10.5t-22 4.5q-14 0 -22 -9t-9 -31h-42q4 47 20 65z" />
    <glyph glyph-name="hungarumlaut" unicode="&#x2dd;" horiz-adv-x="333" 
d="M81 687h48l-63 -158h-36zM182 687h51l-106 -158h-37zM275 687h47l-71 -158h-37zM375 687h51l-114 -158h-37z" />
    <glyph glyph-name="gravecomb" unicode="&#x300;" horiz-adv-x="0" 
d="M-430 684h59l113 -154h-47zM-318 684h56l73 -154h-45z" />
    <glyph glyph-name="acutecomb" unicode="&#x301;" horiz-adv-x="0" 
d="M-308 684h55l-91 -154h-44zM-193 684h61l-141 -154h-46z" />
    <glyph glyph-name="tildecomb" unicode="&#x303;" horiz-adv-x="0" 
d="M-441 653q34 42 86 42q25 0 47.5 -7t48.5 -18q5 -2 18 -7t21 -5q14 0 21.5 9t9.5 30h41q-4 -82 -63 -82q-22 0 -60 18q-26 10 -43.5 15.5t-35.5 5.5q-36 0 -59 -26.5t-25 -87.5h-42q1 71 35 113zM-389 605q16 18 44 18q15 0 31 -5t38 -15q24 -10 40 -15t31 -5
q34 0 57 29.5t26 84.5h42q-1 -72 -35.5 -113.5t-84.5 -41.5q-22 0 -40.5 5.5t-47.5 17.5q-14 6 -27 10.5t-22 4.5q-14 0 -22 -9t-9 -31h-42q5 47 21 65z" />
    <glyph glyph-name="uni0304" unicode="&#x304;" horiz-adv-x="0" 
d="M-302 624h271v-30h-271v30zM-302 561h271v-30h-271v30z" />
    <glyph glyph-name="hookabovecomb" unicode="&#x309;" horiz-adv-x="0" 
d="M-275 550q41 -1 65 18t24 52q0 38 -27.5 59t-81.5 21q-51 0 -86 -8v35q45 8 92 8q69 0 104.5 -30.5t35.5 -84.5q0 -40 -25.5 -65.5t-67.5 -30.5v-18h-33v44zM-344 597h34q17 0 26.5 5t9.5 14q0 11 -10.5 15.5t-37.5 4.5q-37 0 -59 -6v34q32 6 61 6q44 0 63.5 -13
t19.5 -38q0 -23 -18 -37t-56 -15v-61h-33v91z" />
    <glyph glyph-name="dotbelowcomb" unicode="&#x323;" horiz-adv-x="0" 
d="M-356 -193q-26 26 -26 61q0 36 26 61.5t61 25.5q37 0 62 -25.5t25 -61.5t-25.5 -61.5t-61.5 -25.5q-35 0 -61 26zM-256 -171.5q17 16.5 17 39.5q0 22 -16.5 38.5t-39.5 16.5t-39.5 -16.5t-16.5 -38.5q0 -23 16.5 -39.5t39.5 -16.5q22 0 39 16.5zM-313.5 -149.5
q-7.5 7.5 -7.5 17.5t8 17.5t18 7.5t17.5 -7.5t7.5 -17.5t-7.5 -17.5t-17.5 -7.5q-11 0 -18.5 7.5z" />
    <glyph glyph-name="uni0326" unicode="&#x326;" horiz-adv-x="0" 
d="M-197 -250q28 16 38 33.5t10 42.5q-79 8 -79 68q0 31 24 53t62 22q45 0 70.5 -25t25.5 -70q0 -56 -41 -89t-110 -38v3zM-79 -126q0 37 -16 52t-47 15q-26 0 -39.5 -13.5t-13.5 -33.5q0 -22 16 -33t58 -13q0 -35 -11 -61q53 30 53 87zM-150 -123q-9 3 -9 17q0 8 5.5 14.5
t13.5 6.5t13.5 -6.5t5.5 -16.5v-19q-20 1 -29 4z" />
    <glyph glyph-name="uni0374" unicode="&#x374;" horiz-adv-x="243" 
d="M64 682h49l-48 -179h-38zM167 682h52l-91 -179h-39z" />
    <glyph glyph-name="uni0375" unicode="&#x375;" horiz-adv-x="243" 
d="M114 85h39l-80 -179h-53zM177 85h39l-41 -179h-49z" />
    <glyph glyph-name="uni037E" unicode="&#x37e;" horiz-adv-x="279" 
d="M56 -141q38 27 58.5 61t24.5 80q-92 14 -92 94q0 43 30.5 73t77.5 30q56 0 89.5 -38t33.5 -100q0 -55 -27.5 -101t-78 -76.5t-116.5 -39.5v17zM236 59q0 45 -22.5 71t-58.5 26q-31 0 -48.5 -18.5t-17.5 -43.5q0 -59 89 -63q0 -34 -7.5 -65t-27.5 -64q93 62 93 157z
M136 93q0 11 6 18t15 7q10 0 16 -8t6 -23v-23q-43 0 -43 29zM82 331.5q-31 30.5 -31 74.5q0 45 31 75.5t74 30.5t74.5 -30.5t31.5 -74.5t-31 -75t-75 -31q-43 0 -74 30.5zM201 362q19 19 19 45t-19 44.5t-45 18.5t-44.5 -18.5t-18.5 -45.5q0 -26 19 -44.5t44 -18.5
q26 0 45 19zM139 389q-7 7 -7 17t7 17.5t17 7.5t17.5 -7t7.5 -17t-7.5 -17.5t-17.5 -7.5t-17 7z" />
    <glyph glyph-name="tonos" unicode="&#x384;" horiz-adv-x="333" 
d="M138 683h52l-54 -149h-42zM243 683h56l-97 -149h-42z" />
    <glyph glyph-name="dieresistonos" unicode="&#x385;" horiz-adv-x="333" 
d="M-84.5 561q-26.5 26 -26.5 61q0 36 26 61.5t62 25.5t61.5 -25.5t25.5 -61.5q0 -35 -25.5 -61t-61.5 -26q-35 0 -61.5 26zM295.5 561q-26.5 26 -26.5 61q0 36 26 61.5t62 25.5t61.5 -25.5t25.5 -61.5q0 -35 -25.5 -61t-61.5 -26q-35 0 -61.5 26zM108 706h52l-40 -172h-42z
M214 706h55l-83 -172h-42zM16 582.5q17 16.5 17 39.5q0 22 -17 38.5t-40 16.5t-39 -16t-16 -39t16.5 -39.5t38.5 -16.5q23 0 40 16.5zM396 582.5q16 16.5 16 39.5t-16 39t-39 16t-39.5 -16.5t-16.5 -38.5t17 -39t39 -17q23 0 39 16.5zM-41.5 604q-7.5 8 -7.5 18t8 17.5
t18 7.5t17 -7.5t7 -17.5q0 -11 -7 -18.5t-17 -7.5q-11 0 -18.5 8zM339.5 603.5q-7.5 7.5 -7.5 18.5q0 10 7.5 17.5t17.5 7.5t17.5 -7.5t7.5 -17.5t-7.5 -18t-17.5 -8t-17.5 7.5z" />
    <glyph glyph-name="Alphatonos" unicode="&#x386;" horiz-adv-x="757" 
d="M317 688h128l309 -685h-51l-289 643h-66l-277 -643h-51zM366 594h29l146 -333h-310zM477 301l-96 222l-86 -222h182zM211 217h349l91 -214h-52l-72 173h-281l-71 -173h-53z" />
    <glyph glyph-name="anoteleia" unicode="&#x387;" horiz-adv-x="299" 
d="M75 321.5q-31 30.5 -31 74.5q0 45 31 75.5t74 30.5t74.5 -30.5t31.5 -74.5t-31 -75t-75 -31q-43 0 -74 30.5zM194 352q19 19 19 45t-19 44.5t-45 18.5t-44.5 -18.5t-18.5 -45.5q0 -26 19 -44.5t44 -18.5q26 0 45 19zM132 379q-7 7 -7 17t7 17.5t17 7.5t17.5 -7t7.5 -17
t-7.5 -17.5t-17.5 -7.5t-17 7z" />
    <glyph glyph-name="Epsilontonos" unicode="&#x388;" horiz-adv-x="1043" 
d="M224 682h426v-42h-378v-598h385v-42h-433v682zM321 596h329v-43h-282v-145h268v-42h-315v230zM321 322h315v-42h-268v-152h289v-42h-336v236z" />
    <glyph glyph-name="Etatonos" unicode="&#x389;" horiz-adv-x="1242" 
d="M226 682h48v-682h-48v682zM321 682h48v-272h342v272h48v-314h-438v314zM806 682h48v-682h-48v682zM321 322h438v-322h-48v280h-342v-280h-48v322z" />
    <glyph glyph-name="Iotatonos" unicode="&#x38a;" horiz-adv-x="778" 
d="M231 682h48v-682h-48v682zM327 682h48v-682h-48v682z" />
    <glyph glyph-name="Omicrontonos" unicode="&#x38c;" horiz-adv-x="1112" 
d="M296.5 38.5q-82.5 47.5 -128 127t-45.5 173.5q0 91 43.5 172t126.5 130.5t196 49.5q106 0 190.5 -46.5t132 -126.5t47.5 -176q0 -93 -45 -173.5t-130.5 -129t-199.5 -48.5q-105 0 -187.5 47.5zM659 75.5q74 42.5 113 113.5t39 152q0 85 -41 155.5t-114.5 111.5t-165.5 41
q-100 0 -172 -44t-109.5 -115t-37.5 -152q0 -82 39.5 -152t111 -111.5t163.5 -41.5q100 0 174 42.5zM354.5 108q-61.5 34 -98 94.5t-36.5 135.5t33 136.5t94.5 97.5t144.5 36q84 0 145.5 -40t93 -101.5t31.5 -124.5q0 -86 -37 -146.5t-99.5 -91t-138.5 -30.5
q-71 0 -132.5 34zM602.5 142.5q51.5 26.5 81.5 77.5t30 122q0 56 -26 107.5t-76.5 84t-119.5 32.5t-119.5 -29.5t-77.5 -81t-27 -115.5q0 -65 29.5 -116t80 -79.5t110.5 -28.5q63 0 114.5 26.5z" />
    <glyph glyph-name="Upsilontonos" unicode="&#x38e;" horiz-adv-x="1184" 
d="M472 339l-257 343h52l253 -334v-348h-48v339zM327 682h52l164 -224l167 224h52l-219 -293zM568 348l252 334h53l-257 -343v-339h-48v348z" />
    <glyph glyph-name="Omegatonos" unicode="&#x38f;" horiz-adv-x="1105" 
d="M146 118h115q-72 57 -98 119t-26 149t43.5 156.5t123.5 108.5t185 39q106 0 185 -39.5t121.5 -109t42.5 -157.5q0 -82 -28 -144t-98 -122h117v-39h-222q70 49 109 93.5t56.5 94t17.5 115.5q0 77 -37.5 137.5t-106 94.5t-157.5 34q-90 0 -159 -33.5t-107 -94t-38 -138.5
q0 -68 16 -117t55.5 -93.5t111.5 -92.5h-222v39zM146 40h254v50q-167 125 -167 288q0 68 32 119.5t89 80t131 28.5q77 0 135 -28t90 -79.5t32 -121.5q0 -86 -41.5 -154.5t-125.5 -132.5v-50h254v-40h-298v109q86 61 124.5 126t38.5 142q0 85 -55 136.5t-154 51.5
q-64 0 -110 -24.5t-70 -67t-24 -95.5q0 -155 163 -269v-109h-298v40z" />
    <glyph glyph-name="iotadieresistonos" unicode="&#x390;" horiz-adv-x="302" 
d="M79 682h48v-682h-48v682zM175 682h48v-682h-48v682zM-6.5 757q-26.5 26 -26.5 61q0 36 26 61.5t62 25.5t61.5 -25.5t25.5 -61.5q0 -35 -25.5 -61t-61.5 -26q-35 0 -61.5 26zM186 757q-26 26 -26 61q0 36 26 61.5t62 25.5q35 0 60.5 -25.5t25.5 -61.5q0 -35 -25.5 -61
t-60.5 -26q-36 0 -62 26zM94 779.5q17 16.5 17 38.5q0 23 -17 39.5t-40 16.5q-22 0 -38.5 -16.5t-16.5 -39.5q0 -22 16.5 -38.5t38.5 -16.5q23 0 40 16.5zM287 779.5q16 16.5 16 38.5q0 23 -16.5 39.5t-38.5 16.5q-23 0 -40 -16.5t-17 -39.5q0 -22 17 -38.5t40 -16.5
t39 16.5zM37 801q-8 8 -8 18q0 9 8 16.5t18 7.5t17 -7t7 -17q0 -11 -7 -18.5t-17 -7.5t-18 8zM229.5 800.5q-7.5 7.5 -7.5 18.5q0 9 7.5 16.5t18.5 7.5q9 0 16.5 -7t7.5 -17q0 -11 -7 -18.5t-17 -7.5q-11 0 -18.5 7.5z" />
    <glyph glyph-name="Alpha" unicode="&#x391;" 
d="M301 685h127l310 -685h-52l-289 643h-66l-277 -643h-51zM349 592h30l145 -334h-310zM460 298l-96 222l-86 -222h182zM194 214h349l91 -214h-52l-72 173h-281l-71 -173h-52z" />
    <glyph glyph-name="Beta" unicode="&#x392;" horiz-adv-x="636" 
d="M69 682h248q110 0 168 -49t58 -129q0 -50 -19.5 -85.5t-50.5 -54.5q125 -36 125 -174q0 -96 -73.5 -143t-191.5 -47h-264v682zM329 40q106 0 163.5 39.5t57.5 114.5q0 69 -39 109.5t-130 49.5q114 29 114 144q0 73 -50 109t-144 36h-184v-602h212zM166 603h123
q83 0 118.5 -27.5t35.5 -85.5q0 -59 -43 -90.5t-125 -31.5h-109v235zM278 406q61 0 89.5 22.5t28.5 59.5q0 42 -25.5 60.5t-82.5 18.5h-75v-161h65zM166 325h141q100 0 146 -31t46 -94q0 -62 -44.5 -92t-134.5 -30h-154v247zM308 115q75 0 109 21t34 67q0 43 -34 63.5
t-113 20.5h-91v-172h95z" />
    <glyph glyph-name="Gamma" unicode="&#x393;" horiz-adv-x="539" 
d="M69 682h450v-42h-402v-640h-48v682zM166 595h353v-42h-306v-553h-47v595z" />
    <glyph glyph-name="Delta" unicode="&#x394;" 
d="M301 685h127l310 -685h-735zM667 41l-270 602h-66l-257 -602h593zM349 592h30l219 -507h-457zM532 127l-168 393l-157 -393h325z" />
    <glyph glyph-name="Epsilon" unicode="&#x395;" horiz-adv-x="571" 
d="M69 682h426v-42h-378v-598h385v-42h-433v682zM166 596h329v-43h-282v-145h268v-42h-315v230zM166 322h315v-42h-268v-152h289v-42h-336v236z" />
    <glyph glyph-name="Zeta" unicode="&#x396;" horiz-adv-x="695" 
d="M593 640h-550v42h632l-405 -553h401v-42h-484zM426 553h-383v42h464l-406 -553h570v-42h-651z" />
    <glyph glyph-name="Eta" unicode="&#x397;" horiz-adv-x="766" 
d="M69 682h48v-682h-48v682zM164 682h48v-272h342v272h48v-314h-438v314zM649 682h48v-682h-48v682zM164 322h438v-322h-48v280h-342v-280h-48v322z" />
    <glyph glyph-name="Theta" unicode="&#x398;" horiz-adv-x="825" 
d="M215 38.5q-84 47.5 -131 127t-47 173.5q0 91 44 172t129 130.5t201 49.5q108 0 194 -46.5t134.5 -126.5t48.5 -176q0 -93 -46 -173.5t-133 -129t-203 -48.5q-107 0 -191 47.5zM585.5 73q76.5 43 117 114.5t40.5 153.5q0 86 -42.5 157t-118.5 112.5t-171 41.5
q-103 0 -177.5 -44t-113 -116t-38.5 -154q0 -83 41 -153.5t114.5 -112.5t168.5 -42q103 0 179.5 43zM272.5 108q-62.5 34 -100 94.5t-37.5 135.5t33.5 136.5t96.5 97.5t149 36t148.5 -40t95 -101.5t32.5 -124.5q0 -86 -38 -146.5t-102.5 -91t-141.5 -30.5q-73 0 -135.5 34z
M528.5 140q53.5 27 85 78.5t31.5 123.5q0 56 -27 108.5t-80 85.5t-125 33q-71 0 -124 -30t-81 -82t-28 -117q0 -66 30.5 -117.5t83 -80.5t115.5 -29q66 0 119.5 27zM246 400h335v-37h-335v37zM246 319h335v-37h-335v37z" />
    <glyph glyph-name="Iota" unicode="&#x399;" horiz-adv-x="302" 
d="M79 682h48v-682h-48v682zM175 682h48v-682h-48v682z" />
    <glyph glyph-name="Kappa" unicode="&#x39a;" horiz-adv-x="700" 
d="M69 682h48v-682h-48v682zM166 682h48v-308l268 308h56l-282 -328l324 -354h-60l-306 332v-332h-48v682zM312 358l293 324h56l-291 -323l337 -359h-61z" />
    <glyph glyph-name="Lambda" unicode="&#x39b;" horiz-adv-x="706" 
d="M324 685h52l327 -685h-51l-302 635l-296 -635h-51zM347 525h4l252 -525h-51l-201 428l-197 -428h-52z" />
    <glyph glyph-name="Mu" unicode="&#x39c;" horiz-adv-x="834" 
d="M69 682h136l213 -268l212 268h135v-682h-48v640h-66l-233 -294l-234 294h-67v-640h-48v682zM166 582h6l243 -306h6l241 306h6v-582h-48v464l-192 -244h-20l-195 244v-464h-47v582z" />
    <glyph glyph-name="Nu" unicode="&#x39d;" horiz-adv-x="814" 
d="M69 682h134l399 -467v467h48v-588l-471 546h-62v-640h-48v682zM164 586l470 -544h63v640h48v-682h-135l-399 468v-468h-47v586z" />
    <glyph glyph-name="Xi" unicode="&#x39e;" horiz-adv-x="694" 
d="M80 682h533v-40h-533v40zM80 602h533v-40h-533v40zM136 401h422v-40h-422v40zM136 321h422v-40h-422v40zM70 120h553v-40h-553v40zM70 40h553v-40h-553v40z" />
    <glyph glyph-name="Omicron" unicode="&#x39f;" horiz-adv-x="810" 
d="M210.5 38.5q-82.5 47.5 -128 127t-45.5 173.5q0 91 43.5 172t126.5 130.5t196 49.5q106 0 190.5 -46.5t132 -126.5t47.5 -176q0 -93 -45 -173.5t-130.5 -129t-199.5 -48.5q-105 0 -187.5 47.5zM573 75.5q74 42.5 113 113.5t39 152q0 85 -41 155.5t-114.5 111.5t-165.5 41
q-100 0 -172 -44t-109.5 -115t-37.5 -152q0 -82 39.5 -152t111 -111.5t163.5 -41.5q100 0 174 42.5zM268.5 108q-61.5 34 -98 94.5t-36.5 135.5t33 136.5t94.5 97.5t144.5 36q84 0 145.5 -40t93 -101.5t31.5 -124.5q0 -86 -37 -146.5t-99.5 -91t-138.5 -30.5
q-71 0 -132.5 34zM516.5 142.5q51.5 26.5 81.5 77.5t30 122q0 56 -26 107.5t-76.5 84t-119.5 32.5t-119.5 -29.5t-77.5 -81t-27 -115.5q0 -65 29.5 -116t80 -79.5t110.5 -28.5q63 0 114.5 26.5z" />
    <glyph glyph-name="Pi" unicode="&#x3a0;" horiz-adv-x="766" 
d="M69 682h628v-682h-48v640h-532v-640h-48v682zM164 594h438v-594h-48v552h-342v-552h-48v594z" />
    <glyph glyph-name="Rho" unicode="&#x3a1;" horiz-adv-x="596" 
d="M69 682h247q116 0 179 -58.5t63 -159.5q0 -106 -66.5 -161.5t-190.5 -55.5h-88v-247h-47v289h130q108 0 161 43.5t53 132.5q0 84 -52.5 129.5t-152.5 45.5h-188v-640h-48v682zM166 596h126q85 0 126.5 -32t41.5 -99q0 -69 -40.5 -100.5t-127.5 -31.5h-126v263zM292 374
q69 0 95 23t26 69q0 43 -27.5 65.5t-93.5 22.5h-79v-180h79z" />
    <glyph glyph-name="Sigma" unicode="&#x3a3;" horiz-adv-x="690" 
d="M316 328l-289 354h597v-40h-506l255 -315l-260 -287h532v-40h-625zM429 326l-223 276h418v-40h-330l191 -236l-185 -206h345v-40h-437z" />
    <glyph glyph-name="Tau" unicode="&#x3a4;" horiz-adv-x="640" 
d="M20 682h600v-42h-600v42zM246 554h-226v42h274v-596h-48v554zM343 596h277v-42h-230v-554h-47v596z" />
    <glyph glyph-name="Upsilon" unicode="&#x3a5;" horiz-adv-x="664" 
d="M260 339l-257 343h52l253 -334v-348h-48v339zM115 682h52l164 -224l167 224h52l-219 -293zM356 348l252 334h53l-257 -343v-339h-48v348z" />
    <glyph glyph-name="Phi" unicode="&#x3a6;" horiz-adv-x="835" 
d="M346 94q-92 4 -162 37.5t-108.5 90t-38.5 127.5q0 69 36.5 123t106.5 86.5t166 37.5v92h48v-130q-147 -1 -228 -56.5t-81 -154.5q0 -67 37.5 -115.5t107.5 -74t164 -24.5v-139h-48v100zM441 133q96 -2 165.5 24t106.5 75.5t37 116.5q0 64 -38 111.5t-108 73t-163 24.5
v130h48v-92q92 -4 162.5 -37t108.5 -88t38 -122q0 -70 -36.5 -126.5t-106 -91t-166.5 -37.5v-100h-48v139zM441 518q76 3 134.5 -17.5t91.5 -60.5t33 -93q0 -56 -32.5 -96.5t-91 -60.5t-135.5 -18v346zM256.5 189.5q-58.5 20.5 -90 60.5t-31.5 96t32.5 95.5t91 59.5
t135.5 17v-346q-79 -3 -137.5 17.5zM346 478q-78 -2 -121.5 -38.5t-43.5 -93.5q0 -56 41.5 -93t123.5 -40v265zM611 251.5q43 36.5 43 95.5t-47 93.5t-118 36.5v-264q79 2 122 38.5z" />
    <glyph glyph-name="Chi" unicode="&#x3a7;" horiz-adv-x="767" 
d="M302 353l-278 329h55l279 -329l-300 -353h-55zM134 682h55l196 -237l196 237h55l-251 -298zM412 353l279 329h54l-278 -329l297 -353h-55zM385 319l271 -319h-55l-216 259l-218 -259h-54z" />
    <glyph glyph-name="Psi" unicode="&#x3a8;" horiz-adv-x="809" 
d="M229 231q-52 37 -73.5 115t-23.5 222h48q0 -108 14 -177.5t47.5 -108.5t91.5 -48v454h48v-502q-100 8 -152 45zM428 688h48v-454q58 9 91.5 48t47.5 108.5t14 177.5h48q0 -143 -22 -222.5t-75.5 -116t-151.5 -43.5v502zM333 110q-111 13 -175.5 63.5t-92.5 145.5t-28 249
h48q0 -158 26.5 -245t89.5 -127.5t180 -48.5v-153h-48v116zM428 147q116 9 179.5 51t90 129t26.5 241h48q0 -152 -29 -247t-93.5 -146t-173.5 -65v-116h-48v153z" />
    <glyph glyph-name="Omega" unicode="&#x3a9;" horiz-adv-x="775" 
d="M46 118h115q-72 57 -98 119t-26 149t43.5 156.5t123.5 108.5t185 39q106 0 185 -39.5t121.5 -109t42.5 -157.5q0 -82 -28 -144t-98 -122h117v-39h-222q70 49 109 93.5t56.5 94t17.5 115.5q0 77 -37.5 137.5t-106 94.5t-157.5 34q-90 0 -159 -33.5t-107 -94t-38 -138.5
q0 -68 16 -117t55.5 -93.5t111.5 -92.5h-222v39zM46 40h254v50q-167 125 -167 288q0 68 32 119.5t89 80t131 28.5q77 0 135 -28t90 -79.5t32 -121.5q0 -86 -41.5 -154.5t-125.5 -132.5v-50h254v-40h-298v109q86 61 124.5 126t38.5 142q0 85 -55 136.5t-154 51.5
q-64 0 -110 -24.5t-70 -67t-24 -95.5q0 -155 163 -269v-109h-298v40z" />
    <glyph glyph-name="Iotadieresis" unicode="&#x3aa;" horiz-adv-x="302" 
d="M79 682h48v-682h-48v682zM175 682h48v-682h-48v682zM-6.5 757q-26.5 26 -26.5 61q0 36 26 61.5t62 25.5t61.5 -25.5t25.5 -61.5q0 -35 -25.5 -61t-61.5 -26q-35 0 -61.5 26zM186 757q-26 26 -26 61q0 36 26 61.5t62 25.5q35 0 60.5 -25.5t25.5 -61.5q0 -35 -25.5 -61
t-60.5 -26q-36 0 -62 26zM94 779.5q17 16.5 17 38.5q0 23 -17 39.5t-40 16.5q-22 0 -38.5 -16.5t-16.5 -39.5q0 -22 16.5 -38.5t38.5 -16.5q23 0 40 16.5zM287 779.5q16 16.5 16 38.5q0 23 -16.5 39.5t-38.5 16.5q-23 0 -40 -16.5t-17 -39.5q0 -22 17 -38.5t40 -16.5
t39 16.5zM37 801q-8 8 -8 18q0 9 8 16.5t18 7.5t17 -7t7 -17q0 -11 -7 -18.5t-17 -7.5t-18 8zM229.5 800.5q-7.5 7.5 -7.5 18.5q0 9 7.5 16.5t18.5 7.5q9 0 16.5 -7t7.5 -17q0 -11 -7 -18.5t-17 -7.5q-11 0 -18.5 7.5z" />
    <glyph glyph-name="Upsilondieresis" unicode="&#x3ab;" horiz-adv-x="664" 
d="M260 339l-257 343h52l253 -334v-348h-48v339zM115 682h52l164 -224l167 224h52l-219 -293zM356 348l252 334h53l-257 -343v-339h-48v348zM171.5 757q-26.5 26 -26.5 61q0 36 26 61.5t62 25.5t61.5 -25.5t25.5 -61.5q0 -35 -25.5 -61t-61.5 -26q-35 0 -61.5 26zM364 757
q-26 26 -26 61q0 36 26 61.5t62 25.5q35 0 60.5 -25.5t25.5 -61.5q0 -35 -25.5 -61t-60.5 -26q-36 0 -62 26zM272 779.5q17 16.5 17 38.5q0 23 -17 39.5t-40 16.5q-22 0 -38.5 -16.5t-16.5 -39.5q0 -22 16.5 -38.5t38.5 -16.5q23 0 40 16.5zM465 779.5q16 16.5 16 38.5
q0 23 -16.5 39.5t-38.5 16.5q-23 0 -40 -16.5t-17 -39.5q0 -22 17 -38.5t40 -16.5t39 16.5zM215 801q-8 8 -8 18q0 9 8 16.5t18 7.5t17 -7t7 -17q0 -11 -7 -18.5t-17 -7.5t-18 8zM407.5 800.5q-7.5 7.5 -7.5 18.5q0 9 7.5 16.5t18.5 7.5q9 0 16.5 -7t7.5 -17q0 -11 -7 -18.5
t-17 -7.5q-11 0 -18.5 7.5z" />
    <glyph glyph-name="alphatonos" unicode="&#x3ac;" 
d="M301 685h127l310 -685h-52l-289 643h-66l-277 -643h-51zM349 592h30l145 -334h-310zM460 298l-96 222l-86 -222h182zM194 214h349l91 -214h-52l-72 173h-281l-71 -173h-52z" />
    <glyph glyph-name="epsilontonos" unicode="&#x3ad;" horiz-adv-x="571" 
d="M69 682h426v-42h-378v-598h385v-42h-433v682zM166 596h329v-43h-282v-145h268v-42h-315v230zM166 322h315v-42h-268v-152h289v-42h-336v236z" />
    <glyph glyph-name="etatonos" unicode="&#x3ae;" horiz-adv-x="766" 
d="M69 682h48v-682h-48v682zM164 682h48v-272h342v272h48v-314h-438v314zM649 682h48v-682h-48v682zM164 322h438v-322h-48v280h-342v-280h-48v322z" />
    <glyph glyph-name="iotatonos" unicode="&#x3af;" horiz-adv-x="302" 
d="M79 682h48v-682h-48v682zM175 682h48v-682h-48v682z" />
    <glyph glyph-name="upsilondieresistonos" unicode="&#x3b0;" horiz-adv-x="664" 
d="M260 339l-257 343h52l253 -334v-348h-48v339zM115 682h52l164 -224l167 224h52l-219 -293zM356 348l252 334h53l-257 -343v-339h-48v348zM171.5 757q-26.5 26 -26.5 61q0 36 26 61.5t62 25.5t61.5 -25.5t25.5 -61.5q0 -35 -25.5 -61t-61.5 -26q-35 0 -61.5 26zM364 757
q-26 26 -26 61q0 36 26 61.5t62 25.5q35 0 60.5 -25.5t25.5 -61.5q0 -35 -25.5 -61t-60.5 -26q-36 0 -62 26zM272 779.5q17 16.5 17 38.5q0 23 -17 39.5t-40 16.5q-22 0 -38.5 -16.5t-16.5 -39.5q0 -22 16.5 -38.5t38.5 -16.5q23 0 40 16.5zM465 779.5q16 16.5 16 38.5
q0 23 -16.5 39.5t-38.5 16.5q-23 0 -40 -16.5t-17 -39.5q0 -22 17 -38.5t40 -16.5t39 16.5zM215 801q-8 8 -8 18q0 9 8 16.5t18 7.5t17 -7t7 -17q0 -11 -7 -18.5t-17 -7.5t-18 8zM407.5 800.5q-7.5 7.5 -7.5 18.5q0 9 7.5 16.5t18.5 7.5q9 0 16.5 -7t7.5 -17q0 -11 -7 -18.5
t-17 -7.5q-11 0 -18.5 7.5z" />
    <glyph glyph-name="alpha" unicode="&#x3b1;" 
d="M301 685h127l310 -685h-52l-289 643h-66l-277 -643h-51zM349 592h30l145 -334h-310zM460 298l-96 222l-86 -222h182zM194 214h349l91 -214h-52l-72 173h-281l-71 -173h-52z" />
    <glyph glyph-name="beta" unicode="&#x3b2;" horiz-adv-x="636" 
d="M69 682h248q110 0 168 -49t58 -129q0 -50 -19.5 -85.5t-50.5 -54.5q125 -36 125 -174q0 -96 -73.5 -143t-191.5 -47h-264v682zM329 40q106 0 163.5 39.5t57.5 114.5q0 69 -39 109.5t-130 49.5q114 29 114 144q0 73 -50 109t-144 36h-184v-602h212zM166 603h123
q83 0 118.5 -27.5t35.5 -85.5q0 -59 -43 -90.5t-125 -31.5h-109v235zM278 406q61 0 89.5 22.5t28.5 59.5q0 42 -25.5 60.5t-82.5 18.5h-75v-161h65zM166 325h141q100 0 146 -31t46 -94q0 -62 -44.5 -92t-134.5 -30h-154v247zM308 115q75 0 109 21t34 67q0 43 -34 63.5
t-113 20.5h-91v-172h95z" />
    <glyph glyph-name="gamma" unicode="&#x3b3;" horiz-adv-x="539" 
d="M69 682h450v-42h-402v-640h-48v682zM166 595h353v-42h-306v-553h-47v595z" />
    <glyph glyph-name="delta" unicode="&#x3b4;" 
d="M301 685h127l310 -685h-735zM667 41l-270 602h-66l-257 -602h593zM349 592h30l219 -507h-457zM532 127l-168 393l-157 -393h325z" />
    <glyph glyph-name="epsilon" unicode="&#x3b5;" horiz-adv-x="571" 
d="M69 682h426v-42h-378v-598h385v-42h-433v682zM166 596h329v-43h-282v-145h268v-42h-315v230zM166 322h315v-42h-268v-152h289v-42h-336v236z" />
    <glyph glyph-name="zeta" unicode="&#x3b6;" horiz-adv-x="695" 
d="M593 640h-550v42h632l-405 -553h401v-42h-484zM426 553h-383v42h464l-406 -553h570v-42h-651z" />
    <glyph glyph-name="eta" unicode="&#x3b7;" horiz-adv-x="766" 
d="M69 682h48v-682h-48v682zM164 682h48v-272h342v272h48v-314h-438v314zM649 682h48v-682h-48v682zM164 322h438v-322h-48v280h-342v-280h-48v322z" />
    <glyph glyph-name="theta" unicode="&#x3b8;" horiz-adv-x="825" 
d="M215 38.5q-84 47.5 -131 127t-47 173.5q0 91 44 172t129 130.5t201 49.5q108 0 194 -46.5t134.5 -126.5t48.5 -176q0 -93 -46 -173.5t-133 -129t-203 -48.5q-107 0 -191 47.5zM585.5 73q76.5 43 117 114.5t40.5 153.5q0 86 -42.5 157t-118.5 112.5t-171 41.5
q-103 0 -177.5 -44t-113 -116t-38.5 -154q0 -83 41 -153.5t114.5 -112.5t168.5 -42q103 0 179.5 43zM272.5 108q-62.5 34 -100 94.5t-37.5 135.5t33.5 136.5t96.5 97.5t149 36t148.5 -40t95 -101.5t32.5 -124.5q0 -86 -38 -146.5t-102.5 -91t-141.5 -30.5q-73 0 -135.5 34z
M528.5 140q53.5 27 85 78.5t31.5 123.5q0 56 -27 108.5t-80 85.5t-125 33q-71 0 -124 -30t-81 -82t-28 -117q0 -66 30.5 -117.5t83 -80.5t115.5 -29q66 0 119.5 27zM246 400h335v-37h-335v37zM246 319h335v-37h-335v37z" />
    <glyph glyph-name="iota" unicode="&#x3b9;" horiz-adv-x="302" 
d="M79 682h48v-682h-48v682zM175 682h48v-682h-48v682z" />
    <glyph glyph-name="kappa" unicode="&#x3ba;" horiz-adv-x="700" 
d="M69 682h48v-682h-48v682zM166 682h48v-308l268 308h56l-282 -328l324 -354h-60l-306 332v-332h-48v682zM312 358l293 324h56l-291 -323l337 -359h-61z" />
    <glyph glyph-name="lambda" unicode="&#x3bb;" horiz-adv-x="706" 
d="M324 685h52l327 -685h-51l-302 635l-296 -635h-51zM347 525h4l252 -525h-51l-201 428l-197 -428h-52z" />
    <glyph glyph-name="mu" unicode="&#x3bc;" horiz-adv-x="834" 
d="M69 682h136l213 -268l212 268h135v-682h-48v640h-66l-233 -294l-234 294h-67v-640h-48v682zM166 582h6l243 -306h6l241 306h6v-582h-48v464l-192 -244h-20l-195 244v-464h-47v582z" />
    <glyph glyph-name="nu" unicode="&#x3bd;" horiz-adv-x="814" 
d="M69 682h134l399 -467v467h48v-588l-471 546h-62v-640h-48v682zM164 586l470 -544h63v640h48v-682h-135l-399 468v-468h-47v586z" />
    <glyph glyph-name="xi" unicode="&#x3be;" horiz-adv-x="694" 
d="M80 682h533v-40h-533v40zM80 602h533v-40h-533v40zM136 401h422v-40h-422v40zM136 321h422v-40h-422v40zM70 120h553v-40h-553v40zM70 40h553v-40h-553v40z" />
    <glyph glyph-name="omicron" unicode="&#x3bf;" horiz-adv-x="810" 
d="M210.5 38.5q-82.5 47.5 -128 127t-45.5 173.5q0 91 43.5 172t126.5 130.5t196 49.5q106 0 190.5 -46.5t132 -126.5t47.5 -176q0 -93 -45 -173.5t-130.5 -129t-199.5 -48.5q-105 0 -187.5 47.5zM573 75.5q74 42.5 113 113.5t39 152q0 85 -41 155.5t-114.5 111.5t-165.5 41
q-100 0 -172 -44t-109.5 -115t-37.5 -152q0 -82 39.5 -152t111 -111.5t163.5 -41.5q100 0 174 42.5zM268.5 108q-61.5 34 -98 94.5t-36.5 135.5t33 136.5t94.5 97.5t144.5 36q84 0 145.5 -40t93 -101.5t31.5 -124.5q0 -86 -37 -146.5t-99.5 -91t-138.5 -30.5
q-71 0 -132.5 34zM516.5 142.5q51.5 26.5 81.5 77.5t30 122q0 56 -26 107.5t-76.5 84t-119.5 32.5t-119.5 -29.5t-77.5 -81t-27 -115.5q0 -65 29.5 -116t80 -79.5t110.5 -28.5q63 0 114.5 26.5z" />
    <glyph glyph-name="pi" unicode="&#x3c0;" horiz-adv-x="766" 
d="M69 682h628v-682h-48v640h-532v-640h-48v682zM164 594h438v-594h-48v552h-342v-552h-48v594z" />
    <glyph glyph-name="rho" unicode="&#x3c1;" horiz-adv-x="596" 
d="M69 682h247q116 0 179 -58.5t63 -159.5q0 -106 -66.5 -161.5t-190.5 -55.5h-88v-247h-47v289h130q108 0 161 43.5t53 132.5q0 84 -52.5 129.5t-152.5 45.5h-188v-640h-48v682zM166 596h126q85 0 126.5 -32t41.5 -99q0 -69 -40.5 -100.5t-127.5 -31.5h-126v263zM292 374
q69 0 95 23t26 69q0 43 -27.5 65.5t-93.5 22.5h-79v-180h79z" />
    <glyph glyph-name="sigma1" unicode="&#x3c2;" horiz-adv-x="690" 
d="M316 328l-289 354h597v-40h-506l255 -315l-260 -287h532v-40h-625zM429 326l-223 276h418v-40h-330l191 -236l-185 -206h345v-40h-437z" />
    <glyph glyph-name="sigma" unicode="&#x3c3;" horiz-adv-x="690" 
d="M316 328l-289 354h597v-40h-506l255 -315l-260 -287h532v-40h-625zM429 326l-223 276h418v-40h-330l191 -236l-185 -206h345v-40h-437z" />
    <glyph glyph-name="tau" unicode="&#x3c4;" horiz-adv-x="640" 
d="M20 682h600v-42h-600v42zM246 554h-226v42h274v-596h-48v554zM343 596h277v-42h-230v-554h-47v596z" />
    <glyph glyph-name="upsilon" unicode="&#x3c5;" horiz-adv-x="664" 
d="M260 339l-257 343h52l253 -334v-348h-48v339zM115 682h52l164 -224l167 224h52l-219 -293zM356 348l252 334h53l-257 -343v-339h-48v348z" />
    <glyph glyph-name="phi" unicode="&#x3c6;" horiz-adv-x="835" 
d="M346 94q-92 4 -162 37.5t-108.5 90t-38.5 127.5q0 69 36.5 123t106.5 86.5t166 37.5v92h48v-130q-147 -1 -228 -56.5t-81 -154.5q0 -67 37.5 -115.5t107.5 -74t164 -24.5v-139h-48v100zM441 133q96 -2 165.5 24t106.5 75.5t37 116.5q0 64 -38 111.5t-108 73t-163 24.5
v130h48v-92q92 -4 162.5 -37t108.5 -88t38 -122q0 -70 -36.5 -126.5t-106 -91t-166.5 -37.5v-100h-48v139zM441 518q76 3 134.5 -17.5t91.5 -60.5t33 -93q0 -56 -32.5 -96.5t-91 -60.5t-135.5 -18v346zM256.5 189.5q-58.5 20.5 -90 60.5t-31.5 96t32.5 95.5t91 59.5
t135.5 17v-346q-79 -3 -137.5 17.5zM346 478q-78 -2 -121.5 -38.5t-43.5 -93.5q0 -56 41.5 -93t123.5 -40v265zM611 251.5q43 36.5 43 95.5t-47 93.5t-118 36.5v-264q79 2 122 38.5z" />
    <glyph glyph-name="chi" unicode="&#x3c7;" horiz-adv-x="767" 
d="M302 353l-278 329h55l279 -329l-300 -353h-55zM134 682h55l196 -237l196 237h55l-251 -298zM412 353l279 329h54l-278 -329l297 -353h-55zM385 319l271 -319h-55l-216 259l-218 -259h-54z" />
    <glyph glyph-name="psi" unicode="&#x3c8;" horiz-adv-x="809" 
d="M229 231q-52 37 -73.5 115t-23.5 222h48q0 -108 14 -177.5t47.5 -108.5t91.5 -48v454h48v-502q-100 8 -152 45zM428 688h48v-454q58 9 91.5 48t47.5 108.5t14 177.5h48q0 -143 -22 -222.5t-75.5 -116t-151.5 -43.5v502zM333 110q-111 13 -175.5 63.5t-92.5 145.5t-28 249
h48q0 -158 26.5 -245t89.5 -127.5t180 -48.5v-153h-48v116zM428 147q116 9 179.5 51t90 129t26.5 241h48q0 -152 -29 -247t-93.5 -146t-173.5 -65v-116h-48v153z" />
    <glyph glyph-name="omega" unicode="&#x3c9;" horiz-adv-x="775" 
d="M46 118h115q-72 57 -98 119t-26 149t43.5 156.5t123.5 108.5t185 39q106 0 185 -39.5t121.5 -109t42.5 -157.5q0 -82 -28 -144t-98 -122h117v-39h-222q70 49 109 93.5t56.5 94t17.5 115.5q0 77 -37.5 137.5t-106 94.5t-157.5 34q-90 0 -159 -33.5t-107 -94t-38 -138.5
q0 -68 16 -117t55.5 -93.5t111.5 -92.5h-222v39zM46 40h254v50q-167 125 -167 288q0 68 32 119.5t89 80t131 28.5q77 0 135 -28t90 -79.5t32 -121.5q0 -86 -41.5 -154.5t-125.5 -132.5v-50h254v-40h-298v109q86 61 124.5 126t38.5 142q0 85 -55 136.5t-154 51.5
q-64 0 -110 -24.5t-70 -67t-24 -95.5q0 -155 163 -269v-109h-298v40z" />
    <glyph glyph-name="iotadieresis" unicode="&#x3ca;" horiz-adv-x="302" 
d="M79 682h48v-682h-48v682zM175 682h48v-682h-48v682zM-6.5 757q-26.5 26 -26.5 61q0 36 26 61.5t62 25.5t61.5 -25.5t25.5 -61.5q0 -35 -25.5 -61t-61.5 -26q-35 0 -61.5 26zM186 757q-26 26 -26 61q0 36 26 61.5t62 25.5q35 0 60.5 -25.5t25.5 -61.5q0 -35 -25.5 -61
t-60.5 -26q-36 0 -62 26zM94 779.5q17 16.5 17 38.5q0 23 -17 39.5t-40 16.5q-22 0 -38.5 -16.5t-16.5 -39.5q0 -22 16.5 -38.5t38.5 -16.5q23 0 40 16.5zM287 779.5q16 16.5 16 38.5q0 23 -16.5 39.5t-38.5 16.5q-23 0 -40 -16.5t-17 -39.5q0 -22 17 -38.5t40 -16.5
t39 16.5zM37 801q-8 8 -8 18q0 9 8 16.5t18 7.5t17 -7t7 -17q0 -11 -7 -18.5t-17 -7.5t-18 8zM229.5 800.5q-7.5 7.5 -7.5 18.5q0 9 7.5 16.5t18.5 7.5q9 0 16.5 -7t7.5 -17q0 -11 -7 -18.5t-17 -7.5q-11 0 -18.5 7.5z" />
    <glyph glyph-name="upsilondieresis" unicode="&#x3cb;" horiz-adv-x="664" 
d="M260 339l-257 343h52l253 -334v-348h-48v339zM115 682h52l164 -224l167 224h52l-219 -293zM356 348l252 334h53l-257 -343v-339h-48v348zM171.5 757q-26.5 26 -26.5 61q0 36 26 61.5t62 25.5t61.5 -25.5t25.5 -61.5q0 -35 -25.5 -61t-61.5 -26q-35 0 -61.5 26zM364 757
q-26 26 -26 61q0 36 26 61.5t62 25.5q35 0 60.5 -25.5t25.5 -61.5q0 -35 -25.5 -61t-60.5 -26q-36 0 -62 26zM272 779.5q17 16.5 17 38.5q0 23 -17 39.5t-40 16.5q-22 0 -38.5 -16.5t-16.5 -39.5q0 -22 16.5 -38.5t38.5 -16.5q23 0 40 16.5zM465 779.5q16 16.5 16 38.5
q0 23 -16.5 39.5t-38.5 16.5q-23 0 -40 -16.5t-17 -39.5q0 -22 17 -38.5t40 -16.5t39 16.5zM215 801q-8 8 -8 18q0 9 8 16.5t18 7.5t17 -7t7 -17q0 -11 -7 -18.5t-17 -7.5t-18 8zM407.5 800.5q-7.5 7.5 -7.5 18.5q0 9 7.5 16.5t18.5 7.5q9 0 16.5 -7t7.5 -17q0 -11 -7 -18.5
t-17 -7.5q-11 0 -18.5 7.5z" />
    <glyph glyph-name="omicrontonos" unicode="&#x3cc;" horiz-adv-x="810" 
d="M210.5 38.5q-82.5 47.5 -128 127t-45.5 173.5q0 91 43.5 172t126.5 130.5t196 49.5q106 0 190.5 -46.5t132 -126.5t47.5 -176q0 -93 -45 -173.5t-130.5 -129t-199.5 -48.5q-105 0 -187.5 47.5zM573 75.5q74 42.5 113 113.5t39 152q0 85 -41 155.5t-114.5 111.5t-165.5 41
q-100 0 -172 -44t-109.5 -115t-37.5 -152q0 -82 39.5 -152t111 -111.5t163.5 -41.5q100 0 174 42.5zM268.5 108q-61.5 34 -98 94.5t-36.5 135.5t33 136.5t94.5 97.5t144.5 36q84 0 145.5 -40t93 -101.5t31.5 -124.5q0 -86 -37 -146.5t-99.5 -91t-138.5 -30.5
q-71 0 -132.5 34zM516.5 142.5q51.5 26.5 81.5 77.5t30 122q0 56 -26 107.5t-76.5 84t-119.5 32.5t-119.5 -29.5t-77.5 -81t-27 -115.5q0 -65 29.5 -116t80 -79.5t110.5 -28.5q63 0 114.5 26.5z" />
    <glyph glyph-name="upsilontonos" unicode="&#x3cd;" horiz-adv-x="664" 
d="M260 339l-257 343h52l253 -334v-348h-48v339zM115 682h52l164 -224l167 224h52l-219 -293zM356 348l252 334h53l-257 -343v-339h-48v348z" />
    <glyph glyph-name="omegatonos" unicode="&#x3ce;" horiz-adv-x="775" 
d="M46 118h115q-72 57 -98 119t-26 149t43.5 156.5t123.5 108.5t185 39q106 0 185 -39.5t121.5 -109t42.5 -157.5q0 -82 -28 -144t-98 -122h117v-39h-222q70 49 109 93.5t56.5 94t17.5 115.5q0 77 -37.5 137.5t-106 94.5t-157.5 34q-90 0 -159 -33.5t-107 -94t-38 -138.5
q0 -68 16 -117t55.5 -93.5t111.5 -92.5h-222v39zM46 40h254v50q-167 125 -167 288q0 68 32 119.5t89 80t131 28.5q77 0 135 -28t90 -79.5t32 -121.5q0 -86 -41.5 -154.5t-125.5 -132.5v-50h254v-40h-298v109q86 61 124.5 126t38.5 142q0 85 -55 136.5t-154 51.5
q-64 0 -110 -24.5t-70 -67t-24 -95.5q0 -155 163 -269v-109h-298v40z" />
    <glyph glyph-name="uni0400" unicode="&#x400;" horiz-adv-x="571" 
d="M69 682h426v-42h-378v-598h385v-42h-433v682zM166 596h329v-43h-282v-145h268v-42h-315v230zM166 322h315v-42h-268v-152h289v-42h-336v236zM121 887h60l127 -155h-46zM242 887h55l80 -155h-45z" />
    <glyph glyph-name="afii10023" unicode="&#x401;" horiz-adv-x="571" 
d="M69 682h426v-42h-378v-598h385v-42h-433v682zM166 596h329v-43h-282v-145h268v-42h-315v230zM166 322h315v-42h-268v-152h289v-42h-336v236zM127.5 757q-26.5 26 -26.5 61q0 36 26 61.5t62 25.5t61.5 -25.5t25.5 -61.5q0 -35 -25.5 -61t-61.5 -26q-35 0 -61.5 26z
M320 757q-26 26 -26 61q0 36 26 61.5t62 25.5q35 0 60.5 -25.5t25.5 -61.5q0 -35 -25.5 -61t-60.5 -26q-36 0 -62 26zM228 779.5q17 16.5 17 38.5q0 23 -17 39.5t-40 16.5q-22 0 -38.5 -16.5t-16.5 -39.5q0 -22 16.5 -38.5t38.5 -16.5q23 0 40 16.5zM421 779.5
q16 16.5 16 38.5q0 23 -16.5 39.5t-38.5 16.5q-23 0 -40 -16.5t-17 -39.5q0 -22 17 -38.5t40 -16.5t39 16.5zM171 801q-8 8 -8 18q0 9 8 16.5t18 7.5t17 -7t7 -17q0 -11 -7 -18.5t-17 -7.5t-18 8zM363.5 800.5q-7.5 7.5 -7.5 18.5q0 9 7.5 16.5t18.5 7.5q9 0 16.5 -7
t7.5 -17q0 -11 -7 -18.5t-17 -7.5q-11 0 -18.5 7.5z" />
    <glyph glyph-name="afii10051" unicode="&#x402;" horiz-adv-x="800" 
d="M20 682h600v-42h-600v42zM246 554h-226v42h274v-596h-48v554zM445 0v42q40 -9 81 -9q100 0 146.5 55t46.5 136q0 87 -49 135t-140 48q-55 0 -94.5 -10.5t-92.5 -36.5v236h277v-42h-230v-135q60 30 145 30q111 0 170.5 -58.5t59.5 -165.5q0 -102 -57 -168t-180 -66
q-43 0 -83 9zM343 322q89 49 174 49q76 0 115 -38t39 -109q0 -72 -39 -113.5t-110 -41.5q-45 0 -77 10v39q27 -9 70 -9q54 0 82 31.5t28 83.5q0 107 -116 107q-34 0 -66 -8t-53 -21v-302h-47v322z" />
    <glyph glyph-name="afii10052" unicode="&#x403;" horiz-adv-x="539" 
d="M69 682h450v-42h-402v-640h-48v682zM166 595h353v-42h-306v-553h-47v595zM284 887h55l-90 -155h-45zM400 887h60l-141 -155h-46z" />
    <glyph glyph-name="afii10053" unicode="&#x404;" horiz-adv-x="707" 
d="M204 42.5q-84 51.5 -125.5 131t-41.5 164.5q0 98 50 179t136 127.5t187 46.5q118 0 242 -53v-45q-58 26 -120 41t-119 15q-88 0 -163.5 -39t-120 -110t-44.5 -162q0 -76 38 -146.5t112 -114.5t176 -44q140 0 248 59v-44q-113 -57 -251 -57q-120 0 -204 51.5zM179 485
q35 55 96 86.5t141 31.5q58 0 121 -16t115 -44v-45q-113 63 -233 63q-91 0 -148.5 -44.5t-74.5 -115.5h333v-40h-391q6 69 41 124zM273 109.5q-61 30.5 -96 85.5t-39 126h391v-40h-334q15 -72 72.5 -116t149.5 -44q63 0 125.5 18t116.5 51v-44q-52 -31 -119 -49t-126 -18
q-80 0 -141 30.5z" />
    </font>
</defs>
</svg>
